<?xml version="1.0" encoding="UTF-8" standalone="no"?>
<svg
   width="98"
   height="43"
   viewBox="0 0 98 43"
   version="1.1"
   id="svg17"
   sodipodi:docname="ib-navbutton-donate.svg"
   inkscape:version="1.2.2 (732a01da63, 2022-12-09)"
   xmlns:inkscape="http://www.inkscape.org/namespaces/inkscape"
   xmlns:sodipodi="http://sodipodi.sourceforge.net/DTD/sodipodi-0.dtd"
   xmlns="http://www.w3.org/2000/svg"
   xmlns:svg="http://www.w3.org/2000/svg">
  <defs
     id="defs21" />
  <sodipodi:namedview
     id="namedview19"
     pagecolor="#505050"
     bordercolor="#eeeeee"
     borderopacity="1"
     inkscape:showpageshadow="0"
     inkscape:pageopacity="0"
     inkscape:pagecheckerboard="0"
     inkscape:deskcolor="#505050"
     showgrid="false"
     inkscape:zoom="7.6173469"
     inkscape:cx="40.171467"
     inkscape:cy="9.1895512"
     inkscape:window-width="1920"
     inkscape:window-height="1027"
     inkscape:window-x="-8"
     inkscape:window-y="-8"
     inkscape:window-maximized="1"
     inkscape:current-layer="svg17" />
  <style
     id="style9">
    /*@import url(&quot;https://fonts.googleapis.com/css2?family=Outfit:wght@600;700&quot;);*/
    text { font: 700 30px Outfit, Outfit Thin; fill: #00f; }
  </style>
  <rect
     id="rect11" />
  <!--<image href="https://inkbunny.net/images80/latest.png" style="filter: brightness(0.5)" />-->
  <g
     id="g15">
    <g
       aria-label="Donate!"
       id="text13"
       style="font-weight:700;font-size:30px;font-family:'Outfit Thin';-inkscape-font-specification:'Outfit Thin, @wght=700';font-variation-settings:'wght' 700;fill:#0000ff">
      <path
         id="path255"
         d="M 104.78906 -21.779297 L 105.53906 -7.7402344 L 108.99023 -7.7402344 L 109.74023 -21.779297 L 104.78906 -21.779297 z M 2.0390625 -21.179688 L 2.0390625 0 L 6.75 0 L 10.589844 0 C 12.169842 0 13.630704 -0.2592974 14.970703 -0.77929688 C 16.330702 -1.2992964 17.509767 -2.0307041 18.509766 -2.9707031 C 19.509765 -3.9107022 20.280313 -5.0300794 20.820312 -6.3300781 C 21.380312 -7.6300768 21.660156 -9.0498453 21.660156 -10.589844 C 21.660156 -12.149842 21.380312 -13.569611 20.820312 -14.849609 C 20.280313 -16.149608 19.500468 -17.270938 18.480469 -18.210938 C 17.48047 -19.170937 16.299452 -19.900391 14.939453 -20.400391 C 13.599454 -20.92039 12.129295 -21.179688 10.529297 -21.179688 L 6.75 -21.179688 L 2.0390625 -21.179688 z M 78.599609 -20.609375 L 78.599609 -14.580078 L 75.300781 -14.580078 L 75.300781 -10.679688 L 78.599609 -10.679688 L 78.599609 0 L 83.189453 0 L 83.189453 -10.679688 L 86.490234 -10.679688 L 86.490234 -14.580078 L 83.189453 -14.580078 L 83.189453 -20.609375 L 78.599609 -20.609375 z M 6.75 -17.070312 L 10.470703 -17.070312 C 11.750702 -17.070312 12.860782 -16.809062 13.800781 -16.289062 C 14.76078 -15.769063 15.499532 -15.030312 16.019531 -14.070312 C 16.559531 -13.110313 16.830078 -11.959139 16.830078 -10.619141 C 16.830078 -9.279142 16.570781 -8.120624 16.050781 -7.140625 C 15.530782 -6.160626 14.790077 -5.4106245 13.830078 -4.890625 C 12.870079 -4.3906255 11.750702 -4.140625 10.470703 -4.140625 L 6.75 -4.140625 L 6.75 -17.070312 z M 31.259766 -14.910156 C 29.739767 -14.910156 28.379686 -14.570624 27.179688 -13.890625 C 25.979689 -13.230626 25.030077 -12.329452 24.330078 -11.189453 C 23.630079 -10.049454 23.279297 -8.7603111 23.279297 -7.3203125 C 23.279297 -5.8803139 23.630079 -4.5799207 24.330078 -3.4199219 C 25.030077 -2.259923 25.979689 -1.3401556 27.179688 -0.66015625 C 28.399686 -0.00015691 29.759767 0.33007812 31.259766 0.33007812 C 32.779764 0.33007813 34.139845 -0.00015691 35.339844 -0.66015625 C 36.539843 -1.3401556 37.489454 -2.259923 38.189453 -3.4199219 C 38.889452 -4.5799207 39.240234 -5.8803139 39.240234 -7.3203125 C 39.240234 -8.7603111 38.889452 -10.049454 38.189453 -11.189453 C 37.489454 -12.349452 36.539843 -13.259923 35.339844 -13.919922 C 34.139845 -14.579921 32.779764 -14.910156 31.259766 -14.910156 z M 95.070312 -14.910156 C 93.590314 -14.910156 92.260077 -14.579921 91.080078 -13.919922 C 89.900079 -13.259923 88.959765 -12.349452 88.259766 -11.189453 C 87.579766 -10.049454 87.240234 -8.749061 87.240234 -7.2890625 C 87.240234 -5.829064 87.589063 -4.5193738 88.289062 -3.359375 C 88.989062 -2.1993762 89.949923 -1.2908587 91.169922 -0.63085938 C 92.409921 0.009139985 93.820392 0.33007812 95.400391 0.33007812 C 96.620389 0.33007813 97.739767 0.11921833 98.759766 -0.30078125 C 99.779767 -0.72078083 100.64914 -1.349454 101.36914 -2.1894531 L 98.849609 -4.7109375 C 98.40961 -4.210938 97.900312 -3.8303122 97.320312 -3.5703125 C 96.740313 -3.3303127 96.08914 -3.2109375 95.369141 -3.2109375 C 94.589141 -3.2109375 93.910078 -3.3694534 93.330078 -3.6894531 C 92.770079 -4.0294528 92.329765 -4.49961 92.009766 -5.0996094 C 91.909084 -5.3076852 91.826658 -5.5305176 91.759766 -5.765625 L 102.21094 -5.7890625 C 102.29094 -6.1690621 102.33938 -6.4992972 102.35938 -6.7792969 C 102.39937 -7.0792966 102.41992 -7.3591409 102.41992 -7.6191406 C 102.41992 -9.0391392 102.10094 -10.300392 101.46094 -11.400391 C 100.84094 -12.50039 99.98086 -13.360469 98.880859 -13.980469 C 97.78086 -14.600468 96.510311 -14.910156 95.070312 -14.910156 z M 50.189453 -14.880859 C 49.069454 -14.880859 48.060155 -14.640156 47.160156 -14.160156 C 46.772393 -13.957462 46.423356 -13.713954 46.109375 -13.433594 L 46.109375 -14.580078 L 41.519531 -14.580078 L 41.519531 0 L 46.109375 0 L 46.109375 -8.3105469 C 46.109375 -8.8105464 46.219453 -9.2508598 46.439453 -9.6308594 C 46.659453 -10.030859 46.959844 -10.329297 47.339844 -10.529297 C 47.719843 -10.749297 48.160157 -10.859375 48.660156 -10.859375 C 49.380156 -10.859375 49.969688 -10.620625 50.429688 -10.140625 C 50.909687 -9.6806255 51.150391 -9.0705461 51.150391 -8.3105469 L 51.150391 0 L 55.740234 0 L 55.740234 -9.3300781 C 55.740234 -10.330077 55.499531 -11.249845 55.019531 -12.089844 C 54.539532 -12.929843 53.879062 -13.59961 53.039062 -14.099609 C 52.219063 -14.619609 51.269452 -14.880859 50.189453 -14.880859 z M 64.769531 -14.880859 C 63.429533 -14.880859 62.229921 -14.550624 61.169922 -13.890625 C 60.129923 -13.230626 59.299687 -12.329452 58.679688 -11.189453 C 58.079688 -10.049454 57.779297 -8.749061 57.779297 -7.2890625 C 57.779297 -5.829064 58.079688 -4.5306239 58.679688 -3.390625 C 59.299687 -2.2506261 60.129923 -1.3494525 61.169922 -0.68945312 C 62.229921 -0.029453785 63.429533 0.30078125 64.769531 0.30078125 C 65.74953 0.30078125 66.639454 0.11046837 67.439453 -0.26953125 C 67.956568 -0.51516098 68.405651 -0.82097285 68.789062 -1.1835938 L 68.789062 0 L 73.289062 0 L 73.289062 -14.580078 L 68.789062 -14.580078 L 68.789062 -13.367188 C 68.39343 -13.745441 67.934825 -14.061329 67.410156 -14.310547 C 66.630157 -14.690546 65.74953 -14.880859 64.769531 -14.880859 z M 95.099609 -11.400391 C 95.779609 -11.400391 96.350547 -11.249218 96.810547 -10.949219 C 97.290546 -10.669219 97.650625 -10.249453 97.890625 -9.6894531 C 97.990879 -9.4638813 98.070947 -9.211514 98.132812 -8.9335938 L 91.763672 -8.9160156 C 91.823366 -9.1255933 91.894187 -9.3248764 91.980469 -9.5097656 C 92.280468 -10.109765 92.690938 -10.570625 93.210938 -10.890625 C 93.750937 -11.230625 94.37961 -11.400391 95.099609 -11.400391 z M 31.259766 -10.740234 C 31.919765 -10.740234 32.490704 -10.589062 32.970703 -10.289062 C 33.470703 -10.009063 33.860625 -9.6098432 34.140625 -9.0898438 C 34.420625 -8.5898443 34.560547 -8.0003118 34.560547 -7.3203125 C 34.560547 -6.6403132 34.420625 -6.0302338 34.140625 -5.4902344 C 33.880625 -4.9702349 33.5 -4.5597653 33 -4.2597656 C 32.5 -3.9797659 31.919765 -3.8398438 31.259766 -3.8398438 C 30.619766 -3.8398437 30.050781 -3.9797659 29.550781 -4.2597656 C 29.050782 -4.5597653 28.660859 -4.9702349 28.380859 -5.4902344 C 28.10086 -6.0302338 27.960938 -6.6290632 27.960938 -7.2890625 C 27.960938 -7.9690618 28.10086 -8.5698443 28.380859 -9.0898438 C 28.660859 -9.6098432 29.050782 -10.009063 29.550781 -10.289062 C 30.050781 -10.589062 30.619766 -10.740234 31.259766 -10.740234 z M 65.730469 -10.740234 C 66.370468 -10.740234 66.930157 -10.589062 67.410156 -10.289062 C 67.910156 -10.009063 68.290782 -9.6098432 68.550781 -9.0898438 C 68.830781 -8.5698443 68.970703 -7.9690618 68.970703 -7.2890625 C 68.970703 -6.2890635 68.670312 -5.4607806 68.070312 -4.8007812 C 67.470313 -4.1607819 66.679218 -3.8398438 65.699219 -3.8398438 C 65.079219 -3.8398437 64.519531 -3.9890628 64.019531 -4.2890625 C 63.519532 -4.5890622 63.129609 -4.9995318 62.849609 -5.5195312 C 62.56961 -6.0395307 62.429687 -6.6290632 62.429688 -7.2890625 C 62.429688 -7.9690618 62.56961 -8.5698443 62.849609 -9.0898438 C 63.149609 -9.6098432 63.539532 -10.009063 64.019531 -10.289062 C 64.519531 -10.589062 65.090469 -10.740234 65.730469 -10.740234 z M 107.25 -5.2207031 C 106.47 -5.2207031 105.82078 -4.9501557 105.30078 -4.4101562 C 104.78078 -3.8901568 104.51953 -3.2296867 104.51953 -2.4296875 C 104.51953 -1.6696883 104.78078 -1.0204682 105.30078 -0.48046875 C 105.82078 0.05953071 106.47 0.33007812 107.25 0.33007812 C 108.05 0.33007812 108.69922 0.05953071 109.19922 -0.48046875 C 109.71922 -1.0204682 109.98047 -1.6696883 109.98047 -2.4296875 C 109.98047 -3.2296867 109.71922 -3.8901568 109.19922 -4.4101562 C 108.69922 -4.9501557 108.05 -5.2207031 107.25 -5.2207031 z " />
    </g>
  </g>
</svg>
