<?xml version="1.0" encoding="UTF-8" standalone="no"?>
<svg
   width="98"
   height="43"
   viewBox="0 0 98 43"
   version="1.1"
   id="svg17"
   sodipodi:docname="ib-navbutton-popular.svg"
   inkscape:version="1.2.2 (732a01da63, 2022-12-09)"
   xmlns:inkscape="http://www.inkscape.org/namespaces/inkscape"
   xmlns:sodipodi="http://sodipodi.sourceforge.net/DTD/sodipodi-0.dtd"
   xmlns="http://www.w3.org/2000/svg"
   xmlns:svg="http://www.w3.org/2000/svg">
  <defs
     id="defs21" />
  <sodipodi:namedview
     id="namedview19"
     pagecolor="#505050"
     bordercolor="#eeeeee"
     borderopacity="1"
     inkscape:showpageshadow="0"
     inkscape:pageopacity="0"
     inkscape:pagecheckerboard="0"
     inkscape:deskcolor="#505050"
     showgrid="false"
     inkscape:zoom="7.6173469"
     inkscape:cx="40.171467"
     inkscape:cy="9.1895512"
     inkscape:window-width="1920"
     inkscape:window-height="1027"
     inkscape:window-x="-8"
     inkscape:window-y="-8"
     inkscape:window-maximized="1"
     inkscape:current-layer="svg17" />
  <style
     id="style9">
    /*@import url(&quot;https://fonts.googleapis.com/css2?family=Outfit:wght@600;700&quot;);*/
    text { font: 700 30px Outfit, Outfit Thin; fill: #00f; }
  </style>
  <rect
     id="rect11" />
  <!--<image href="https://inkbunny.net/images80/latest.png" style="filter: brightness(0.5)" />-->
  <g
     id="g15">
    <g
       aria-label="Popular"
       id="text13"
       style="font-weight:700;font-size:30px;font-family:'Outfit Thin';-inkscape-font-specification:'Outfit Thin, @wght=700';font-variation-settings:'wght' 700;fill:#0000ff">
      <path
         id="path333"
         d="M 71.160156 -21.779297 L 71.160156 0 L 75.75 0 L 75.75 -21.779297 L 71.160156 -21.779297 z M 2.0390625 -21.179688 L 2.0390625 0 L 6.75 0 L 6.75 -7.7109375 L 10.890625 -7.7109375 C 12.230624 -7.7109375 13.439532 -7.9795318 14.519531 -8.5195312 C 15.59953 -9.0795307 16.450313 -9.859376 17.070312 -10.859375 C 17.710312 -11.879374 18.029297 -13.080939 18.029297 -14.460938 C 18.029297 -15.840936 17.710312 -17.029298 17.070312 -18.029297 C 16.450313 -19.049296 15.59953 -19.829141 14.519531 -20.369141 C 13.439532 -20.90914 12.230624 -21.179688 10.890625 -21.179688 L 6.75 -21.179688 L 2.0390625 -21.179688 z M 6.75 -17.519531 L 10.199219 -17.519531 C 10.779218 -17.519531 11.309063 -17.400156 11.789062 -17.160156 C 12.269062 -16.920156 12.649688 -16.569375 12.929688 -16.109375 C 13.209687 -15.649375 13.349609 -15.100937 13.349609 -14.460938 C 13.349609 -13.800938 13.209687 -13.239296 12.929688 -12.779297 C 12.649688 -12.319297 12.269062 -11.970469 11.789062 -11.730469 C 11.309063 -11.490469 10.779218 -11.369141 10.199219 -11.369141 L 6.75 -11.369141 L 6.75 -17.519531 z M 26.880859 -14.910156 C 25.360861 -14.910156 24.00078 -14.570624 22.800781 -13.890625 C 21.600782 -13.230626 20.649218 -12.329452 19.949219 -11.189453 C 19.249219 -10.049454 18.900391 -8.7603111 18.900391 -7.3203125 C 18.900391 -5.8803139 19.249219 -4.5799207 19.949219 -3.4199219 C 20.649218 -2.259923 21.600782 -1.3401556 22.800781 -0.66015625 C 24.02078 -0.00015691 25.380861 0.33007812 26.880859 0.33007812 C 28.400858 0.33007813 29.760939 -0.00015691 30.960938 -0.66015625 C 32.160936 -1.3401556 33.110548 -2.259923 33.810547 -3.4199219 C 34.510546 -4.5799207 34.859375 -5.8803139 34.859375 -7.3203125 C 34.859375 -8.7603111 34.510546 -10.049454 33.810547 -11.189453 C 33.110548 -12.349452 32.160936 -13.259923 30.960938 -13.919922 C 29.760939 -14.579921 28.400858 -14.910156 26.880859 -14.910156 z M 45.541016 -14.880859 C 44.561017 -14.880859 43.659843 -14.679296 42.839844 -14.279297 C 42.432916 -14.080796 42.063516 -13.8466 41.730469 -13.574219 L 41.730469 -14.580078 L 37.140625 -14.580078 L 37.140625 6.1503906 L 41.669922 6.1503906 L 41.669922 -0.98828125 C 42.018682 -0.71033957 42.407804 -0.4697448 42.839844 -0.26953125 C 43.659843 0.11046837 44.561017 0.30078125 45.541016 0.30078125 C 46.921014 0.30078125 48.13922 -0.029453785 49.199219 -0.68945312 C 50.279218 -1.3494525 51.120704 -2.2506261 51.720703 -3.390625 C 52.340703 -4.5306239 52.650391 -5.829064 52.650391 -7.2890625 C 52.650391 -8.749061 52.340703 -10.049454 51.720703 -11.189453 C 51.120704 -12.329452 50.279218 -13.230626 49.199219 -13.890625 C 48.13922 -14.550624 46.921014 -14.880859 45.541016 -14.880859 z M 85.080078 -14.880859 C 83.740079 -14.880859 82.540468 -14.550624 81.480469 -13.890625 C 80.44047 -13.230626 79.610234 -12.329452 78.990234 -11.189453 C 78.390235 -10.049454 78.089844 -8.749061 78.089844 -7.2890625 C 78.089844 -5.829064 78.390235 -4.5306239 78.990234 -3.390625 C 79.610234 -2.2506261 80.44047 -1.3494525 81.480469 -0.68945312 C 82.540468 -0.029453785 83.740079 0.30078125 85.080078 0.30078125 C 86.060077 0.30078125 86.950001 0.11046837 87.75 -0.26953125 C 88.267194 -0.51519826 88.71616 -0.82090005 89.099609 -1.1835938 L 89.099609 0 L 93.599609 0 L 93.599609 -14.580078 L 89.099609 -14.580078 L 89.099609 -13.367188 C 88.703977 -13.745441 88.245372 -14.061329 87.720703 -14.310547 C 86.940704 -14.690546 86.060077 -14.880859 85.080078 -14.880859 z M 105.17969 -14.880859 C 103.57969 -14.880859 102.32969 -14.410702 101.42969 -13.470703 L 101.42969 -14.580078 L 96.839844 -14.580078 L 96.839844 0 L 101.42969 0 L 101.42969 -8.0097656 C 101.42969 -8.9497647 101.64984 -9.6493755 102.08984 -10.109375 C 102.54984 -10.589375 103.15992 -10.830078 103.91992 -10.830078 C 104.29992 -10.830078 104.63945 -10.770391 104.93945 -10.650391 C 105.23945 -10.530391 105.48945 -10.360625 105.68945 -10.140625 L 108.41992 -13.589844 C 108.01992 -14.029843 107.54977 -14.350781 107.00977 -14.550781 C 106.48977 -14.770781 105.87969 -14.880859 105.17969 -14.880859 z M 54.630859 -14.580078 L 54.630859 -6.1191406 C 54.630859 -4.8591419 54.920001 -3.7397646 55.5 -2.7597656 C 56.079999 -1.7997666 56.880392 -1.0404682 57.900391 -0.48046875 C 58.94039 0.05953071 60.130704 0.33007812 61.470703 0.33007812 C 62.810702 0.33007812 63.989767 0.05953071 65.009766 -0.48046875 C 66.029765 -1.0404682 66.830157 -1.7997666 67.410156 -2.7597656 C 67.990156 -3.7397646 68.279297 -4.8703919 68.279297 -6.1503906 L 68.279297 -14.580078 L 63.689453 -14.580078 L 63.689453 -6.1796875 C 63.689453 -5.4196883 63.489843 -4.8208589 63.089844 -4.3808594 C 62.689844 -3.9608598 62.150702 -3.75 61.470703 -3.75 C 60.990704 -3.75 60.580234 -3.8507815 60.240234 -4.0507812 C 59.900235 -4.250781 59.640937 -4.5306254 59.460938 -4.890625 C 59.300938 -5.2506246 59.220703 -5.679688 59.220703 -6.1796875 L 59.220703 -14.580078 L 54.630859 -14.580078 z M 26.880859 -10.740234 C 27.540859 -10.740234 28.109844 -10.589062 28.589844 -10.289062 C 29.089843 -10.009063 29.479766 -9.6098432 29.759766 -9.0898438 C 30.039765 -8.5898443 30.179688 -8.0003118 30.179688 -7.3203125 C 30.179688 -6.6403132 30.039765 -6.0302338 29.759766 -5.4902344 C 29.499766 -4.9702349 29.11914 -4.5597653 28.619141 -4.2597656 C 28.119141 -3.9797659 27.540859 -3.8398438 26.880859 -3.8398438 C 26.24086 -3.8398437 25.669921 -3.9797659 25.169922 -4.2597656 C 24.669922 -4.5597653 24.28 -4.9702349 24 -5.4902344 C 23.72 -6.0302338 23.580078 -6.6290632 23.580078 -7.2890625 C 23.580078 -7.9690618 23.72 -8.5698443 24 -9.0898438 C 24.28 -9.6098432 24.669922 -10.009063 25.169922 -10.289062 C 25.669921 -10.589062 26.24086 -10.740234 26.880859 -10.740234 z M 44.730469 -10.740234 C 45.370468 -10.740234 45.930157 -10.589062 46.410156 -10.289062 C 46.910156 -10.009063 47.300078 -9.6098432 47.580078 -9.0898438 C 47.860078 -8.5698443 48 -7.9690618 48 -7.2890625 C 48 -6.6290632 47.860078 -6.0395307 47.580078 -5.5195312 C 47.300078 -4.9995318 46.910156 -4.5890622 46.410156 -4.2890625 C 45.930157 -3.9890628 45.359218 -3.8398437 44.699219 -3.8398438 C 44.079219 -3.8398437 43.519531 -3.9890628 43.019531 -4.2890625 C 42.519532 -4.5890622 42.129609 -4.9995318 41.849609 -5.5195312 C 41.58961 -6.0395307 41.460938 -6.6290632 41.460938 -7.2890625 C 41.460938 -7.9690618 41.60086 -8.5698443 41.880859 -9.0898438 C 42.160859 -9.6098432 42.539532 -10.009063 43.019531 -10.289062 C 43.519531 -10.589062 44.090469 -10.740234 44.730469 -10.740234 z M 86.039062 -10.740234 C 86.679062 -10.740234 87.240704 -10.589062 87.720703 -10.289062 C 88.220703 -10.009063 88.599375 -9.6098432 88.859375 -9.0898438 C 89.139375 -8.5698443 89.279297 -7.9690618 89.279297 -7.2890625 C 89.279297 -6.2890635 88.980859 -5.4607806 88.380859 -4.8007812 C 87.78086 -4.1607819 86.989765 -3.8398438 86.009766 -3.8398438 C 85.389766 -3.8398437 84.830078 -3.9890628 84.330078 -4.2890625 C 83.830079 -4.5890622 83.440156 -4.9995318 83.160156 -5.5195312 C 82.880157 -6.0395307 82.740234 -6.6290632 82.740234 -7.2890625 C 82.740234 -7.9690618 82.880157 -8.5698443 83.160156 -9.0898438 C 83.460156 -9.6098432 83.850079 -10.009063 84.330078 -10.289062 C 84.830078 -10.589062 85.399063 -10.740234 86.039062 -10.740234 z " />
    </g>
  </g>
</svg>
