<?xml version="1.0" encoding="UTF-8" standalone="no"?>
<svg
   width="98"
   height="43"
   viewBox="0 0 98 43"
   version="1.1"
   id="svg17"
   sodipodi:docname="ib-navbutton-gear.svg"
   inkscape:version="1.2.2 (732a01da63, 2022-12-09)"
   xmlns:inkscape="http://www.inkscape.org/namespaces/inkscape"
   xmlns:sodipodi="http://sodipodi.sourceforge.net/DTD/sodipodi-0.dtd"
   xmlns="http://www.w3.org/2000/svg"
   xmlns:svg="http://www.w3.org/2000/svg">
  <defs
     id="defs21" />
  <sodipodi:namedview
     id="namedview19"
     pagecolor="#505050"
     bordercolor="#eeeeee"
     borderopacity="1"
     inkscape:showpageshadow="0"
     inkscape:pageopacity="0"
     inkscape:pagecheckerboard="0"
     inkscape:deskcolor="#505050"
     showgrid="false"
     inkscape:zoom="7.6173469"
     inkscape:cx="40.171467"
     inkscape:cy="9.1895512"
     inkscape:window-width="1920"
     inkscape:window-height="1027"
     inkscape:window-x="-8"
     inkscape:window-y="-8"
     inkscape:window-maximized="1"
     inkscape:current-layer="svg17" />
  <style
     id="style9">
    /*@import url(&quot;https://fonts.googleapis.com/css2?family=Outfit:wght@600;700&quot;);*/
    text { font: 700 30px Outfit, Outfit Thin; fill: #00f; }
  </style>
  <rect
     id="rect11" />
  <!--<image href="https://inkbunny.net/images80/latest.png" style="filter: brightness(0.5)" />-->
  <g
     id="g15">
    <g
       aria-label="IB Gear"
       id="text13"
       style="font-weight:700;font-size:30px;font-family:'Outfit Thin';-inkscape-font-specification:'Outfit Thin, Normal';fill:#0000ff">
      <path
         id="path229"
         d="M 46.019531 -21.509766 C 44.439533 -21.509766 42.960077 -21.229921 41.580078 -20.669922 C 40.20008 -20.129922 38.989218 -19.359374 37.949219 -18.359375 C 36.92922 -17.379376 36.130781 -16.230155 35.550781 -14.910156 C 34.970782 -13.590158 34.679688 -12.159139 34.679688 -10.619141 C 34.679688 -9.0791422 34.959532 -7.6407799 35.519531 -6.3007812 C 36.099531 -4.9807826 36.890626 -3.8203115 37.890625 -2.8203125 C 38.890624 -1.8403135 40.060392 -1.0697651 41.400391 -0.50976562 C 42.760389 0.050233815 44.210002 0.33007812 45.75 0.33007812 C 47.849998 0.33007812 49.700783 -0.11023525 51.300781 -0.99023438 C 52.92078 -1.8702335 54.180079 -3.1706267 55.080078 -4.890625 C 56.000077 -6.6306233 56.460937 -8.7705494 56.460938 -11.310547 L 56.460938 -12 L 45.330078 -12 L 45.330078 -8.0097656 L 51.412109 -7.9121094 C 51.295539 -7.4725966 51.138877 -7.0633731 50.939453 -6.6894531 C 50.479454 -5.809454 49.809687 -5.1303901 48.929688 -4.6503906 C 48.069688 -4.1903911 47.019296 -3.9609375 45.779297 -3.9609375 C 44.559298 -3.9609375 43.479062 -4.2407818 42.539062 -4.8007812 C 41.599063 -5.3607807 40.860312 -6.140626 40.320312 -7.140625 C 39.780313 -8.140624 39.509766 -9.2991419 39.509766 -10.619141 C 39.509766 -11.939139 39.780313 -13.090313 40.320312 -14.070312 C 40.880312 -15.070312 41.65086 -15.84086 42.630859 -16.380859 C 43.610858 -16.940859 44.720939 -17.220703 45.960938 -17.220703 C 47.120936 -17.220703 48.160079 -17.000546 49.080078 -16.560547 C 50.000077 -16.120547 50.800469 -15.460077 51.480469 -14.580078 L 54.689453 -17.789062 C 53.709454 -18.949061 52.470702 -19.859532 50.970703 -20.519531 C 49.490705 -21.179531 47.839529 -21.509766 46.019531 -21.509766 z M 2.0390625 -21.179688 L 2.0390625 0 L 6.75 0 L 6.75 -21.179688 L 2.0390625 -21.179688 z M 10.830078 -21.179688 L 10.830078 0 L 15.480469 0 L 19.859375 0 C 21.359373 0 22.63922 -0.27054742 23.699219 -0.81054688 C 24.779218 -1.3505463 25.600157 -2.0800009 26.160156 -3 C 26.740156 -3.9399991 27.029297 -4.9903918 27.029297 -6.1503906 C 27.029297 -7.6703891 26.540546 -8.9502354 25.560547 -9.9902344 C 25.062463 -10.529825 24.451244 -10.973063 23.732422 -11.324219 C 24.244459 -11.608471 24.687979 -11.941362 25.050781 -12.330078 C 25.89078 -13.230077 26.310547 -14.330861 26.310547 -15.630859 C 26.310547 -16.650858 26.060546 -17.579923 25.560547 -18.419922 C 25.060547 -19.259921 24.32914 -19.929688 23.369141 -20.429688 C 22.429142 -20.929687 21.279921 -21.179688 19.919922 -21.179688 L 15.480469 -21.179688 L 10.830078 -21.179688 z M 15.480469 -17.519531 L 19.019531 -17.519531 C 19.79953 -17.519531 20.430157 -17.319921 20.910156 -16.919922 C 21.390156 -16.539922 21.630859 -15.959687 21.630859 -15.179688 C 21.630859 -14.379688 21.390156 -13.780859 20.910156 -13.380859 C 20.430157 -13.00086 19.79953 -12.810547 19.019531 -12.810547 L 15.480469 -12.810547 L 15.480469 -17.519531 z M 65.759766 -14.910156 C 64.279767 -14.910156 62.94953 -14.579921 61.769531 -13.919922 C 60.589532 -13.259923 59.649218 -12.349452 58.949219 -11.189453 C 58.269219 -10.049454 57.929688 -8.749061 57.929688 -7.2890625 C 57.929688 -5.829064 58.280469 -4.5193738 58.980469 -3.359375 C 59.680468 -2.1993762 60.639376 -1.2908587 61.859375 -0.63085938 C 63.099374 0.009139985 64.509845 0.33007812 66.089844 0.33007812 C 67.309843 0.33007813 68.42922 0.11921833 69.449219 -0.30078125 C 70.469218 -0.72078083 71.340548 -1.349454 72.060547 -2.1894531 L 69.539062 -4.7109375 C 69.099063 -4.210938 68.589765 -3.8303122 68.009766 -3.5703125 C 67.429766 -3.3303127 66.780546 -3.2109375 66.060547 -3.2109375 C 65.280548 -3.2109375 64.599531 -3.3694534 64.019531 -3.6894531 C 63.459532 -4.0294528 63.019218 -4.49961 62.699219 -5.0996094 C 62.59859 -5.3075763 62.518047 -5.5306548 62.451172 -5.765625 L 72.900391 -5.7890625 C 72.980391 -6.1690621 73.030781 -6.4992972 73.050781 -6.7792969 C 73.090781 -7.0792966 73.109375 -7.3591409 73.109375 -7.6191406 C 73.109375 -9.0391392 72.79039 -10.300392 72.150391 -11.400391 C 71.530391 -12.50039 70.670311 -13.360469 69.570312 -13.980469 C 68.470314 -14.600468 67.199764 -14.910156 65.759766 -14.910156 z M 81.419922 -14.880859 C 80.079923 -14.880859 78.880311 -14.550624 77.820312 -13.890625 C 76.780314 -13.230626 75.950078 -12.329452 75.330078 -11.189453 C 74.730079 -10.049454 74.429688 -8.749061 74.429688 -7.2890625 C 74.429688 -5.829064 74.730079 -4.5306239 75.330078 -3.390625 C 75.950078 -2.2506261 76.780314 -1.3494525 77.820312 -0.68945312 C 78.880311 -0.029453785 80.079923 0.30078125 81.419922 0.30078125 C 82.399921 0.30078125 83.289845 0.11046837 84.089844 -0.26953125 C 84.607037 -0.51519826 85.056004 -0.82090005 85.439453 -1.1835938 L 85.439453 0 L 89.939453 0 L 89.939453 -14.580078 L 85.439453 -14.580078 L 85.439453 -13.367188 C 85.043821 -13.745441 84.585215 -14.061329 84.060547 -14.310547 C 83.280548 -14.690546 82.399921 -14.880859 81.419922 -14.880859 z M 101.51953 -14.880859 C 99.919532 -14.880859 98.66953 -14.410702 97.769531 -13.470703 L 97.769531 -14.580078 L 93.179688 -14.580078 L 93.179688 0 L 97.769531 0 L 97.769531 -8.0097656 C 97.769531 -8.9497647 97.989688 -9.6493755 98.429688 -10.109375 C 98.889687 -10.589375 99.499765 -10.830078 100.25977 -10.830078 C 100.63977 -10.830078 100.9793 -10.770391 101.2793 -10.650391 C 101.5793 -10.530391 101.8293 -10.360625 102.0293 -10.140625 L 104.75977 -13.589844 C 104.35977 -14.029843 103.88961 -14.350781 103.34961 -14.550781 C 102.82961 -14.770781 102.21953 -14.880859 101.51953 -14.880859 z M 65.789062 -11.400391 C 66.469062 -11.400391 67.04 -11.249218 67.5 -10.949219 C 67.98 -10.669219 68.340078 -10.249453 68.580078 -9.6894531 C 68.680332 -9.4638813 68.7604 -9.211514 68.822266 -8.9335938 L 62.453125 -8.9160156 C 62.512819 -9.1255933 62.58364 -9.3248764 62.669922 -9.5097656 C 62.969922 -10.109765 63.380391 -10.570625 63.900391 -10.890625 C 64.44039 -11.230625 65.069063 -11.400391 65.789062 -11.400391 z M 82.380859 -10.740234 C 83.020859 -10.740234 83.580547 -10.589062 84.060547 -10.289062 C 84.560546 -10.009063 84.939219 -9.6098432 85.199219 -9.0898438 C 85.479218 -8.5698443 85.619141 -7.9690618 85.619141 -7.2890625 C 85.619141 -6.2890635 85.320703 -5.4607806 84.720703 -4.8007812 C 84.120704 -4.1607819 83.329608 -3.8398438 82.349609 -3.8398438 C 81.72961 -3.8398437 81.169921 -3.9890628 80.669922 -4.2890625 C 80.169922 -4.5890622 79.78 -4.9995318 79.5 -5.5195312 C 79.22 -6.0395307 79.080078 -6.6290632 79.080078 -7.2890625 C 79.080078 -7.9690618 79.22 -8.5698443 79.5 -9.0898438 C 79.8 -9.6098432 80.189922 -10.009063 80.669922 -10.289062 C 81.169921 -10.589062 81.74086 -10.740234 82.380859 -10.740234 z M 15.480469 -9.2402344 L 19.410156 -9.2402344 C 20.030156 -9.2402344 20.550704 -9.1208591 20.970703 -8.8808594 C 21.410703 -8.6408596 21.750235 -8.3106246 21.990234 -7.890625 C 22.230234 -7.4706254 22.349609 -6.9892182 22.349609 -6.4492188 C 22.349609 -5.6692195 22.090312 -5.0107026 21.570312 -4.4707031 C 21.050313 -3.9307037 20.330155 -3.6601562 19.410156 -3.6601562 L 15.480469 -3.6601562 L 15.480469 -9.2402344 z " />
    </g>
  </g>
</svg>
