<?xml version="1.0" encoding="UTF-8" standalone="no"?>
<svg
   width="98"
   height="43"
   viewBox="0 0 98 43"
   version="1.1"
   id="svg17"
   sodipodi:docname="ib-navbutton-in.svg"
   inkscape:version="1.2.2 (732a01da63, 2022-12-09)"
   xmlns:inkscape="http://www.inkscape.org/namespaces/inkscape"
   xmlns:sodipodi="http://sodipodi.sourceforge.net/DTD/sodipodi-0.dtd"
   xmlns="http://www.w3.org/2000/svg"
   xmlns:svg="http://www.w3.org/2000/svg">
  <defs
     id="defs21" />
  <sodipodi:namedview
     id="namedview19"
     pagecolor="#505050"
     bordercolor="#eeeeee"
     borderopacity="1"
     inkscape:showpageshadow="0"
     inkscape:pageopacity="0"
     inkscape:pagecheckerboard="0"
     inkscape:deskcolor="#505050"
     showgrid="false"
     inkscape:zoom="7.62"
     inkscape:cx="40.5"
     inkscape:cy="27.8"
     inkscape:window-width="1920"
     inkscape:window-height="1027"
     inkscape:window-x="-8"
     inkscape:window-y="-8"
     inkscape:window-maximized="1"
     inkscape:current-layer="svg17" />
  <style
     id="style9">
    /*@import url(&quot;https://fonts.googleapis.com/css2?family=Outfit:wght@600;700&quot;);*/
    text { font: 700 30px Outfit, Outfit Thin; fill: #00f; }
  </style>
  <rect
     id="rect11" />
  <!--<image href="https://inkbunny.net/images80/latest.png" style="filter: brightness(0.5)" />-->
  <g
     id="g15">
    <g
       aria-label="Latest"
       id="text13"
       style="font-weight:700;font-size:30px;font-family:Outfit, 'Outfit Thin';fill:#0000ff">
      <path
         id="path127"
         d="M 2.04 -21.2 L 2.04 0 L 6.75 0 L 16.1 0 L 16.1 -4.14 L 6.75 -4.14 L 6.75 -21.2 L 2.04 -21.2 z M 38.1 -20.6 L 38.1 -14.6 L 34.8 -14.6 L 34.8 -10.7 L 38.1 -10.7 L 38.1 0 L 42.7 0 L 42.7 -10.7 L 46 -10.7 L 46 -14.6 L 42.7 -14.6 L 42.7 -20.6 L 38.1 -20.6 z M 80 -20.6 L 80 -14.6 L 76.7 -14.6 L 76.7 -10.7 L 80 -10.7 L 80 0 L 84.6 0 L 84.6 -10.7 L 87.9 -10.7 L 87.9 -14.6 L 84.6 -14.6 L 84.6 -20.6 L 80 -20.6 z M 69.7 -15 C 68.6 -15 67.5 -14.8 66.6 -14.4 C 65.7 -14 65.1 -13.5 64.6 -12.8 C 64.1 -12.1 63.9 -11.2 63.9 -10.3 C 63.9 -9.43 64.1 -8.71 64.4 -8.13 C 64.7 -7.57 65.2 -7.13 65.7 -6.81 C 66.2 -6.49 66.8 -6.24 67.4 -6.06 L 69.1 -5.55 C 69.6 -5.41 70.1 -5.24 70.4 -5.04 C 70.8 -4.86 71 -4.59 71 -4.23 C 71 -3.95 70.8 -3.73 70.5 -3.57 C 70.2 -3.41 69.8 -3.33 69.3 -3.33 C 68.5 -3.33 67.8 -3.47 67.1 -3.75 C 66.5 -4.05 65.9 -4.46 65.4 -4.98 L 62.8 -2.34 C 63.3 -1.8 63.9 -1.32 64.6 -0.9 C 65.3 -0.5 66.1 -0.191 66.9 0.0293 C 67.8 0.249 68.6 0.359 69.5 0.359 C 71.3 0.359 72.7 -0.0604 73.8 -0.9 C 74.9 -1.74 75.4 -2.87 75.4 -4.29 C 75.4 -5.21 75.2 -5.95 74.9 -6.51 C 74.6 -7.09 74.1 -7.55 73.6 -7.89 C 73.1 -8.23 72.5 -8.5 71.9 -8.7 C 71.3 -8.9 70.7 -9.07 70.2 -9.21 C 69.7 -9.35 69.2 -9.51 68.9 -9.69 C 68.5 -9.87 68.3 -10.1 68.3 -10.4 C 68.3 -10.7 68.4 -10.9 68.7 -11 C 69 -11.2 69.4 -11.3 69.9 -11.3 C 70.4 -11.3 71 -11.2 71.6 -11 C 72.1 -10.7 72.6 -10.3 73.1 -9.81 L 75.7 -12.5 C 75 -13.3 74.2 -13.9 73.1 -14.3 C 72.1 -14.8 71 -15 69.7 -15 z M 24.3 -14.9 C 23 -14.9 21.8 -14.6 20.7 -13.9 C 19.6 -13.2 18.8 -12.3 18.2 -11.2 C 17.6 -10.1 17.3 -8.75 17.3 -7.29 C 17.3 -5.83 17.6 -4.53 18.2 -3.39 C 18.8 -2.25 19.6 -1.35 20.7 -0.689 C 21.8 -0.0295 23 0.301 24.3 0.301 C 25.3 0.301 26.2 0.11 27 -0.27 C 27.5 -0.506 27.9 -0.797 28.3 -1.14 L 28.3 0 L 32.8 0 L 32.8 -14.6 L 28.3 -14.6 L 28.3 -13.3 C 27.9 -13.7 27.4 -14 26.9 -14.3 C 26.2 -14.7 25.3 -14.9 24.3 -14.9 z M 54.6 -14.9 C 53.1 -14.9 51.8 -14.6 50.6 -13.9 C 49.4 -13.2 48.5 -12.3 47.8 -11.2 C 47.1 -10.1 46.8 -8.75 46.8 -7.29 C 46.8 -5.83 47.1 -4.52 47.8 -3.36 C 48.5 -2.2 49.5 -1.29 50.7 -0.631 C 52 0.00914 53.4 0.33 54.9 0.33 C 56.2 0.33 57.3 0.119 58.3 -0.301 C 59.3 -0.721 60.2 -1.35 60.9 -2.19 L 58.4 -4.71 C 57.9 -4.21 57.4 -3.83 56.9 -3.57 C 56.3 -3.33 55.6 -3.21 54.9 -3.21 C 54.1 -3.21 53.4 -3.37 52.9 -3.69 C 52.3 -4.03 51.8 -4.5 51.5 -5.1 C 51.4 -5.31 51.3 -5.55 51.3 -5.79 L 61.7 -5.79 C 61.8 -6.17 61.9 -6.5 61.9 -6.78 C 62 -7.08 62 -7.36 62 -7.62 C 62 -9.04 61.7 -10.3 61 -11.4 C 60.4 -12.5 59.5 -13.4 58.4 -14 C 57.3 -14.6 56.1 -14.9 54.6 -14.9 z M 54.6 -11.4 C 55.3 -11.4 55.9 -11.3 56.3 -11 C 56.8 -10.7 57.2 -10.2 57.4 -9.69 C 57.5 -9.47 57.6 -9.22 57.7 -8.94 L 51.3 -8.94 C 51.4 -9.14 51.4 -9.33 51.5 -9.51 C 51.8 -10.1 52.2 -10.6 52.7 -10.9 C 53.3 -11.2 53.9 -11.4 54.6 -11.4 z M 25.3 -10.7 C 25.9 -10.7 26.4 -10.6 26.9 -10.3 C 27.4 -10 27.8 -9.61 28.1 -9.09 C 28.4 -8.57 28.5 -7.97 28.5 -7.29 C 28.5 -6.29 28.2 -5.46 27.6 -4.8 C 27 -4.16 26.2 -3.84 25.2 -3.84 C 24.6 -3.84 24.1 -3.99 23.6 -4.29 C 23.1 -4.59 22.7 -5 22.4 -5.52 C 22.1 -6.04 22 -6.63 22 -7.29 C 22 -7.97 22.1 -8.57 22.4 -9.09 C 22.7 -9.61 23.1 -10 23.6 -10.3 C 24.1 -10.6 24.6 -10.7 25.3 -10.7 z " />
    </g>
  </g>
</svg>
