<?xml version="1.0" encoding="UTF-8" standalone="no"?>
<svg
   width="98"
   height="43"
   viewBox="0 0 98 43"
   version="1.1"
   id="svg17"
   sodipodi:docname="ib-navbutton-in.svg"
   inkscape:version="1.2.2 (732a01da63, 2022-12-09)"
   xmlns:inkscape="http://www.inkscape.org/namespaces/inkscape"
   xmlns:sodipodi="http://sodipodi.sourceforge.net/DTD/sodipodi-0.dtd"
   xmlns="http://www.w3.org/2000/svg"
   xmlns:svg="http://www.w3.org/2000/svg">
  <defs
     id="defs21" />
  <sodipodi:namedview
     id="namedview19"
     pagecolor="#505050"
     bordercolor="#eeeeee"
     borderopacity="1"
     inkscape:showpageshadow="0"
     inkscape:pageopacity="0"
     inkscape:pagecheckerboard="0"
     inkscape:deskcolor="#505050"
     showgrid="false"
     inkscape:zoom="7.62"
     inkscape:cx="40.288714"
     inkscape:cy="9.1863517"
     inkscape:window-width="1920"
     inkscape:window-height="1027"
     inkscape:window-x="-8"
     inkscape:window-y="-8"
     inkscape:window-maximized="1"
     inkscape:current-layer="svg17" />
  <style
     id="style9">
    /*@import url(&quot;https://fonts.googleapis.com/css2?family=Outfit:wght@600;700&quot;);*/
    text { font: 700 30px Outfit, Outfit Thin; fill: #00f; }
  </style>
  <rect
     id="rect11" />
  <!--<image href="https://inkbunny.net/images80/latest.png" style="filter: brightness(0.5)" />-->
  <g
     id="g15">
    <g
       aria-label="Submission"
       id="text13"
       style="font-weight:700;font-size:30px;font-family:'Outfit Thin';-inkscape-font-specification:'Outfit Thin, @wght=700';font-variation-settings:'wght' 700;fill:#0000ff">
      <path
         id="path321"
         d="M 35.279297 -21.779297 L 35.279297 0 L 39.810547 0 L 39.810547 -1.0742188 C 40.159482 -0.78051272 40.548144 -0.5222159 40.980469 -0.30078125 C 41.800468 0.09921835 42.699688 0.30078125 43.679688 0.30078125 C 45.059686 0.30078125 46.279845 -0.029453785 47.339844 -0.68945312 C 48.419843 -1.3494525 49.259376 -2.2506261 49.859375 -3.390625 C 50.479374 -4.5306239 50.789063 -5.829064 50.789062 -7.2890625 C 50.789062 -8.749061 50.479374 -10.049454 49.859375 -11.189453 C 49.259376 -12.329452 48.419843 -13.230626 47.339844 -13.890625 C 46.279845 -14.550624 45.059686 -14.880859 43.679688 -14.880859 C 42.699688 -14.880859 41.800468 -14.690546 40.980469 -14.310547 C 40.572714 -14.121587 40.202714 -13.894 39.869141 -13.630859 L 39.869141 -21.779297 L 35.279297 -21.779297 z M 81.630859 -21.630859 C 80.91086 -21.630859 80.310078 -21.390156 79.830078 -20.910156 C 79.370079 -20.430157 79.140625 -19.829374 79.140625 -19.109375 C 79.140625 -18.409376 79.370079 -17.810546 79.830078 -17.310547 C 80.310078 -16.830547 80.91086 -16.589844 81.630859 -16.589844 C 82.350859 -16.589844 82.940391 -16.830547 83.400391 -17.310547 C 83.86039 -17.810546 84.089844 -18.409376 84.089844 -19.109375 C 84.089844 -19.829374 83.86039 -20.430157 83.400391 -20.910156 C 82.940391 -21.390156 82.350859 -21.630859 81.630859 -21.630859 z M 116.93945 -21.630859 C 116.21945 -21.630859 115.62062 -21.390156 115.14062 -20.910156 C 114.68063 -20.430157 114.44922 -19.829374 114.44922 -19.109375 C 114.44922 -18.409376 114.68063 -17.810546 115.14062 -17.310547 C 115.62062 -16.830547 116.21945 -16.589844 116.93945 -16.589844 C 117.65945 -16.589844 118.24898 -16.830547 118.70898 -17.310547 C 119.16898 -17.810546 119.40039 -18.409376 119.40039 -19.109375 C 119.40039 -19.829374 119.16898 -20.430157 118.70898 -20.910156 C 118.24898 -21.390156 117.65945 -21.630859 116.93945 -21.630859 z M 9.359375 -21.509766 C 7.8993765 -21.509766 6.6102333 -21.259765 5.4902344 -20.759766 C 4.3702355 -20.279766 3.4896087 -19.570858 2.8496094 -18.630859 C 2.22961 -17.69086 1.9199219 -16.56953 1.9199219 -15.269531 C 1.9199219 -14.189532 2.1009379 -13.290312 2.4609375 -12.570312 C 2.8209371 -11.870313 3.2891412 -11.280781 3.8691406 -10.800781 C 4.46914 -10.340782 5.1203132 -9.9508591 5.8203125 -9.6308594 C 6.5203118 -9.3308597 7.2199226 -9.0603123 7.9199219 -8.8203125 C 8.6399212 -8.5803127 9.2891412 -8.3303122 9.8691406 -8.0703125 C 10.46914 -7.8103128 10.950547 -7.5006246 11.310547 -7.140625 C 11.670547 -6.7806254 11.849609 -6.3104682 11.849609 -5.7304688 C 11.849609 -5.0904694 11.569765 -4.5904684 11.009766 -4.2304688 C 10.469766 -3.8704691 9.6992177 -3.6894531 8.6992188 -3.6894531 C 7.5992199 -3.6894531 6.6290617 -3.9003129 5.7890625 -4.3203125 C 4.9690633 -4.7603121 4.2190618 -5.3703914 3.5390625 -6.1503906 L 0.48046875 -3.1191406 C 1.5204677 -1.9591418 2.6603919 -1.089765 3.9003906 -0.50976562 C 5.1603894 0.050233815 6.6603924 0.33007812 8.4003906 0.33007812 C 10.940388 0.33007813 12.929142 -0.24086052 14.369141 -1.3808594 C 15.809139 -2.5408582 16.529297 -4.1303926 16.529297 -6.1503906 C 16.529297 -7.2503895 16.350234 -8.170157 15.990234 -8.9101562 C 15.630235 -9.6701555 15.150781 -10.289532 14.550781 -10.769531 C 13.970782 -11.269531 13.330859 -11.68 12.630859 -12 C 11.93086 -12.32 11.219999 -12.599844 10.5 -12.839844 C 9.8000007 -13.079844 9.1507806 -13.320547 8.5507812 -13.560547 C 7.9707818 -13.800547 7.5006246 -14.080391 7.140625 -14.400391 C 6.7806254 -14.74039 6.5996094 -15.180704 6.5996094 -15.720703 C 6.5996094 -16.300703 6.840313 -16.739063 7.3203125 -17.039062 C 7.800312 -17.359062 8.4495321 -17.519531 9.2695312 -17.519531 C 10.08953 -17.519531 10.820938 -17.359062 11.460938 -17.039062 C 12.120937 -16.719063 12.770157 -16.230312 13.410156 -15.570312 L 16.470703 -18.599609 C 15.670704 -19.499608 14.650155 -20.210469 13.410156 -20.730469 C 12.190157 -21.250468 10.839374 -21.509766 9.359375 -21.509766 z M 92.699219 -15 C 91.51922 -15 90.489374 -14.80039 89.609375 -14.400391 C 88.729376 -14.000391 88.050312 -13.449999 87.570312 -12.75 C 87.090313 -12.070001 86.849609 -11.260312 86.849609 -10.320312 C 86.849609 -9.4403134 87.019375 -8.7108588 87.359375 -8.1308594 C 87.699375 -7.5708599 88.139688 -7.1305466 88.679688 -6.8105469 C 89.219687 -6.4905472 89.790626 -6.2405467 90.390625 -6.0605469 C 90.990624 -5.8805471 91.55961 -5.7107811 92.099609 -5.5507812 C 92.639609 -5.4107814 93.079922 -5.2390623 93.419922 -5.0390625 C 93.779922 -4.8590627 93.958984 -4.5904684 93.958984 -4.2304688 C 93.958984 -3.950469 93.809765 -3.7303123 93.509766 -3.5703125 C 93.229766 -3.4103127 92.819296 -3.3300781 92.279297 -3.3300781 C 91.499298 -3.3300781 90.77914 -3.4700003 90.119141 -3.75 C 89.459141 -4.0499997 88.890156 -4.4604693 88.410156 -4.9804688 L 85.800781 -2.3398438 C 86.300781 -1.7998443 86.89961 -1.3203902 87.599609 -0.90039062 C 88.319609 -0.50039103 89.090157 -0.19070291 89.910156 0.029296875 C 90.750155 0.24929666 91.598985 0.359375 92.458984 0.359375 C 94.278983 0.359375 95.719298 -0.060391465 96.779297 -0.90039062 C 97.859296 -1.7403898 98.400391 -2.8690639 98.400391 -4.2890625 C 98.400391 -5.2090616 98.230625 -5.9497662 97.890625 -6.5097656 C 97.550625 -7.089765 97.110312 -7.5506253 96.570312 -7.890625 C 96.030313 -8.2306247 95.459374 -8.4992189 94.859375 -8.6992188 C 94.259376 -8.8992185 93.69039 -9.0709376 93.150391 -9.2109375 C 92.610391 -9.3509374 92.170078 -9.5094533 91.830078 -9.6894531 C 91.490078 -9.8694529 91.320313 -10.110157 91.320312 -10.410156 C 91.320312 -10.690156 91.448985 -10.899063 91.708984 -11.039062 C 91.968984 -11.199062 92.36086 -11.279297 92.880859 -11.279297 C 93.420859 -11.279297 93.969297 -11.169219 94.529297 -10.949219 C 95.109296 -10.729219 95.629844 -10.350546 96.089844 -9.8105469 L 98.699219 -12.449219 C 98.039219 -13.289218 97.17914 -13.919844 96.119141 -14.339844 C 95.079142 -14.779843 93.939218 -15 92.699219 -15 z M 106.43945 -15 C 105.25945 -15 104.22961 -14.80039 103.34961 -14.400391 C 102.46961 -14.000391 101.79055 -13.449999 101.31055 -12.75 C 100.83055 -12.070001 100.58984 -11.260312 100.58984 -10.320312 C 100.58984 -9.4403134 100.75961 -8.7108588 101.09961 -8.1308594 C 101.43961 -7.5708599 101.87992 -7.1305466 102.41992 -6.8105469 C 102.95992 -6.4905472 103.53086 -6.2405467 104.13086 -6.0605469 C 104.73086 -5.8805471 105.29984 -5.7107811 105.83984 -5.5507812 C 106.37984 -5.4107814 106.82016 -5.2390623 107.16016 -5.0390625 C 107.52016 -4.8590627 107.69922 -4.5904684 107.69922 -4.2304688 C 107.69922 -3.950469 107.55 -3.7303123 107.25 -3.5703125 C 106.97 -3.4103127 106.55953 -3.3300781 106.01953 -3.3300781 C 105.23953 -3.3300781 104.51937 -3.4700003 103.85938 -3.75 C 103.19938 -4.0499997 102.63039 -4.4604693 102.15039 -4.9804688 L 99.539062 -2.3398438 C 100.03906 -1.7998443 100.63984 -1.3203902 101.33984 -0.90039062 C 102.05984 -0.50039103 102.83039 -0.19070291 103.65039 0.029296875 C 104.49039 0.24929666 105.33922 0.359375 106.19922 0.359375 C 108.01922 0.359375 109.45953 -0.060391465 110.51953 -0.90039062 C 111.59953 -1.7403898 112.14062 -2.8690639 112.14062 -4.2890625 C 112.14062 -5.2090616 111.97086 -5.9497662 111.63086 -6.5097656 C 111.29086 -7.089765 110.85055 -7.5506253 110.31055 -7.890625 C 109.77055 -8.2306247 109.19961 -8.4992189 108.59961 -8.6992188 C 107.99961 -8.8992185 107.43062 -9.0709376 106.89062 -9.2109375 C 106.35063 -9.3509374 105.91031 -9.5094533 105.57031 -9.6894531 C 105.23031 -9.8694529 105.06055 -10.110157 105.06055 -10.410156 C 105.06055 -10.690156 105.18922 -10.899063 105.44922 -11.039062 C 105.70922 -11.199062 106.09914 -11.279297 106.61914 -11.279297 C 107.15914 -11.279297 107.70953 -11.169219 108.26953 -10.949219 C 108.84953 -10.729219 109.37008 -10.350546 109.83008 -9.8105469 L 112.43945 -12.449219 C 111.77945 -13.289218 110.91937 -13.919844 109.85938 -14.339844 C 108.81938 -14.779843 107.67945 -15 106.43945 -15 z M 129.48047 -14.910156 C 127.96047 -14.910156 126.60039 -14.570624 125.40039 -13.890625 C 124.20039 -13.230626 123.25078 -12.329452 122.55078 -11.189453 C 121.85078 -10.049454 121.5 -8.7603111 121.5 -7.3203125 C 121.5 -5.8803139 121.85078 -4.5799207 122.55078 -3.4199219 C 123.25078 -2.259923 124.20039 -1.3401556 125.40039 -0.66015625 C 126.62039 -0.00015691 127.98047 0.33007812 129.48047 0.33007812 C 131.00047 0.33007813 132.36055 -0.00015691 133.56055 -0.66015625 C 134.76055 -1.3401556 135.71016 -2.259923 136.41016 -3.4199219 C 137.11016 -4.5799207 137.45898 -5.8803139 137.45898 -7.3203125 C 137.45898 -8.7603111 137.11016 -10.049454 136.41016 -11.189453 C 135.71016 -12.349452 134.76055 -13.259923 133.56055 -13.919922 C 132.36055 -14.579921 131.00047 -14.910156 129.48047 -14.910156 z M 61.650391 -14.880859 C 60.570392 -14.880859 59.600234 -14.649453 58.740234 -14.189453 C 58.365684 -13.997823 58.026968 -13.767503 57.720703 -13.5 L 57.720703 -14.580078 L 53.130859 -14.580078 L 53.130859 0 L 57.720703 0 L 57.720703 -8.5195312 C 57.720703 -9.0195308 57.819531 -9.4392972 58.019531 -9.7792969 C 58.239531 -10.119297 58.530625 -10.380547 58.890625 -10.560547 C 59.250625 -10.760547 59.659141 -10.859375 60.119141 -10.859375 C 60.77914 -10.859375 61.329532 -10.650468 61.769531 -10.230469 C 62.229531 -9.8304691 62.460938 -9.2595305 62.460938 -8.5195312 L 62.460938 0 L 67.050781 0 L 67.050781 -8.5195312 C 67.050781 -9.0195308 67.14961 -9.4392972 67.349609 -9.7792969 C 67.569609 -10.119297 67.860703 -10.380547 68.220703 -10.560547 C 68.580703 -10.760547 68.989219 -10.859375 69.449219 -10.859375 C 70.109218 -10.859375 70.65961 -10.650468 71.099609 -10.230469 C 71.559609 -9.8304691 71.789062 -9.2595305 71.789062 -8.5195312 L 71.789062 0 L 76.380859 0 L 76.380859 -9.0292969 C 76.380859 -10.249296 76.119609 -11.290391 75.599609 -12.150391 C 75.09961 -13.03039 74.409296 -13.700157 73.529297 -14.160156 C 72.669298 -14.640156 71.680546 -14.880859 70.560547 -14.880859 C 69.420548 -14.880859 68.390702 -14.630859 67.470703 -14.130859 C 66.872721 -13.811936 66.352182 -13.396915 65.904297 -12.892578 C 65.486615 -13.421041 64.98014 -13.853271 64.380859 -14.189453 C 63.58086 -14.649453 62.67039 -14.880859 61.650391 -14.880859 z M 148.41016 -14.880859 C 147.29016 -14.880859 146.28086 -14.640156 145.38086 -14.160156 C 144.9931 -13.957462 144.64406 -13.713954 144.33008 -13.433594 L 144.33008 -14.580078 L 139.74023 -14.580078 L 139.74023 0 L 144.33008 0 L 144.33008 -8.3105469 C 144.33008 -8.8105464 144.44016 -9.2508598 144.66016 -9.6308594 C 144.88016 -10.030859 145.18055 -10.329297 145.56055 -10.529297 C 145.94055 -10.749297 146.38086 -10.859375 146.88086 -10.859375 C 147.60086 -10.859375 148.19039 -10.620625 148.65039 -10.140625 C 149.13039 -9.6806255 149.36914 -9.0705461 149.36914 -8.3105469 L 149.36914 0 L 153.95898 0 L 153.95898 -9.3300781 C 153.95898 -10.330077 153.72023 -11.249845 153.24023 -12.089844 C 152.76023 -12.929843 152.09976 -13.59961 151.25977 -14.099609 C 150.43977 -14.619609 149.49016 -14.880859 148.41016 -14.880859 z M 18.75 -14.580078 L 18.75 -6.1191406 C 18.75 -4.8591419 19.039141 -3.7397646 19.619141 -2.7597656 C 20.19914 -1.7997666 20.999532 -1.0404682 22.019531 -0.48046875 C 23.05953 0.05953071 24.249845 0.33007812 25.589844 0.33007812 C 26.929842 0.33007812 28.11086 0.05953071 29.130859 -0.48046875 C 30.150858 -1.0404682 30.949297 -1.7997666 31.529297 -2.7597656 C 32.109296 -3.7397646 32.400391 -4.8703919 32.400391 -6.1503906 L 32.400391 -14.580078 L 27.810547 -14.580078 L 27.810547 -6.1796875 C 27.810547 -5.4196883 27.610937 -4.8208589 27.210938 -4.3808594 C 26.810938 -3.9608598 26.269843 -3.75 25.589844 -3.75 C 25.109844 -3.75 24.699375 -3.8507815 24.359375 -4.0507812 C 24.019375 -4.250781 23.760078 -4.5306254 23.580078 -4.890625 C 23.420078 -5.2506246 23.339844 -5.679688 23.339844 -6.1796875 L 23.339844 -14.580078 L 18.75 -14.580078 z M 79.320312 -14.580078 L 79.320312 0 L 83.910156 0 L 83.910156 -14.580078 L 79.320312 -14.580078 z M 114.63086 -14.580078 L 114.63086 0 L 119.2207 0 L 119.2207 -14.580078 L 114.63086 -14.580078 z M 42.869141 -10.740234 C 43.50914 -10.740234 44.070782 -10.589062 44.550781 -10.289062 C 45.050781 -10.009063 45.440703 -9.6098432 45.720703 -9.0898438 C 46.000703 -8.5698443 46.140625 -7.9690618 46.140625 -7.2890625 C 46.140625 -6.6290632 46.000703 -6.0395307 45.720703 -5.5195312 C 45.440703 -4.9995318 45.050781 -4.5890622 44.550781 -4.2890625 C 44.070782 -3.9890628 43.50914 -3.8398438 42.869141 -3.8398438 C 42.229141 -3.8398437 41.660156 -3.9797659 41.160156 -4.2597656 C 40.680157 -4.5597653 40.299531 -4.9702349 40.019531 -5.4902344 C 39.739532 -6.0102339 39.599609 -6.6090632 39.599609 -7.2890625 C 39.599609 -7.9690618 39.730235 -8.5698443 39.990234 -9.0898438 C 40.270234 -9.6098432 40.660157 -10.009063 41.160156 -10.289062 C 41.660156 -10.589062 42.229141 -10.740234 42.869141 -10.740234 z M 129.48047 -10.740234 C 130.14047 -10.740234 130.70945 -10.589062 131.18945 -10.289062 C 131.68945 -10.009063 132.07938 -9.6098432 132.35938 -9.0898438 C 132.63937 -8.5898443 132.7793 -8.0003118 132.7793 -7.3203125 C 132.7793 -6.6403132 132.63937 -6.0302338 132.35938 -5.4902344 C 132.09938 -4.9702349 131.7207 -4.5597653 131.2207 -4.2597656 C 130.7207 -3.9797659 130.14047 -3.8398438 129.48047 -3.8398438 C 128.84047 -3.8398437 128.26953 -3.9797659 127.76953 -4.2597656 C 127.26953 -4.5597653 126.87961 -4.9702349 126.59961 -5.4902344 C 126.31961 -6.0302338 126.17969 -6.6290632 126.17969 -7.2890625 C 126.17969 -7.9690618 126.31961 -8.5698443 126.59961 -9.0898438 C 126.87961 -9.6098432 127.26953 -10.009063 127.76953 -10.289062 C 128.26953 -10.589062 128.84047 -10.740234 129.48047 -10.740234 z " />
    </g>
  </g>
</svg>
