<?xml version="1.0" encoding="UTF-8" standalone="no"?>
<svg
   width="98"
   height="43"
   viewBox="0 0 98 43"
   version="1.1"
   id="svg17"
   sodipodi:docname="ib-navbutton-in.svg"
   inkscape:version="1.2.2 (732a01da63, 2022-12-09)"
   xmlns:inkscape="http://www.inkscape.org/namespaces/inkscape"
   xmlns:sodipodi="http://sodipodi.sourceforge.net/DTD/sodipodi-0.dtd"
   xmlns="http://www.w3.org/2000/svg"
   xmlns:svg="http://www.w3.org/2000/svg">
  <defs
     id="defs21" />
  <sodipodi:namedview
     id="namedview19"
     pagecolor="#505050"
     bordercolor="#eeeeee"
     borderopacity="1"
     inkscape:showpageshadow="0"
     inkscape:pageopacity="0"
     inkscape:pagecheckerboard="0"
     inkscape:deskcolor="#505050"
     showgrid="false"
     inkscape:zoom="7.62"
     inkscape:cx="40.288714"
     inkscape:cy="9.1863517"
     inkscape:window-width="1920"
     inkscape:window-height="1027"
     inkscape:window-x="-8"
     inkscape:window-y="-8"
     inkscape:window-maximized="1"
     inkscape:current-layer="svg17" />
  <style
     id="style9">
    /*@import url(&quot;https://fonts.googleapis.com/css2?family=Outfit:wght@600;700&quot;);*/
    text { font: 700 30px Outfit, Outfit Thin; fill: #00f; }
  </style>
  <rect
     id="rect11" />
  <!--<image href="https://inkbunny.net/images80/latest.png" style="filter: brightness(0.5)" />-->
  <g
     id="g15">
    <g
       aria-label="Journals"
       id="text13"
       style="font-weight:700;font-size:30px;font-family:'Outfit Thin';-inkscape-font-specification:'Outfit Thin, @wght=700';font-variation-settings:'wght' 700;fill:#0000ff">
      <path
         id="path447"
         d="M 98.730469 -21.779297 L 98.730469 0 L 103.32031 0 L 103.32031 -21.779297 L 98.730469 -21.779297 z M 9.5097656 -21.179688 L 9.5097656 -7.1699219 C 9.5097656 -6.4699226 9.3791404 -5.8803901 9.1191406 -5.4003906 C 8.8591409 -4.9403911 8.5103121 -4.5803122 8.0703125 -4.3203125 C 7.6303129 -4.0803127 7.109765 -3.9609375 6.5097656 -3.9609375 C 5.8897662 -3.9609375 5.3300776 -4.0896096 4.8300781 -4.3496094 C 4.3500786 -4.6096091 3.9303121 -4.9902349 3.5703125 -5.4902344 L 0.41992188 -2.4609375 C 1.1199212 -1.5809384 1.9594541 -0.8906245 2.9394531 -0.390625 C 3.9394521 0.08937452 5.1092201 0.33007812 6.4492188 0.33007812 C 8.0492172 0.33007813 9.4298449 0.009139985 10.589844 -0.63085938 C 11.749843 -1.2708587 12.649063 -2.1700793 13.289062 -3.3300781 C 13.929062 -4.490077 14.25 -5.8594547 14.25 -7.4394531 L 14.25 -21.179688 L 9.5097656 -21.179688 z M 112.10938 -15 C 110.92938 -15 109.89953 -14.80039 109.01953 -14.400391 C 108.13953 -14.000391 107.46047 -13.449999 106.98047 -12.75 C 106.50047 -12.070001 106.25977 -11.260312 106.25977 -10.320312 C 106.25977 -9.4403134 106.42953 -8.7108588 106.76953 -8.1308594 C 107.10953 -7.5708599 107.54984 -7.1305466 108.08984 -6.8105469 C 108.62984 -6.4905472 109.20078 -6.2405467 109.80078 -6.0605469 C 110.40078 -5.8805471 110.96977 -5.7107811 111.50977 -5.5507812 C 112.04977 -5.4107814 112.49008 -5.2390623 112.83008 -5.0390625 C 113.19008 -4.8590627 113.36914 -4.5904684 113.36914 -4.2304688 C 113.36914 -3.950469 113.21992 -3.7303123 112.91992 -3.5703125 C 112.63992 -3.4103127 112.22945 -3.3300781 111.68945 -3.3300781 C 110.90945 -3.3300781 110.1893 -3.4700003 109.5293 -3.75 C 108.8693 -4.0499997 108.30031 -4.4604693 107.82031 -4.9804688 L 105.21094 -2.3398438 C 105.71094 -1.7998443 106.30977 -1.3203902 107.00977 -0.90039062 C 107.72976 -0.50039103 108.50031 -0.19070291 109.32031 0.029296875 C 110.16031 0.24929666 111.00914 0.359375 111.86914 0.359375 C 113.68914 0.359375 115.12945 -0.060391465 116.18945 -0.90039062 C 117.26945 -1.7403898 117.81055 -2.8690639 117.81055 -4.2890625 C 117.81055 -5.2090616 117.64078 -5.9497662 117.30078 -6.5097656 C 116.96078 -7.089765 116.52047 -7.5506253 115.98047 -7.890625 C 115.44047 -8.2306247 114.86953 -8.4992189 114.26953 -8.6992188 C 113.66953 -8.8992185 113.10055 -9.0709376 112.56055 -9.2109375 C 112.02055 -9.3509374 111.58023 -9.5094533 111.24023 -9.6894531 C 110.90023 -9.8694529 110.73047 -10.110157 110.73047 -10.410156 C 110.73047 -10.690156 110.85914 -10.899063 111.11914 -11.039062 C 111.37914 -11.199062 111.76906 -11.279297 112.28906 -11.279297 C 112.82906 -11.279297 113.37945 -11.169219 113.93945 -10.949219 C 114.51945 -10.729219 115.04 -10.350546 115.5 -9.8105469 L 118.10938 -12.449219 C 117.44938 -13.289218 116.5893 -13.919844 115.5293 -14.339844 C 114.4893 -14.779843 113.34937 -15 112.10938 -15 z M 24.599609 -14.910156 C 23.079611 -14.910156 21.71953 -14.570624 20.519531 -13.890625 C 19.319532 -13.230626 18.369921 -12.329452 17.669922 -11.189453 C 16.969923 -10.049454 16.619141 -8.7603111 16.619141 -7.3203125 C 16.619141 -5.8803139 16.969923 -4.5799207 17.669922 -3.4199219 C 18.369921 -2.259923 19.319532 -1.3401556 20.519531 -0.66015625 C 21.73953 -0.00015691 23.099611 0.33007812 24.599609 0.33007812 C 26.119608 0.33007813 27.479689 -0.00015691 28.679688 -0.66015625 C 29.879686 -1.3401556 30.829298 -2.259923 31.529297 -3.4199219 C 32.229296 -4.5799207 32.580078 -5.8803139 32.580078 -7.3203125 C 32.580078 -8.7603111 32.229296 -10.049454 31.529297 -11.189453 C 30.829298 -12.349452 29.879686 -13.259923 28.679688 -13.919922 C 27.479689 -14.579921 26.119608 -14.910156 24.599609 -14.910156 z M 59.369141 -14.880859 C 57.769142 -14.880859 56.51914 -14.410702 55.619141 -13.470703 L 55.619141 -14.580078 L 51.029297 -14.580078 L 51.029297 0 L 55.619141 0 L 55.619141 -8.0097656 C 55.619141 -8.9497647 55.839297 -9.6493755 56.279297 -10.109375 C 56.739296 -10.589375 57.349376 -10.830078 58.109375 -10.830078 C 58.489375 -10.830078 58.83086 -10.770391 59.130859 -10.650391 C 59.430859 -10.530391 59.68086 -10.360625 59.880859 -10.140625 L 62.609375 -13.589844 C 62.209375 -14.029843 61.739218 -14.350781 61.199219 -14.550781 C 60.679219 -14.770781 60.06914 -14.880859 59.369141 -14.880859 z M 72.390625 -14.880859 C 71.270626 -14.880859 70.259374 -14.640156 69.359375 -14.160156 C 68.972458 -13.957904 68.624003 -13.715126 68.310547 -13.435547 L 68.310547 -14.580078 L 63.720703 -14.580078 L 63.720703 0 L 68.310547 0 L 68.310547 -8.3105469 C 68.310547 -8.8105464 68.420625 -9.2508598 68.640625 -9.6308594 C 68.860625 -10.030859 69.159063 -10.329297 69.539062 -10.529297 C 69.919062 -10.749297 70.359375 -10.859375 70.859375 -10.859375 C 71.579374 -10.859375 72.17086 -10.620625 72.630859 -10.140625 C 73.110859 -9.6806255 73.349609 -9.0705461 73.349609 -8.3105469 L 73.349609 0 L 77.939453 0 L 77.939453 -9.3300781 C 77.939453 -10.330077 77.700703 -11.249845 77.220703 -12.089844 C 76.740704 -12.929843 76.080234 -13.59961 75.240234 -14.099609 C 74.420235 -14.619609 73.470624 -14.880859 72.390625 -14.880859 z M 86.970703 -14.880859 C 85.630704 -14.880859 84.42914 -14.550624 83.369141 -13.890625 C 82.329142 -13.230626 81.500859 -12.329452 80.880859 -11.189453 C 80.28086 -10.049454 79.980469 -8.749061 79.980469 -7.2890625 C 79.980469 -5.829064 80.28086 -4.5306239 80.880859 -3.390625 C 81.500859 -2.2506261 82.329142 -1.3494525 83.369141 -0.68945312 C 84.42914 -0.029453785 85.630704 0.30078125 86.970703 0.30078125 C 87.950702 0.30078125 88.840626 0.11046837 89.640625 -0.26953125 C 90.157819 -0.51519826 90.606785 -0.82090005 90.990234 -1.1835938 L 90.990234 0 L 95.490234 0 L 95.490234 -14.580078 L 90.990234 -14.580078 L 90.990234 -13.365234 C 90.594155 -13.74434 90.134925 -14.060911 89.609375 -14.310547 C 88.829376 -14.690546 87.950702 -14.880859 86.970703 -14.880859 z M 34.5 -14.580078 L 34.5 -6.1191406 C 34.5 -4.8591419 34.789141 -3.7397646 35.369141 -2.7597656 C 35.94914 -1.7997666 36.749532 -1.0404682 37.769531 -0.48046875 C 38.80953 0.05953071 39.999845 0.33007812 41.339844 0.33007812 C 42.679842 0.33007812 43.86086 0.05953071 44.880859 -0.48046875 C 45.900858 -1.0404682 46.699297 -1.7997666 47.279297 -2.7597656 C 47.859296 -3.7397646 48.150391 -4.8703919 48.150391 -6.1503906 L 48.150391 -14.580078 L 43.560547 -14.580078 L 43.560547 -6.1796875 C 43.560547 -5.4196883 43.360937 -4.8208589 42.960938 -4.3808594 C 42.560938 -3.9608598 42.019843 -3.75 41.339844 -3.75 C 40.859844 -3.75 40.449375 -3.8507815 40.109375 -4.0507812 C 39.769375 -4.250781 39.510078 -4.5306254 39.330078 -4.890625 C 39.170078 -5.2506246 39.089844 -5.679688 39.089844 -6.1796875 L 39.089844 -14.580078 L 34.5 -14.580078 z M 24.599609 -10.740234 C 25.259609 -10.740234 25.830547 -10.589062 26.310547 -10.289062 C 26.810546 -10.009063 27.200469 -9.6098432 27.480469 -9.0898438 C 27.760468 -8.5898443 27.900391 -8.0003118 27.900391 -7.3203125 C 27.900391 -6.6403132 27.760468 -6.0302338 27.480469 -5.4902344 C 27.220469 -4.9702349 26.839843 -4.5597653 26.339844 -4.2597656 C 25.839844 -3.9797659 25.259609 -3.8398438 24.599609 -3.8398438 C 23.95961 -3.8398437 23.390624 -3.9797659 22.890625 -4.2597656 C 22.390625 -4.5597653 22.000703 -4.9702349 21.720703 -5.4902344 C 21.440703 -6.0302338 21.300781 -6.6290632 21.300781 -7.2890625 C 21.300781 -7.9690618 21.440703 -8.5698443 21.720703 -9.0898438 C 22.000703 -9.6098432 22.390625 -10.009063 22.890625 -10.289062 C 23.390625 -10.589062 23.95961 -10.740234 24.599609 -10.740234 z M 87.929688 -10.740234 C 88.569687 -10.740234 89.129375 -10.589062 89.609375 -10.289062 C 90.109374 -10.009063 90.49 -9.6098432 90.75 -9.0898438 C 91.03 -8.5698443 91.169922 -7.9690618 91.169922 -7.2890625 C 91.169922 -6.2890635 90.869531 -5.4607806 90.269531 -4.8007812 C 89.669532 -4.1607819 88.88039 -3.8398438 87.900391 -3.8398438 C 87.280391 -3.8398437 86.720703 -3.9890628 86.220703 -4.2890625 C 85.720704 -4.5890622 85.330781 -4.9995318 85.050781 -5.5195312 C 84.770782 -6.0395307 84.630859 -6.6290632 84.630859 -7.2890625 C 84.630859 -7.9690618 84.770782 -8.5698443 85.050781 -9.0898438 C 85.350781 -9.6098432 85.740704 -10.009063 86.220703 -10.289062 C 86.720703 -10.589062 87.289688 -10.740234 87.929688 -10.740234 z " />
    </g>
  </g>
</svg>
