<?xml version="1.0" encoding="UTF-8" standalone="no"?>
<svg
   width="98"
   height="43"
   viewBox="0 0 98 43"
   version="1.1"
   id="svg17"
   sodipodi:docname="ib-navbutton-in.svg"
   inkscape:version="1.2.2 (732a01da63, 2022-12-09)"
   xmlns:inkscape="http://www.inkscape.org/namespaces/inkscape"
   xmlns:sodipodi="http://sodipodi.sourceforge.net/DTD/sodipodi-0.dtd"
   xmlns="http://www.w3.org/2000/svg"
   xmlns:svg="http://www.w3.org/2000/svg">
  <defs
     id="defs21" />
  <sodipodi:namedview
     id="namedview19"
     pagecolor="#505050"
     bordercolor="#eeeeee"
     borderopacity="1"
     inkscape:showpageshadow="0"
     inkscape:pageopacity="0"
     inkscape:pagecheckerboard="0"
     inkscape:deskcolor="#505050"
     showgrid="false"
     inkscape:zoom="7.62"
     inkscape:cx="40.288714"
     inkscape:cy="9.1863517"
     inkscape:window-width="1920"
     inkscape:window-height="1027"
     inkscape:window-x="-8"
     inkscape:window-y="-8"
     inkscape:window-maximized="1"
     inkscape:current-layer="svg17" />
  <style
     id="style9">
    /*@import url(&quot;https://fonts.googleapis.com/css2?family=Outfit:wght@600;700&quot;);*/
    text { font: 700 30px Outfit, Outfit Thin; fill: #00f; }
  </style>
  <rect
     id="rect11" />
  <!--<image href="https://inkbunny.net/images80/latest.png" style="filter: brightness(0.5)" />-->
  <g
     id="g15">
    <g
       aria-label="Search"
       id="text13"
       style="font-weight:700;font-size:30px;font-family:'Outfit Thin';-inkscape-font-specification:'Outfit Thin, @wght=700';font-variation-settings:'wght' 700;fill:#0000ff">
      <path
         id="path401"
         d="M 80.580078 -21.779297 L 80.580078 0 L 85.169922 0 L 85.169922 -8.3105469 C 85.169922 -8.8105464 85.28 -9.2508598 85.5 -9.6308594 C 85.72 -10.030859 86.020391 -10.329297 86.400391 -10.529297 C 86.78039 -10.749297 87.220704 -10.859375 87.720703 -10.859375 C 88.440702 -10.859375 89.030235 -10.620625 89.490234 -10.140625 C 89.970234 -9.6806255 90.210938 -9.0705461 90.210938 -8.3105469 L 90.210938 0 L 94.800781 0 L 94.800781 -9.3300781 C 94.800781 -10.430077 94.560078 -11.390938 94.080078 -12.210938 C 93.620079 -13.050937 92.959609 -13.700157 92.099609 -14.160156 C 91.23961 -14.640156 90.239608 -14.880859 89.099609 -14.880859 C 87.97961 -14.880859 86.990859 -14.640156 86.130859 -14.160156 C 85.778429 -13.971647 85.458535 -13.747872 85.169922 -13.492188 L 85.169922 -21.779297 L 80.580078 -21.779297 z M 9.359375 -21.509766 C 7.8993765 -21.509766 6.6102333 -21.259765 5.4902344 -20.759766 C 4.3702355 -20.279766 3.4896087 -19.570858 2.8496094 -18.630859 C 2.22961 -17.69086 1.9199219 -16.56953 1.9199219 -15.269531 C 1.9199219 -14.189532 2.1009379 -13.290312 2.4609375 -12.570312 C 2.8209371 -11.870313 3.2891412 -11.280781 3.8691406 -10.800781 C 4.46914 -10.340782 5.1203132 -9.9508591 5.8203125 -9.6308594 C 6.5203118 -9.3308597 7.2199226 -9.0603123 7.9199219 -8.8203125 C 8.6399212 -8.5803127 9.2891412 -8.3303122 9.8691406 -8.0703125 C 10.46914 -7.8103128 10.950547 -7.5006246 11.310547 -7.140625 C 11.670547 -6.7806254 11.849609 -6.3104682 11.849609 -5.7304688 C 11.849609 -5.0904694 11.569765 -4.5904684 11.009766 -4.2304688 C 10.469766 -3.8704691 9.6992177 -3.6894531 8.6992188 -3.6894531 C 7.5992199 -3.6894531 6.6290617 -3.9003129 5.7890625 -4.3203125 C 4.9690633 -4.7603121 4.2190618 -5.3703914 3.5390625 -6.1503906 L 0.48046875 -3.1191406 C 1.5204677 -1.9591418 2.6603919 -1.089765 3.9003906 -0.50976562 C 5.1603894 0.050233815 6.6603924 0.33007812 8.4003906 0.33007812 C 10.940388 0.33007813 12.929142 -0.24086052 14.369141 -1.3808594 C 15.809139 -2.5408582 16.529297 -4.1303926 16.529297 -6.1503906 C 16.529297 -7.2503895 16.350234 -8.170157 15.990234 -8.9101562 C 15.630235 -9.6701555 15.150781 -10.289532 14.550781 -10.769531 C 13.970782 -11.269531 13.330859 -11.68 12.630859 -12 C 11.93086 -12.32 11.219999 -12.599844 10.5 -12.839844 C 9.8000007 -13.079844 9.1507806 -13.320547 8.5507812 -13.560547 C 7.9707818 -13.800547 7.5006246 -14.080391 7.140625 -14.400391 C 6.7806254 -14.74039 6.5996094 -15.180704 6.5996094 -15.720703 C 6.5996094 -16.300703 6.840313 -16.739063 7.3203125 -17.039062 C 7.800312 -17.359062 8.4495321 -17.519531 9.2695312 -17.519531 C 10.08953 -17.519531 10.820938 -17.359062 11.460938 -17.039062 C 12.120937 -16.719063 12.770157 -16.230312 13.410156 -15.570312 L 16.470703 -18.599609 C 15.670704 -19.499608 14.650155 -20.210469 13.410156 -20.730469 C 12.190157 -21.250468 10.839374 -21.509766 9.359375 -21.509766 z M 25.890625 -14.910156 C 24.410626 -14.910156 23.080389 -14.579921 21.900391 -13.919922 C 20.720392 -13.259923 19.780077 -12.349452 19.080078 -11.189453 C 18.400079 -10.049454 18.060547 -8.749061 18.060547 -7.2890625 C 18.060547 -5.829064 18.409376 -4.5193738 19.109375 -3.359375 C 19.809374 -2.1993762 20.770236 -1.2908587 21.990234 -0.63085938 C 23.230233 0.009139985 24.640705 0.33007812 26.220703 0.33007812 C 27.440702 0.33007813 28.560079 0.11921833 29.580078 -0.30078125 C 30.600077 -0.72078083 31.469454 -1.349454 32.189453 -2.1894531 L 29.669922 -4.7109375 C 29.229922 -4.210938 28.720624 -3.8303122 28.140625 -3.5703125 C 27.560626 -3.3303127 26.909452 -3.2109375 26.189453 -3.2109375 C 25.409454 -3.2109375 24.73039 -3.3694534 24.150391 -3.6894531 C 23.590391 -4.0294528 23.150078 -4.49961 22.830078 -5.0996094 C 22.729396 -5.3076852 22.64697 -5.5305176 22.580078 -5.765625 L 33.029297 -5.7890625 C 33.109297 -6.1690621 33.159688 -6.4992972 33.179688 -6.7792969 C 33.219687 -7.0792966 33.240234 -7.3591409 33.240234 -7.6191406 C 33.240234 -9.0391392 32.919296 -10.300392 32.279297 -11.400391 C 31.659297 -12.50039 30.799218 -13.360469 29.699219 -13.980469 C 28.59922 -14.600468 27.330624 -14.910156 25.890625 -14.910156 z M 72.810547 -14.910156 C 71.290548 -14.910156 69.919218 -14.579921 68.699219 -13.919922 C 67.47922 -13.259923 66.511015 -12.349452 65.791016 -11.189453 C 65.091016 -10.049454 64.740234 -8.749061 64.740234 -7.2890625 C 64.740234 -5.8490639 65.091016 -4.5506238 65.791016 -3.390625 C 66.491015 -2.2306262 67.449923 -1.3201556 68.669922 -0.66015625 C 69.889921 -0.00015691 71.250001 0.33007812 72.75 0.33007812 C 73.929999 0.33007812 75.000938 0.13046835 75.960938 -0.26953125 C 76.920937 -0.68953083 77.781016 -1.2996102 78.541016 -2.0996094 L 75.630859 -5.0390625 C 75.29086 -4.6590629 74.88039 -4.3606248 74.400391 -4.140625 C 73.940391 -3.9406252 73.410546 -3.8398437 72.810547 -3.8398438 C 72.170548 -3.8398437 71.590312 -3.9890628 71.070312 -4.2890625 C 70.550313 -4.5890622 70.139843 -4.9995318 69.839844 -5.5195312 C 69.559844 -6.0395307 69.419922 -6.6403132 69.419922 -7.3203125 C 69.419922 -8.0003118 69.559844 -8.5898443 69.839844 -9.0898438 C 70.139843 -9.6098432 70.541016 -10.009063 71.041016 -10.289062 C 71.561015 -10.589062 72.150548 -10.740234 72.810547 -10.740234 C 73.390546 -10.740234 73.899844 -10.650703 74.339844 -10.470703 C 74.799843 -10.290703 75.201016 -10.010859 75.541016 -9.6308594 L 78.480469 -12.570312 C 77.740469 -13.350312 76.889687 -13.930547 75.929688 -14.310547 C 74.989688 -14.710546 73.950546 -14.910156 72.810547 -14.910156 z M 41.550781 -14.880859 C 40.210783 -14.880859 39.009218 -14.550624 37.949219 -13.890625 C 36.90922 -13.230626 36.080937 -12.329452 35.460938 -11.189453 C 34.860938 -10.049454 34.560547 -8.749061 34.560547 -7.2890625 C 34.560547 -5.829064 34.860938 -4.5306239 35.460938 -3.390625 C 36.080937 -2.2506261 36.90922 -1.3494525 37.949219 -0.68945312 C 39.009218 -0.029453785 40.210783 0.30078125 41.550781 0.30078125 C 42.53078 0.30078125 43.420704 0.11046837 44.220703 -0.26953125 C 44.737897 -0.51519826 45.186864 -0.82090005 45.570312 -1.1835938 L 45.570312 0 L 50.070312 0 L 50.070312 -14.580078 L 45.570312 -14.580078 L 45.570312 -13.365234 C 45.174233 -13.74434 44.715003 -14.060911 44.189453 -14.310547 C 43.409454 -14.690546 42.53078 -14.880859 41.550781 -14.880859 z M 61.650391 -14.880859 C 60.050392 -14.880859 58.80039 -14.410702 57.900391 -13.470703 L 57.900391 -14.580078 L 53.310547 -14.580078 L 53.310547 0 L 57.900391 0 L 57.900391 -8.0097656 C 57.900391 -8.9497647 58.120547 -9.6493755 58.560547 -10.109375 C 59.020546 -10.589375 59.630626 -10.830078 60.390625 -10.830078 C 60.770625 -10.830078 61.110157 -10.770391 61.410156 -10.650391 C 61.710156 -10.530391 61.960156 -10.360625 62.160156 -10.140625 L 64.890625 -13.589844 C 64.490625 -14.029843 64.020468 -14.350781 63.480469 -14.550781 C 62.960469 -14.770781 62.35039 -14.880859 61.650391 -14.880859 z M 25.919922 -11.400391 C 26.599921 -11.400391 27.17086 -11.249218 27.630859 -10.949219 C 28.110859 -10.669219 28.470938 -10.249453 28.710938 -9.6894531 C 28.811192 -9.4638813 28.89126 -9.211514 28.953125 -8.9335938 L 22.583984 -8.9160156 C 22.643678 -9.1255933 22.7145 -9.3248764 22.800781 -9.5097656 C 23.100781 -10.109765 23.509297 -10.570625 24.029297 -10.890625 C 24.569296 -11.230625 25.199923 -11.400391 25.919922 -11.400391 z M 42.509766 -10.740234 C 43.149765 -10.740234 43.709454 -10.589062 44.189453 -10.289062 C 44.689453 -10.009063 45.070078 -9.6098432 45.330078 -9.0898438 C 45.610078 -8.5698443 45.75 -7.9690618 45.75 -7.2890625 C 45.75 -6.2890635 45.449609 -5.4607806 44.849609 -4.8007812 C 44.24961 -4.1607819 43.460468 -3.8398438 42.480469 -3.8398438 C 41.860469 -3.8398437 41.300781 -3.9890628 40.800781 -4.2890625 C 40.300782 -4.5890622 39.910859 -4.9995318 39.630859 -5.5195312 C 39.35086 -6.0395307 39.210938 -6.6290632 39.210938 -7.2890625 C 39.210938 -7.9690618 39.35086 -8.5698443 39.630859 -9.0898438 C 39.930859 -9.6098432 40.320782 -10.009063 40.800781 -10.289062 C 41.300781 -10.589062 41.869766 -10.740234 42.509766 -10.740234 z " />
    </g>
  </g>
</svg>
