<?xml version="1.0" encoding="UTF-8" standalone="no"?>
<svg
   width="98"
   height="43"
   viewBox="0 0 98 43"
   version="1.1"
   id="svg17"
   sodipodi:docname="ib-navbutton-in.svg"
   inkscape:version="1.2.2 (732a01da63, 2022-12-09)"
   xmlns:inkscape="http://www.inkscape.org/namespaces/inkscape"
   xmlns:sodipodi="http://sodipodi.sourceforge.net/DTD/sodipodi-0.dtd"
   xmlns="http://www.w3.org/2000/svg"
   xmlns:svg="http://www.w3.org/2000/svg">
  <defs
     id="defs21" />
  <sodipodi:namedview
     id="namedview19"
     pagecolor="#505050"
     bordercolor="#eeeeee"
     borderopacity="1"
     inkscape:showpageshadow="0"
     inkscape:pageopacity="0"
     inkscape:pagecheckerboard="0"
     inkscape:deskcolor="#505050"
     showgrid="false"
     inkscape:zoom="7.62"
     inkscape:cx="40.288714"
     inkscape:cy="9.1863517"
     inkscape:window-width="1920"
     inkscape:window-height="1027"
     inkscape:window-x="-8"
     inkscape:window-y="-8"
     inkscape:window-maximized="1"
     inkscape:current-layer="svg17" />
  <style
     id="style9">
    /*@import url(&quot;https://fonts.googleapis.com/css2?family=Outfit:wght@600;700&quot;);*/
    text { font: 700 30px Outfit, Outfit Thin; fill: #00f; }
  </style>
  <rect
     id="rect11" />
  <!--<image href="https://inkbunny.net/images80/latest.png" style="filter: brightness(0.5)" />-->
  <g
     id="g15">
    <g
       aria-label="Comments"
       id="text13"
       style="font-weight:700;font-size:30px;font-family:'Outfit Thin';-inkscape-font-specification:'Outfit Thin, @wght=700';font-variation-settings:'wght' 700;fill:#0000ff">
      <path
         id="path241"
         d="M 12.060547 -21.509766 C 10.480548 -21.509766 9.0103893 -21.229921 7.6503906 -20.669922 C 6.310392 -20.129922 5.140624 -19.370624 4.140625 -18.390625 C 3.140626 -17.410626 2.3607807 -16.250155 1.8007812 -14.910156 C 1.2407818 -13.590158 0.9609375 -12.159139 0.9609375 -10.619141 C 0.9609375 -9.0791422 1.2407818 -7.6407799 1.8007812 -6.3007812 C 2.3607807 -4.9807826 3.140626 -3.8203115 4.140625 -2.8203125 C 5.160624 -1.8203135 6.3396888 -1.0404682 7.6796875 -0.48046875 C 9.0396861 0.05953071 10.509845 0.33007812 12.089844 0.33007812 C 13.809842 0.33007812 15.319142 0.05953071 16.619141 -0.48046875 C 17.939139 -1.0204682 19.11086 -1.7592197 20.130859 -2.6992188 L 16.949219 -5.8808594 C 16.369219 -5.28086 15.680859 -4.8107028 14.880859 -4.4707031 C 14.08086 -4.1307035 13.140546 -3.9609375 12.060547 -3.9609375 C 11.140548 -3.9609375 10.289765 -4.1194534 9.5097656 -4.4394531 C 8.7497664 -4.7594528 8.0892963 -5.2090631 7.5292969 -5.7890625 C 6.9892974 -6.3690619 6.5602341 -7.0706258 6.2402344 -7.890625 C 5.9402347 -8.7106242 5.7890625 -9.6191416 5.7890625 -10.619141 C 5.7890625 -11.59914 5.9402347 -12.500313 6.2402344 -13.320312 C 6.5602341 -14.140312 6.9892974 -14.839922 7.5292969 -15.419922 C 8.0892963 -15.999921 8.7497664 -16.440235 9.5097656 -16.740234 C 10.289765 -17.060234 11.140548 -17.220703 12.060547 -17.220703 C 13.100546 -17.220703 14.009063 -17.050937 14.789062 -16.710938 C 15.589062 -16.370938 16.270079 -15.900781 16.830078 -15.300781 L 19.980469 -18.480469 C 19.00047 -19.420468 17.849296 -20.159219 16.529297 -20.699219 C 15.229298 -21.239218 13.740545 -21.509766 12.060547 -21.509766 z M 127.10938 -20.609375 L 127.10938 -14.580078 L 123.81055 -14.580078 L 123.81055 -10.679688 L 127.10938 -10.679688 L 127.10938 0 L 131.69922 0 L 131.69922 -10.679688 L 135 -10.679688 L 135 -14.580078 L 131.69922 -14.580078 L 131.69922 -20.609375 L 127.10938 -20.609375 z M 142.25977 -15 C 141.07977 -15 140.04992 -14.80039 139.16992 -14.400391 C 138.28992 -14.000391 137.61086 -13.449999 137.13086 -12.75 C 136.65086 -12.070001 136.41016 -11.260312 136.41016 -10.320312 C 136.41016 -9.4403134 136.57992 -8.7108588 136.91992 -8.1308594 C 137.25992 -7.5708599 137.70023 -7.1305466 138.24023 -6.8105469 C 138.78023 -6.4905472 139.34922 -6.2405467 139.94922 -6.0605469 C 140.54922 -5.8805471 141.12016 -5.7107811 141.66016 -5.5507812 C 142.20016 -5.4107814 142.64047 -5.2390623 142.98047 -5.0390625 C 143.34047 -4.8590627 143.51953 -4.5904684 143.51953 -4.2304688 C 143.51953 -3.950469 143.37031 -3.7303123 143.07031 -3.5703125 C 142.79031 -3.4103127 142.37984 -3.3300781 141.83984 -3.3300781 C 141.05984 -3.3300781 140.33969 -3.4700003 139.67969 -3.75 C 139.01969 -4.0499997 138.4507 -4.4604693 137.9707 -4.9804688 L 135.35938 -2.3398438 C 135.85937 -1.7998443 136.46016 -1.3203902 137.16016 -0.90039062 C 137.88016 -0.50039103 138.6507 -0.19070291 139.4707 0.029296875 C 140.3107 0.24929666 141.15953 0.359375 142.01953 0.359375 C 143.83953 0.359375 145.27984 -0.060391465 146.33984 -0.90039062 C 147.41984 -1.7403898 147.95898 -2.8690639 147.95898 -4.2890625 C 147.95898 -5.2090616 147.78922 -5.9497662 147.44922 -6.5097656 C 147.10922 -7.089765 146.67086 -7.5506253 146.13086 -7.890625 C 145.59086 -8.2306247 145.01992 -8.4992189 144.41992 -8.6992188 C 143.81992 -8.8992185 143.24898 -9.0709376 142.70898 -9.2109375 C 142.16898 -9.3509374 141.73062 -9.5094533 141.39062 -9.6894531 C 141.05063 -9.8694529 140.88086 -10.110157 140.88086 -10.410156 C 140.88086 -10.690156 141.00953 -10.899063 141.26953 -11.039062 C 141.52953 -11.199062 141.91945 -11.279297 142.43945 -11.279297 C 142.97945 -11.279297 143.52984 -11.169219 144.08984 -10.949219 C 144.66984 -10.729219 145.19039 -10.350546 145.65039 -9.8105469 L 148.25977 -12.449219 C 147.59977 -13.289218 146.73969 -13.919844 145.67969 -14.339844 C 144.63969 -14.779843 143.49976 -15 142.25977 -15 z M 28.980469 -14.910156 C 27.46047 -14.910156 26.100389 -14.570624 24.900391 -13.890625 C 23.700392 -13.230626 22.750781 -12.329452 22.050781 -11.189453 C 21.350782 -10.049454 21 -8.7603111 21 -7.3203125 C 21 -5.8803139 21.350782 -4.5799207 22.050781 -3.4199219 C 22.750781 -2.259923 23.700392 -1.3401556 24.900391 -0.66015625 C 26.120389 -0.00015691 27.48047 0.33007812 28.980469 0.33007812 C 30.500467 0.33007813 31.860548 -0.00015691 33.060547 -0.66015625 C 34.260546 -1.3401556 35.210157 -2.259923 35.910156 -3.4199219 C 36.610156 -4.5799207 36.960938 -5.8803139 36.960938 -7.3203125 C 36.960937 -8.7603111 36.610156 -10.049454 35.910156 -11.189453 C 35.210157 -12.349452 34.260546 -13.259923 33.060547 -13.919922 C 31.860548 -14.579921 30.500467 -14.910156 28.980469 -14.910156 z M 98.490234 -14.910156 C 97.010236 -14.910156 95.679999 -14.579921 94.5 -13.919922 C 93.320001 -13.259923 92.379687 -12.349452 91.679688 -11.189453 C 90.999688 -10.049454 90.660156 -8.749061 90.660156 -7.2890625 C 90.660156 -5.829064 91.008985 -4.5193738 91.708984 -3.359375 C 92.408984 -2.1993762 93.369845 -1.2908587 94.589844 -0.63085938 C 95.829843 0.009139985 97.240314 0.33007812 98.820312 0.33007812 C 100.04031 0.33007813 101.15969 0.11921833 102.17969 -0.30078125 C 103.19969 -0.72078083 104.06906 -1.349454 104.78906 -2.1894531 L 102.26953 -4.7109375 C 101.82953 -4.210938 101.32023 -3.8303122 100.74023 -3.5703125 C 100.16023 -3.3303127 99.509062 -3.2109375 98.789062 -3.2109375 C 98.009063 -3.2109375 97.329999 -3.3694534 96.75 -3.6894531 C 96.190001 -4.0294528 95.749687 -4.49961 95.429688 -5.0996094 C 95.329006 -5.3076852 95.24658 -5.5305176 95.179688 -5.765625 L 105.63086 -5.7890625 C 105.71086 -6.1690621 105.7593 -6.4992972 105.7793 -6.7792969 C 105.8193 -7.0792966 105.83984 -7.3591409 105.83984 -7.6191406 C 105.83984 -9.0391392 105.52086 -10.300392 104.88086 -11.400391 C 104.26086 -12.50039 103.40078 -13.360469 102.30078 -13.980469 C 101.20078 -14.600468 99.930234 -14.910156 98.490234 -14.910156 z M 47.759766 -14.880859 C 46.679767 -14.880859 45.709609 -14.649453 44.849609 -14.189453 C 44.474431 -13.997502 44.136742 -13.766125 43.830078 -13.498047 L 43.830078 -14.580078 L 39.240234 -14.580078 L 39.240234 0 L 43.830078 0 L 43.830078 -8.5195312 C 43.830078 -9.0195308 43.93086 -9.4392972 44.130859 -9.7792969 C 44.350859 -10.119297 44.64 -10.380547 45 -10.560547 C 45.36 -10.760547 45.770469 -10.859375 46.230469 -10.859375 C 46.890468 -10.859375 47.44086 -10.650468 47.880859 -10.230469 C 48.340859 -9.8304691 48.570312 -9.2595305 48.570312 -8.5195312 L 48.570312 0 L 53.160156 0 L 53.160156 -8.5195312 C 53.160156 -9.0195308 53.260938 -9.4392972 53.460938 -9.7792969 C 53.680937 -10.119297 53.970078 -10.380547 54.330078 -10.560547 C 54.690078 -10.760547 55.100547 -10.859375 55.560547 -10.859375 C 56.220546 -10.859375 56.770938 -10.650468 57.210938 -10.230469 C 57.670937 -9.8304691 57.900391 -9.2595305 57.900391 -8.5195312 L 57.900391 0 L 62.490234 0 L 62.490234 -9.0292969 C 62.490234 -10.249296 62.230937 -11.290391 61.710938 -12.150391 C 61.210938 -13.03039 60.520624 -13.700157 59.640625 -14.160156 C 58.780626 -14.640156 57.789921 -14.880859 56.669922 -14.880859 C 55.529923 -14.880859 54.500077 -14.630859 53.580078 -14.130859 C 52.982531 -13.812168 52.461341 -13.398367 52.013672 -12.894531 C 51.596289 -13.422082 51.088756 -13.853697 50.490234 -14.189453 C 49.690235 -14.649453 48.779765 -14.880859 47.759766 -14.880859 z M 73.949219 -14.880859 C 72.86922 -14.880859 71.899062 -14.649453 71.039062 -14.189453 C 70.663885 -13.997502 70.326195 -13.766125 70.019531 -13.498047 L 70.019531 -14.580078 L 65.429688 -14.580078 L 65.429688 0 L 70.019531 0 L 70.019531 -8.5195312 C 70.019531 -9.0195308 70.120313 -9.4392972 70.320312 -9.7792969 C 70.540312 -10.119297 70.829453 -10.380547 71.189453 -10.560547 C 71.549453 -10.760547 71.959922 -10.859375 72.419922 -10.859375 C 73.079921 -10.859375 73.630313 -10.650468 74.070312 -10.230469 C 74.530312 -9.8304691 74.759766 -9.2595305 74.759766 -8.5195312 L 74.759766 0 L 79.349609 0 L 79.349609 -8.5195312 C 79.349609 -9.0195308 79.450391 -9.4392972 79.650391 -9.7792969 C 79.87039 -10.119297 80.159532 -10.380547 80.519531 -10.560547 C 80.879531 -10.760547 81.29 -10.859375 81.75 -10.859375 C 82.409999 -10.859375 82.960391 -10.650468 83.400391 -10.230469 C 83.86039 -9.8304691 84.089844 -9.2595305 84.089844 -8.5195312 L 84.089844 0 L 88.679688 0 L 88.679688 -9.0292969 C 88.679687 -10.249296 88.42039 -11.290391 87.900391 -12.150391 C 87.400391 -13.03039 86.710077 -13.700157 85.830078 -14.160156 C 84.970079 -14.640156 83.979374 -14.880859 82.859375 -14.880859 C 81.719376 -14.880859 80.68953 -14.630859 79.769531 -14.130859 C 79.171984 -13.812168 78.650794 -13.398367 78.203125 -12.894531 C 77.785742 -13.422082 77.27821 -13.853697 76.679688 -14.189453 C 75.879688 -14.649453 74.969218 -14.880859 73.949219 -14.880859 z M 116.73047 -14.880859 C 115.61047 -14.880859 114.59922 -14.640156 113.69922 -14.160156 C 113.31169 -13.957585 112.96423 -13.713737 112.65039 -13.433594 L 112.65039 -14.580078 L 108.06055 -14.580078 L 108.06055 0 L 112.65039 0 L 112.65039 -8.3105469 C 112.65039 -8.8105464 112.76047 -9.2508598 112.98047 -9.6308594 C 113.20047 -10.030859 113.50086 -10.329297 113.88086 -10.529297 C 114.26086 -10.749297 114.69922 -10.859375 115.19922 -10.859375 C 115.91922 -10.859375 116.5107 -10.620625 116.9707 -10.140625 C 117.4507 -9.6806255 117.68945 -9.0705461 117.68945 -8.3105469 L 117.68945 0 L 122.2793 0 L 122.2793 -9.3300781 C 122.2793 -10.330077 122.04055 -11.249845 121.56055 -12.089844 C 121.08055 -12.929843 120.42008 -13.59961 119.58008 -14.099609 C 118.76008 -14.619609 117.81047 -14.880859 116.73047 -14.880859 z M 98.519531 -11.400391 C 99.199531 -11.400391 99.770469 -11.249218 100.23047 -10.949219 C 100.71047 -10.669219 101.07055 -10.249453 101.31055 -9.6894531 C 101.4108 -9.4638813 101.49087 -9.211514 101.55273 -8.9335938 L 95.183594 -8.9160156 C 95.243288 -9.1255933 95.314109 -9.3248764 95.400391 -9.5097656 C 95.70039 -10.109765 96.11086 -10.570625 96.630859 -10.890625 C 97.170859 -11.230625 97.799532 -11.400391 98.519531 -11.400391 z M 28.980469 -10.740234 C 29.640468 -10.740234 30.209454 -10.589062 30.689453 -10.289062 C 31.189453 -10.009063 31.579375 -9.6098432 31.859375 -9.0898438 C 32.139375 -8.5898443 32.279297 -8.0003118 32.279297 -7.3203125 C 32.279297 -6.6403132 32.139375 -6.0302338 31.859375 -5.4902344 C 31.599375 -4.9702349 31.220703 -4.5597653 30.720703 -4.2597656 C 30.220704 -3.9797659 29.640468 -3.8398438 28.980469 -3.8398438 C 28.340469 -3.8398437 27.769531 -3.9797659 27.269531 -4.2597656 C 26.769532 -4.5597653 26.379609 -4.9702349 26.099609 -5.4902344 C 25.81961 -6.0302338 25.679688 -6.6290632 25.679688 -7.2890625 C 25.679688 -7.9690618 25.81961 -8.5698443 26.099609 -9.0898438 C 26.379609 -9.6098432 26.769532 -10.009063 27.269531 -10.289062 C 27.769531 -10.589062 28.340469 -10.740234 28.980469 -10.740234 z " />
    </g>
  </g>
</svg>
