<?xml version="1.0" encoding="UTF-8" standalone="no"?>
<svg
   width="98"
   height="43"
   viewBox="0 0 98 43"
   version="1.1"
   id="svg17"
   sodipodi:docname="ib-navbutton-in.svg"
   inkscape:version="1.2.2 (732a01da63, 2022-12-09)"
   xmlns:inkscape="http://www.inkscape.org/namespaces/inkscape"
   xmlns:sodipodi="http://sodipodi.sourceforge.net/DTD/sodipodi-0.dtd"
   xmlns="http://www.w3.org/2000/svg"
   xmlns:svg="http://www.w3.org/2000/svg">
  <defs
     id="defs21" />
  <sodipodi:namedview
     id="namedview19"
     pagecolor="#505050"
     bordercolor="#eeeeee"
     borderopacity="1"
     inkscape:showpageshadow="0"
     inkscape:pageopacity="0"
     inkscape:pagecheckerboard="0"
     inkscape:deskcolor="#505050"
     showgrid="false"
     inkscape:zoom="7.62"
     inkscape:cx="40.288714"
     inkscape:cy="9.1863517"
     inkscape:window-width="1920"
     inkscape:window-height="1027"
     inkscape:window-x="-8"
     inkscape:window-y="-8"
     inkscape:window-maximized="1"
     inkscape:current-layer="svg17" />
  <style
     id="style9">
    /*@import url(&quot;https://fonts.googleapis.com/css2?family=Outfit:wght@600;700&quot;);*/
    text { font: 700 30px Outfit, Outfit Thin; fill: #00f; }
  </style>
  <rect
     id="rect11" />
  <!--<image href="https://inkbunny.net/images80/latest.png" style="filter: brightness(0.5)" />-->
  <g
     id="g15">
    <g
       aria-label="Help"
       id="text13"
       style="font-weight:700;font-size:30px;font-family:'Outfit Thin';-inkscape-font-specification:'Outfit Thin, @wght=700';font-variation-settings:'wght' 700;fill:#0000ff">
      <path
         id="path381"
         d="M 39.960938 -21.779297 L 39.960938 0 L 44.550781 0 L 44.550781 -21.779297 L 39.960938 -21.779297 z M 2.0390625 -21.179688 L 2.0390625 0 L 6.75 0 L 6.75 -8.8496094 L 15.150391 -8.8496094 L 15.150391 0 L 19.890625 0 L 19.890625 -21.179688 L 15.150391 -21.179688 L 15.150391 -12.929688 L 6.75 -12.929688 L 6.75 -21.179688 L 2.0390625 -21.179688 z M 30.390625 -14.910156 C 28.910626 -14.910156 27.580389 -14.579921 26.400391 -13.919922 C 25.220392 -13.259923 24.280077 -12.349452 23.580078 -11.189453 C 22.900079 -10.049454 22.560547 -8.749061 22.560547 -7.2890625 C 22.560547 -5.829064 22.909376 -4.5193738 23.609375 -3.359375 C 24.309374 -2.1993762 25.270236 -1.2908587 26.490234 -0.63085938 C 27.730233 0.009139985 29.140705 0.33007812 30.720703 0.33007812 C 31.940702 0.33007813 33.060079 0.11921833 34.080078 -0.30078125 C 35.100077 -0.72078083 35.969454 -1.349454 36.689453 -2.1894531 L 34.169922 -4.7109375 C 33.729922 -4.210938 33.220624 -3.8303122 32.640625 -3.5703125 C 32.060626 -3.3303127 31.409452 -3.2109375 30.689453 -3.2109375 C 29.909454 -3.2109375 29.23039 -3.3694534 28.650391 -3.6894531 C 28.090391 -4.0294528 27.650078 -4.49961 27.330078 -5.0996094 C 27.229396 -5.3076852 27.14697 -5.5305176 27.080078 -5.765625 L 37.529297 -5.7890625 C 37.609297 -6.1690621 37.659688 -6.4992972 37.679688 -6.7792969 C 37.719687 -7.0792966 37.740234 -7.3591409 37.740234 -7.6191406 C 37.740234 -9.0391392 37.419296 -10.300392 36.779297 -11.400391 C 36.159297 -12.50039 35.299218 -13.360469 34.199219 -13.980469 C 33.09922 -14.600468 31.830624 -14.910156 30.390625 -14.910156 z M 56.189453 -14.880859 C 55.209454 -14.880859 54.310234 -14.679296 53.490234 -14.279297 C 53.083307 -14.080796 52.713907 -13.8466 52.380859 -13.574219 L 52.380859 -14.580078 L 47.789062 -14.580078 L 47.789062 6.1503906 L 52.320312 6.1503906 L 52.320312 -0.98828125 C 52.669072 -0.71033957 53.058195 -0.4697448 53.490234 -0.26953125 C 54.310234 0.11046837 55.209454 0.30078125 56.189453 0.30078125 C 57.569452 0.30078125 58.78961 -0.029453785 59.849609 -0.68945312 C 60.929608 -1.3494525 61.769141 -2.2506261 62.369141 -3.390625 C 62.98914 -4.5306239 63.300781 -5.829064 63.300781 -7.2890625 C 63.300781 -8.749061 62.98914 -10.049454 62.369141 -11.189453 C 61.769141 -12.329452 60.929608 -13.230626 59.849609 -13.890625 C 58.78961 -14.550624 57.569452 -14.880859 56.189453 -14.880859 z M 30.419922 -11.400391 C 31.099921 -11.400391 31.67086 -11.249218 32.130859 -10.949219 C 32.610859 -10.669219 32.970938 -10.249453 33.210938 -9.6894531 C 33.311192 -9.4638813 33.39126 -9.211514 33.453125 -8.9335938 L 27.083984 -8.9160156 C 27.143678 -9.1255933 27.2145 -9.3248764 27.300781 -9.5097656 C 27.600781 -10.109765 28.009297 -10.570625 28.529297 -10.890625 C 29.069296 -11.230625 29.699923 -11.400391 30.419922 -11.400391 z M 55.380859 -10.740234 C 56.020859 -10.740234 56.580547 -10.589062 57.060547 -10.289062 C 57.560546 -10.009063 57.950469 -9.6098432 58.230469 -9.0898438 C 58.510468 -8.5698443 58.650391 -7.9690618 58.650391 -7.2890625 C 58.650391 -6.6290632 58.510468 -6.0395307 58.230469 -5.5195312 C 57.950469 -4.9995318 57.560546 -4.5890622 57.060547 -4.2890625 C 56.580547 -3.9890628 56.009609 -3.8398437 55.349609 -3.8398438 C 54.72961 -3.8398437 54.169921 -3.9890628 53.669922 -4.2890625 C 53.169922 -4.5890622 52.78 -4.9995318 52.5 -5.5195312 C 52.24 -6.0395307 52.109375 -6.6290632 52.109375 -7.2890625 C 52.109375 -7.9690618 52.249297 -8.5698443 52.529297 -9.0898438 C 52.809297 -9.6098432 53.189922 -10.009063 53.669922 -10.289062 C 54.169921 -10.589062 54.74086 -10.740234 55.380859 -10.740234 z " />
    </g>
  </g>
</svg>
