<?xml version="1.0" encoding="UTF-8" standalone="no"?>
<svg
   width="98"
   height="43"
   viewBox="0 0 98 43"
   version="1.1"
   id="svg17"
   sodipodi:docname="ib-navbutton-in.svg"
   inkscape:version="1.2.2 (732a01da63, 2022-12-09)"
   xmlns:inkscape="http://www.inkscape.org/namespaces/inkscape"
   xmlns:sodipodi="http://sodipodi.sourceforge.net/DTD/sodipodi-0.dtd"
   xmlns="http://www.w3.org/2000/svg"
   xmlns:svg="http://www.w3.org/2000/svg">
  <defs
     id="defs21" />
  <sodipodi:namedview
     id="namedview19"
     pagecolor="#505050"
     bordercolor="#eeeeee"
     borderopacity="1"
     inkscape:showpageshadow="0"
     inkscape:pageopacity="0"
     inkscape:pagecheckerboard="0"
     inkscape:deskcolor="#505050"
     showgrid="false"
     inkscape:zoom="7.62"
     inkscape:cx="40.288714"
     inkscape:cy="9.1863517"
     inkscape:window-width="1920"
     inkscape:window-height="1027"
     inkscape:window-x="-8"
     inkscape:window-y="-8"
     inkscape:window-maximized="1"
     inkscape:current-layer="svg17" />
  <style
     id="style9">
    /*@import url(&quot;https://fonts.googleapis.com/css2?family=Outfit:wght@600;700&quot;);*/
    text { font: 700 30px Outfit, Outfit Thin; fill: #00f; }
  </style>
  <rect
     id="rect11" />
  <!--<image href="https://inkbunny.net/images80/latest.png" style="filter: brightness(0.5)" />-->
  <g
     id="g15">
    <g
       aria-label="Shouts"
       id="text13"
       style="font-weight:700;font-size:30px;font-family:'Outfit Thin';-inkscape-font-specification:'Outfit Thin, @wght=700';font-variation-settings:'wght' 700;fill:#0000ff">
      <path
         id="path217"
         d="M 19.109375 -21.779297 L 19.109375 0 L 23.699219 0 L 23.699219 -8.3105469 C 23.699219 -8.8105464 23.809297 -9.2508598 24.029297 -9.6308594 C 24.249297 -10.030859 24.549688 -10.329297 24.929688 -10.529297 C 25.309687 -10.749297 25.75 -10.859375 26.25 -10.859375 C 26.969999 -10.859375 27.559532 -10.620625 28.019531 -10.140625 C 28.499531 -9.6806255 28.740234 -9.0705461 28.740234 -8.3105469 L 28.740234 0 L 33.330078 0 L 33.330078 -9.3300781 C 33.330078 -10.430077 33.089375 -11.390938 32.609375 -12.210938 C 32.149375 -13.050937 31.490859 -13.700157 30.630859 -14.160156 C 29.77086 -14.640156 28.770858 -14.880859 27.630859 -14.880859 C 26.51086 -14.880859 25.520155 -14.640156 24.660156 -14.160156 C 24.307011 -13.971264 23.988288 -13.746575 23.699219 -13.490234 L 23.699219 -21.779297 L 19.109375 -21.779297 z M 9.359375 -21.509766 C 7.8993765 -21.509766 6.6102333 -21.259765 5.4902344 -20.759766 C 4.3702355 -20.279766 3.4896087 -19.570858 2.8496094 -18.630859 C 2.22961 -17.69086 1.9199219 -16.56953 1.9199219 -15.269531 C 1.9199219 -14.189532 2.1009379 -13.290312 2.4609375 -12.570312 C 2.8209371 -11.870313 3.2891412 -11.280781 3.8691406 -10.800781 C 4.46914 -10.340782 5.1203132 -9.9508591 5.8203125 -9.6308594 C 6.5203118 -9.3308597 7.2199226 -9.0603123 7.9199219 -8.8203125 C 8.6399212 -8.5803127 9.2891412 -8.3303122 9.8691406 -8.0703125 C 10.46914 -7.8103128 10.950547 -7.5006246 11.310547 -7.140625 C 11.670547 -6.7806254 11.849609 -6.3104682 11.849609 -5.7304688 C 11.849609 -5.0904694 11.569765 -4.5904684 11.009766 -4.2304688 C 10.469766 -3.8704691 9.6992177 -3.6894531 8.6992188 -3.6894531 C 7.5992199 -3.6894531 6.6290617 -3.9003129 5.7890625 -4.3203125 C 4.9690633 -4.7603121 4.2190618 -5.3703914 3.5390625 -6.1503906 L 0.48046875 -3.1191406 C 1.5204677 -1.9591418 2.6603919 -1.089765 3.9003906 -0.50976562 C 5.1603894 0.050233815 6.6603924 0.33007812 8.4003906 0.33007812 C 10.940388 0.33007813 12.929142 -0.24086052 14.369141 -1.3808594 C 15.809139 -2.5408582 16.529297 -4.1303926 16.529297 -6.1503906 C 16.529297 -7.2503895 16.350234 -8.170157 15.990234 -8.9101562 C 15.630235 -9.6701555 15.150781 -10.289532 14.550781 -10.769531 C 13.970782 -11.269531 13.330859 -11.68 12.630859 -12 C 11.93086 -12.32 11.219999 -12.599844 10.5 -12.839844 C 9.8000007 -13.079844 9.1507806 -13.320547 8.5507812 -13.560547 C 7.9707818 -13.800547 7.5006246 -14.080391 7.140625 -14.400391 C 6.7806254 -14.74039 6.5996094 -15.180704 6.5996094 -15.720703 C 6.5996094 -16.300703 6.840313 -16.739063 7.3203125 -17.039062 C 7.800312 -17.359062 8.4495321 -17.519531 9.2695312 -17.519531 C 10.08953 -17.519531 10.820938 -17.359062 11.460938 -17.039062 C 12.120937 -16.719063 12.770157 -16.230312 13.410156 -15.570312 L 16.470703 -18.599609 C 15.670704 -19.499608 14.650155 -20.210469 13.410156 -20.730469 C 12.190157 -21.250468 10.839374 -21.509766 9.359375 -21.509766 z M 71.789062 -20.609375 L 71.789062 -14.580078 L 68.490234 -14.580078 L 68.490234 -10.679688 L 71.789062 -10.679688 L 71.789062 0 L 76.380859 0 L 76.380859 -10.679688 L 79.679688 -10.679688 L 79.679688 -14.580078 L 76.380859 -14.580078 L 76.380859 -20.609375 L 71.789062 -20.609375 z M 86.939453 -15 C 85.759454 -15 84.729608 -14.80039 83.849609 -14.400391 C 82.96961 -14.000391 82.290546 -13.449999 81.810547 -12.75 C 81.330547 -12.070001 81.089844 -11.260312 81.089844 -10.320312 C 81.089844 -9.4403134 81.25961 -8.7108588 81.599609 -8.1308594 C 81.939609 -7.5708599 82.379922 -7.1305466 82.919922 -6.8105469 C 83.459921 -6.4905472 84.03086 -6.2405467 84.630859 -6.0605469 C 85.230859 -5.8805471 85.799844 -5.7107811 86.339844 -5.5507812 C 86.879843 -5.4107814 87.320157 -5.2390623 87.660156 -5.0390625 C 88.020156 -4.8590627 88.199219 -4.5904684 88.199219 -4.2304688 C 88.199219 -3.950469 88.05 -3.7303123 87.75 -3.5703125 C 87.47 -3.4103127 87.059531 -3.3300781 86.519531 -3.3300781 C 85.739532 -3.3300781 85.019374 -3.4700003 84.359375 -3.75 C 83.699376 -4.0499997 83.13039 -4.4604693 82.650391 -4.9804688 L 80.039062 -2.3398438 C 80.539062 -1.7998443 81.139844 -1.3203902 81.839844 -0.90039062 C 82.559843 -0.50039103 83.330391 -0.19070291 84.150391 0.029296875 C 84.99039 0.24929666 85.83922 0.359375 86.699219 0.359375 C 88.519217 0.359375 89.959532 -0.060391465 91.019531 -0.90039062 C 92.09953 -1.7403898 92.640625 -2.8690639 92.640625 -4.2890625 C 92.640625 -5.2090616 92.470859 -5.9497662 92.130859 -6.5097656 C 91.79086 -7.089765 91.350546 -7.5506253 90.810547 -7.890625 C 90.270547 -8.2306247 89.699609 -8.4992189 89.099609 -8.6992188 C 88.49961 -8.8992185 87.930624 -9.0709376 87.390625 -9.2109375 C 86.850626 -9.3509374 86.410312 -9.5094533 86.070312 -9.6894531 C 85.730313 -9.8694529 85.560547 -10.110157 85.560547 -10.410156 C 85.560547 -10.690156 85.689219 -10.899063 85.949219 -11.039062 C 86.209218 -11.199062 86.599141 -11.279297 87.119141 -11.279297 C 87.65914 -11.279297 88.209532 -11.169219 88.769531 -10.949219 C 89.349531 -10.729219 89.870079 -10.350546 90.330078 -9.8105469 L 92.939453 -12.449219 C 92.279454 -13.289218 91.419374 -13.919844 90.359375 -14.339844 C 89.319376 -14.779843 88.179452 -15 86.939453 -15 z M 43.289062 -14.910156 C 41.769064 -14.910156 40.410936 -14.570624 39.210938 -13.890625 C 38.010939 -13.230626 37.059374 -12.329452 36.359375 -11.189453 C 35.659376 -10.049454 35.310547 -8.7603111 35.310547 -7.3203125 C 35.310547 -5.8803139 35.659376 -4.5799207 36.359375 -3.4199219 C 37.059374 -2.259923 38.010939 -1.3401556 39.210938 -0.66015625 C 40.430936 -0.00015691 41.789064 0.33007812 43.289062 0.33007812 C 44.809061 0.33007813 46.169142 -0.00015691 47.369141 -0.66015625 C 48.569139 -1.3401556 49.520704 -2.259923 50.220703 -3.4199219 C 50.920702 -4.5799207 51.269531 -5.8803139 51.269531 -7.3203125 C 51.269531 -8.7603111 50.920702 -10.049454 50.220703 -11.189453 C 49.520704 -12.349452 48.569139 -13.259923 47.369141 -13.919922 C 46.169142 -14.579921 44.809061 -14.910156 43.289062 -14.910156 z M 53.189453 -14.580078 L 53.189453 -6.1191406 C 53.189453 -4.8591419 53.480547 -3.7397646 54.060547 -2.7597656 C 54.640546 -1.7997666 55.440939 -1.0404682 56.460938 -0.48046875 C 57.500936 0.05953071 58.689298 0.33007812 60.029297 0.33007812 C 61.369296 0.33007812 62.550314 0.05953071 63.570312 -0.48046875 C 64.590311 -1.0404682 65.390704 -1.7997666 65.970703 -2.7597656 C 66.550703 -3.7397646 66.839844 -4.8703919 66.839844 -6.1503906 L 66.839844 -14.580078 L 62.25 -14.580078 L 62.25 -6.1796875 C 62.25 -5.4196883 62.05039 -4.8208589 61.650391 -4.3808594 C 61.250391 -3.9608598 60.709296 -3.75 60.029297 -3.75 C 59.549297 -3.75 59.140781 -3.8507815 58.800781 -4.0507812 C 58.460782 -4.250781 58.199531 -4.5306254 58.019531 -4.890625 C 57.859531 -5.2506246 57.779297 -5.679688 57.779297 -6.1796875 L 57.779297 -14.580078 L 53.189453 -14.580078 z M 43.289062 -10.740234 C 43.949062 -10.740234 44.52 -10.589062 45 -10.289062 C 45.5 -10.009063 45.889922 -9.6098432 46.169922 -9.0898438 C 46.449922 -8.5898443 46.589844 -8.0003118 46.589844 -7.3203125 C 46.589844 -6.6403132 46.449922 -6.0302338 46.169922 -5.4902344 C 45.909922 -4.9702349 45.529296 -4.5597653 45.029297 -4.2597656 C 44.529297 -3.9797659 43.949062 -3.8398438 43.289062 -3.8398438 C 42.649063 -3.8398437 42.080078 -3.9797659 41.580078 -4.2597656 C 41.080079 -4.5597653 40.690156 -4.9702349 40.410156 -5.4902344 C 40.130157 -6.0302338 39.990234 -6.6290632 39.990234 -7.2890625 C 39.990234 -7.9690618 40.130157 -8.5698443 40.410156 -9.0898438 C 40.690156 -9.6098432 41.080079 -10.009063 41.580078 -10.289062 C 42.080078 -10.589062 42.649063 -10.740234 43.289062 -10.740234 z " />
    </g>
  </g>
</svg>
