<?xml version="1.0" encoding="UTF-8" standalone="no"?>
<svg
   width="98"
   height="43"
   viewBox="0 0 98 43"
   version="1.1"
   id="svg17"
   sodipodi:docname="ib-navbutton-in.svg"
   inkscape:version="1.2.2 (732a01da63, 2022-12-09)"
   xmlns:inkscape="http://www.inkscape.org/namespaces/inkscape"
   xmlns:sodipodi="http://sodipodi.sourceforge.net/DTD/sodipodi-0.dtd"
   xmlns="http://www.w3.org/2000/svg"
   xmlns:svg="http://www.w3.org/2000/svg">
  <defs
     id="defs21" />
  <sodipodi:namedview
     id="namedview19"
     pagecolor="#505050"
     bordercolor="#eeeeee"
     borderopacity="1"
     inkscape:showpageshadow="0"
     inkscape:pageopacity="0"
     inkscape:pagecheckerboard="0"
     inkscape:deskcolor="#505050"
     showgrid="false"
     inkscape:zoom="7.62"
     inkscape:cx="40.288714"
     inkscape:cy="9.1863517"
     inkscape:window-width="1920"
     inkscape:window-height="1027"
     inkscape:window-x="-8"
     inkscape:window-y="-8"
     inkscape:window-maximized="1"
     inkscape:current-layer="svg17" />
  <style
     id="style9">
    /*@import url(&quot;https://fonts.googleapis.com/css2?family=Outfit:wght@600;700&quot;);*/
    text { font: 700 30px Outfit, Outfit Thin; fill: #00f; }
  </style>
  <rect
     id="rect11" />
  <!--<image href="https://inkbunny.net/images80/latest.png" style="filter: brightness(0.5)" />-->
  <g
     id="g15">
    <g
       aria-label="Members"
       id="text13"
       style="font-weight:700;font-size:30px;font-family:'Outfit Thin';-inkscape-font-specification:'Outfit Thin, @wght=700';font-variation-settings:'wght' 700;fill:#0000ff">
      <path
         id="path353"
         d="M 69.990234 -21.779297 L 69.990234 0 L 74.519531 0 L 74.519531 -1.0742188 C 74.868466 -0.78051272 75.257128 -0.5222159 75.689453 -0.30078125 C 76.509452 0.09921835 77.410626 0.30078125 78.390625 0.30078125 C 79.770624 0.30078125 80.990782 -0.029453785 82.050781 -0.68945312 C 83.13078 -1.3494525 83.970313 -2.2506261 84.570312 -3.390625 C 85.190312 -4.5306239 85.5 -5.829064 85.5 -7.2890625 C 85.5 -8.749061 85.190312 -10.049454 84.570312 -11.189453 C 83.970313 -12.329452 83.13078 -13.230626 82.050781 -13.890625 C 80.990782 -14.550624 79.770624 -14.880859 78.390625 -14.880859 C 77.410626 -14.880859 76.509452 -14.690546 75.689453 -14.310547 C 75.282571 -14.121992 74.913097 -13.895231 74.580078 -13.632812 L 74.580078 -21.779297 L 69.990234 -21.779297 z M 2.0390625 -21.179688 L 2.0390625 0 L 6.7207031 0 L 6.7207031 -11.75 L 11.310547 -4.5605469 L 14.429688 -4.5605469 L 19.019531 -11.710938 L 19.019531 0 L 23.730469 0 L 23.730469 -21.179688 L 20.339844 -21.179688 L 12.882812 -9.5234375 L 5.4003906 -21.179688 L 2.0390625 -21.179688 z M 122.31055 -15 C 121.13055 -15 120.1007 -14.80039 119.2207 -14.400391 C 118.3407 -14.000391 117.65969 -13.449999 117.17969 -12.75 C 116.69969 -12.070001 116.46094 -11.260312 116.46094 -10.320312 C 116.46094 -9.4403134 116.6307 -8.7108588 116.9707 -8.1308594 C 117.3107 -7.5708599 117.74906 -7.1305466 118.28906 -6.8105469 C 118.82906 -6.4905472 119.4 -6.2405467 120 -6.0605469 C 120.6 -5.8805471 121.17094 -5.7107811 121.71094 -5.5507812 C 122.25094 -5.4107814 122.6893 -5.2390623 123.0293 -5.0390625 C 123.3893 -4.8590627 123.57031 -4.5904684 123.57031 -4.2304688 C 123.57031 -3.950469 123.41914 -3.7303123 123.11914 -3.5703125 C 122.83914 -3.4103127 122.43062 -3.3300781 121.89062 -3.3300781 C 121.11063 -3.3300781 120.39047 -3.4700003 119.73047 -3.75 C 119.07047 -4.0499997 118.49953 -4.4604693 118.01953 -4.9804688 L 115.41016 -2.3398438 C 115.91016 -1.7998443 116.51094 -1.3203902 117.21094 -0.90039062 C 117.93094 -0.50039103 118.69953 -0.19070291 119.51953 0.029296875 C 120.35953 0.24929666 121.21031 0.359375 122.07031 0.359375 C 123.89031 0.359375 125.33063 -0.060391465 126.39062 -0.90039062 C 127.47062 -1.7403898 128.00977 -2.8690639 128.00977 -4.2890625 C 128.00977 -5.2090616 127.84 -5.9497662 127.5 -6.5097656 C 127.16 -7.089765 126.71969 -7.5506253 126.17969 -7.890625 C 125.63969 -8.2306247 125.0707 -8.4992189 124.4707 -8.6992188 C 123.8707 -8.8992185 123.29977 -9.0709376 122.75977 -9.2109375 C 122.21977 -9.3509374 121.77945 -9.5094533 121.43945 -9.6894531 C 121.09945 -9.8694529 120.92969 -10.110157 120.92969 -10.410156 C 120.92969 -10.690156 121.06031 -10.899063 121.32031 -11.039062 C 121.58031 -11.199062 121.97023 -11.279297 122.49023 -11.279297 C 123.03023 -11.279297 123.58063 -11.169219 124.14062 -10.949219 C 124.72062 -10.729219 125.23922 -10.350546 125.69922 -9.8105469 L 128.31055 -12.449219 C 127.65055 -13.289218 126.79047 -13.919844 125.73047 -14.339844 C 124.69047 -14.779843 123.55055 -15 122.31055 -15 z M 34.230469 -14.910156 C 32.75047 -14.910156 31.420233 -14.579921 30.240234 -13.919922 C 29.060236 -13.259923 28.119921 -12.349452 27.419922 -11.189453 C 26.739923 -10.049454 26.400391 -8.749061 26.400391 -7.2890625 C 26.400391 -5.829064 26.749219 -4.5193738 27.449219 -3.359375 C 28.149218 -2.1993762 29.110079 -1.2908587 30.330078 -0.63085938 C 31.570077 0.009139985 32.980548 0.33007812 34.560547 0.33007812 C 35.780546 0.33007813 36.899923 0.11921833 37.919922 -0.30078125 C 38.939921 -0.72078083 39.809298 -1.349454 40.529297 -2.1894531 L 38.009766 -4.7109375 C 37.569766 -4.210938 37.060468 -3.8303122 36.480469 -3.5703125 C 35.900469 -3.3303127 35.249296 -3.2109375 34.529297 -3.2109375 C 33.749298 -3.2109375 33.070234 -3.3694534 32.490234 -3.6894531 C 31.930235 -4.0294528 31.489922 -4.49961 31.169922 -5.0996094 C 31.06924 -5.3076852 30.986814 -5.5305176 30.919922 -5.765625 L 41.369141 -5.7890625 C 41.449141 -6.1690621 41.499531 -6.4992972 41.519531 -6.7792969 C 41.559531 -7.0792966 41.580078 -7.3591409 41.580078 -7.6191406 C 41.580078 -9.0391392 41.25914 -10.300392 40.619141 -11.400391 C 39.999141 -12.50039 39.139061 -13.360469 38.039062 -13.980469 C 36.939064 -14.600468 35.670467 -14.910156 34.230469 -14.910156 z M 94.708984 -14.910156 C 93.228986 -14.910156 91.900702 -14.579921 90.720703 -13.919922 C 89.540704 -13.259923 88.60039 -12.349452 87.900391 -11.189453 C 87.220391 -10.049454 86.880859 -8.749061 86.880859 -7.2890625 C 86.880859 -5.829064 87.229688 -4.5193738 87.929688 -3.359375 C 88.629687 -2.1993762 89.590548 -1.2908587 90.810547 -0.63085938 C 92.050546 0.009139985 93.459064 0.33007812 95.039062 0.33007812 C 96.259061 0.33007813 97.380392 0.11921833 98.400391 -0.30078125 C 99.42039 -0.72078083 100.28976 -1.349454 101.00977 -2.1894531 L 98.490234 -4.7109375 C 98.050235 -4.210938 97.538984 -3.8303122 96.958984 -3.5703125 C 96.378985 -3.3303127 95.729765 -3.2109375 95.009766 -3.2109375 C 94.229766 -3.2109375 93.550703 -3.3694534 92.970703 -3.6894531 C 92.410704 -4.0294528 91.97039 -4.49961 91.650391 -5.0996094 C 91.549761 -5.3075763 91.467266 -5.5306548 91.400391 -5.765625 L 101.84961 -5.7890625 C 101.92961 -6.1690621 101.98 -6.4992972 102 -6.7792969 C 102.04 -7.0792966 102.06055 -7.3591409 102.06055 -7.6191406 C 102.06055 -9.0391392 101.73961 -10.300392 101.09961 -11.400391 C 100.47961 -12.50039 99.619533 -13.360469 98.519531 -13.980469 C 97.419532 -14.600468 96.148983 -14.910156 94.708984 -14.910156 z M 52.320312 -14.880859 C 51.240314 -14.880859 50.270155 -14.649453 49.410156 -14.189453 C 49.035606 -13.997823 48.69689 -13.767503 48.390625 -13.5 L 48.390625 -14.580078 L 43.800781 -14.580078 L 43.800781 0 L 48.390625 0 L 48.390625 -8.5195312 C 48.390625 -9.0195308 48.489453 -9.4392972 48.689453 -9.7792969 C 48.909453 -10.119297 49.200547 -10.380547 49.560547 -10.560547 C 49.920547 -10.760547 50.329063 -10.859375 50.789062 -10.859375 C 51.449062 -10.859375 51.999454 -10.650468 52.439453 -10.230469 C 52.899453 -9.8304691 53.130859 -9.2595305 53.130859 -8.5195312 L 53.130859 0 L 57.720703 0 L 57.720703 -8.5195312 C 57.720703 -9.0195308 57.819531 -9.4392972 58.019531 -9.7792969 C 58.239531 -10.119297 58.530625 -10.380547 58.890625 -10.560547 C 59.250625 -10.760547 59.659141 -10.859375 60.119141 -10.859375 C 60.77914 -10.859375 61.329532 -10.650468 61.769531 -10.230469 C 62.229531 -9.8304691 62.460938 -9.2595305 62.460938 -8.5195312 L 62.460938 0 L 67.050781 0 L 67.050781 -9.0292969 C 67.050781 -10.249296 66.789531 -11.290391 66.269531 -12.150391 C 65.769532 -13.03039 65.079218 -13.700157 64.199219 -14.160156 C 63.33922 -14.640156 62.350468 -14.880859 61.230469 -14.880859 C 60.09047 -14.880859 59.060624 -14.630859 58.140625 -14.130859 C 57.542643 -13.811936 57.022104 -13.396915 56.574219 -12.892578 C 56.156536 -13.421041 55.650062 -13.853271 55.050781 -14.189453 C 54.250782 -14.649453 53.340311 -14.880859 52.320312 -14.880859 z M 112.61914 -14.880859 C 111.01914 -14.880859 109.76914 -14.410702 108.86914 -13.470703 L 108.86914 -14.580078 L 104.2793 -14.580078 L 104.2793 0 L 108.86914 0 L 108.86914 -8.0097656 C 108.86914 -8.9497647 109.0893 -9.6493755 109.5293 -10.109375 C 109.9893 -10.589375 110.59938 -10.830078 111.35938 -10.830078 C 111.73937 -10.830078 112.08086 -10.770391 112.38086 -10.650391 C 112.68086 -10.530391 112.93086 -10.360625 113.13086 -10.140625 L 115.85938 -13.589844 C 115.45938 -14.029843 114.98922 -14.350781 114.44922 -14.550781 C 113.92922 -14.770781 113.31914 -14.880859 112.61914 -14.880859 z M 34.259766 -11.400391 C 34.939765 -11.400391 35.510704 -11.249218 35.970703 -10.949219 C 36.450703 -10.669219 36.810781 -10.249453 37.050781 -9.6894531 C 37.151035 -9.4638813 37.231103 -9.211514 37.292969 -8.9335938 L 30.923828 -8.9160156 C 30.983522 -9.1255933 31.054343 -9.3248764 31.140625 -9.5097656 C 31.440625 -10.109765 31.849141 -10.570625 32.369141 -10.890625 C 32.90914 -11.230625 33.539766 -11.400391 34.259766 -11.400391 z M 94.740234 -11.400391 C 95.420234 -11.400391 95.989219 -11.249218 96.449219 -10.949219 C 96.929218 -10.669219 97.289297 -10.249453 97.529297 -9.6894531 C 97.62952 -9.4639521 97.709626 -9.2114104 97.771484 -8.9335938 L 91.402344 -8.9160156 C 91.462038 -9.1255933 91.532859 -9.3248764 91.619141 -9.5097656 C 91.91914 -10.109765 92.32961 -10.570625 92.849609 -10.890625 C 93.389609 -11.230625 94.020235 -11.400391 94.740234 -11.400391 z M 77.580078 -10.740234 C 78.220077 -10.740234 78.779766 -10.589062 79.259766 -10.289062 C 79.759765 -10.009063 80.149688 -9.6098432 80.429688 -9.0898438 C 80.709687 -8.5698443 80.849609 -7.9690618 80.849609 -7.2890625 C 80.849609 -6.6290632 80.709687 -6.0395307 80.429688 -5.5195312 C 80.149688 -4.9995318 79.759765 -4.5890622 79.259766 -4.2890625 C 78.779766 -3.9890628 78.220077 -3.8398438 77.580078 -3.8398438 C 76.940079 -3.8398437 76.36914 -3.9797659 75.869141 -4.2597656 C 75.389141 -4.5597653 75.010468 -4.9702349 74.730469 -5.4902344 C 74.450469 -6.0102339 74.310547 -6.6090632 74.310547 -7.2890625 C 74.310547 -7.9690618 74.439219 -8.5698443 74.699219 -9.0898438 C 74.979218 -9.6098432 75.369141 -10.009063 75.869141 -10.289062 C 76.36914 -10.589062 76.940079 -10.740234 77.580078 -10.740234 z " />
    </g>
  </g>
</svg>
