<?xml version="1.0" encoding="UTF-8" standalone="no"?>
<svg
   width="98"
   height="43"
   viewBox="0 0 98 43"
   version="1.1"
   id="svg17"
   sodipodi:docname="ib-navbutton-in.svg"
   inkscape:version="1.2.2 (732a01da63, 2022-12-09)"
   xmlns:inkscape="http://www.inkscape.org/namespaces/inkscape"
   xmlns:sodipodi="http://sodipodi.sourceforge.net/DTD/sodipodi-0.dtd"
   xmlns="http://www.w3.org/2000/svg"
   xmlns:svg="http://www.w3.org/2000/svg">
  <defs
     id="defs21" />
  <sodipodi:namedview
     id="namedview19"
     pagecolor="#505050"
     bordercolor="#eeeeee"
     borderopacity="1"
     inkscape:showpageshadow="0"
     inkscape:pageopacity="0"
     inkscape:pagecheckerboard="0"
     inkscape:deskcolor="#505050"
     showgrid="false"
     inkscape:zoom="7.62"
     inkscape:cx="40.288714"
     inkscape:cy="9.1863517"
     inkscape:window-width="1920"
     inkscape:window-height="1027"
     inkscape:window-x="-8"
     inkscape:window-y="-8"
     inkscape:window-maximized="1"
     inkscape:current-layer="svg17" />
  <style
     id="style9">
    /*@import url(&quot;https://fonts.googleapis.com/css2?family=Outfit:wght@600;700&quot;);*/
    text { font: 700 30px Outfit, Outfit Thin; fill: #00f; }
  </style>
  <rect
     id="rect11" />
  <!--<image href="https://inkbunny.net/images80/latest.png" style="filter: brightness(0.5)" />-->
  <g
     id="g15">
    <g
       aria-label="Gallery"
       id="text13"
       style="font-weight:700;font-size:30px;font-family:'Outfit Thin';-inkscape-font-specification:'Outfit Thin, @wght=700';font-variation-settings:'wght' 700;fill:#0000ff">
      <path
         id="path189"
         d="M 43.019531 -21.779297 L 43.019531 0 L 47.609375 0 L 47.609375 -21.779297 L 43.019531 -21.779297 z M 50.849609 -21.779297 L 50.849609 0 L 55.439453 0 L 55.439453 -21.779297 L 50.849609 -21.779297 z M 12.300781 -21.509766 C 10.720783 -21.509766 9.2393736 -21.229921 7.859375 -20.669922 C 6.4793764 -20.129922 5.2704677 -19.359374 4.2304688 -18.359375 C 3.2104698 -17.379376 2.4100775 -16.230155 1.8300781 -14.910156 C 1.2500787 -13.590158 0.9609375 -12.159139 0.9609375 -10.619141 C 0.9609375 -9.0791422 1.2407818 -7.6407799 1.8007812 -6.3007812 C 2.3807807 -4.9807826 3.1699229 -3.8203115 4.1699219 -2.8203125 C 5.1699209 -1.8403135 6.3396888 -1.0697651 7.6796875 -0.50976562 C 9.0396861 0.050233815 10.489298 0.33007812 12.029297 0.33007812 C 14.129295 0.33007812 15.98008 -0.11023525 17.580078 -0.99023438 C 19.200077 -1.8702335 20.459376 -3.1706267 21.359375 -4.890625 C 22.279374 -6.6306233 22.740234 -8.7705494 22.740234 -11.310547 L 22.740234 -12 L 11.609375 -12 L 11.609375 -8.0097656 L 17.691406 -7.9121094 C 17.574836 -7.4725966 17.420127 -7.0633731 17.220703 -6.6894531 C 16.760704 -5.809454 16.090937 -5.1303901 15.210938 -4.6503906 C 14.350938 -4.1903911 13.300546 -3.9609375 12.060547 -3.9609375 C 10.840548 -3.9609375 9.7603116 -4.2407818 8.8203125 -4.8007812 C 7.8803134 -5.3607807 7.1396088 -6.140626 6.5996094 -7.140625 C 6.0596099 -8.140624 5.7890625 -9.2991419 5.7890625 -10.619141 C 5.7890625 -11.939139 6.0596099 -13.090313 6.5996094 -14.070312 C 7.1596088 -15.070312 7.9301572 -15.84086 8.9101562 -16.380859 C 9.8901553 -16.940859 11.000236 -17.220703 12.240234 -17.220703 C 13.400233 -17.220703 14.439376 -17.000546 15.359375 -16.560547 C 16.279374 -16.120547 17.079766 -15.460077 17.759766 -14.580078 L 20.970703 -17.789062 C 19.990704 -18.949061 18.749999 -19.859532 17.25 -20.519531 C 15.770001 -21.179531 14.120779 -21.509766 12.300781 -21.509766 z M 65.550781 -14.910156 C 64.070783 -14.910156 62.740546 -14.579921 61.560547 -13.919922 C 60.380548 -13.259923 59.440234 -12.349452 58.740234 -11.189453 C 58.060235 -10.049454 57.720703 -8.749061 57.720703 -7.2890625 C 57.720703 -5.829064 58.069532 -4.5193738 58.769531 -3.359375 C 59.469531 -2.1993762 60.430392 -1.2908587 61.650391 -0.63085938 C 62.890389 0.009139985 64.300861 0.33007812 65.880859 0.33007812 C 67.100858 0.33007813 68.220235 0.11921833 69.240234 -0.30078125 C 70.260233 -0.72078083 71.12961 -1.349454 71.849609 -2.1894531 L 69.330078 -4.7109375 C 68.890079 -4.210938 68.380781 -3.8303122 67.800781 -3.5703125 C 67.220782 -3.3303127 66.569609 -3.2109375 65.849609 -3.2109375 C 65.06961 -3.2109375 64.390546 -3.3694534 63.810547 -3.6894531 C 63.250547 -4.0294528 62.810234 -4.49961 62.490234 -5.0996094 C 62.389605 -5.3075763 62.307109 -5.5306548 62.240234 -5.765625 L 72.689453 -5.7890625 C 72.769453 -6.1690621 72.819844 -6.4992972 72.839844 -6.7792969 C 72.879844 -7.0792966 72.900391 -7.3591409 72.900391 -7.6191406 C 72.900391 -9.0391392 72.579452 -10.300392 71.939453 -11.400391 C 71.319454 -12.50039 70.459374 -13.360469 69.359375 -13.980469 C 68.259376 -14.600468 66.99078 -14.910156 65.550781 -14.910156 z M 31.259766 -14.880859 C 29.919767 -14.880859 28.720155 -14.550624 27.660156 -13.890625 C 26.620157 -13.230626 25.789921 -12.329452 25.169922 -11.189453 C 24.569922 -10.049454 24.269531 -8.749061 24.269531 -7.2890625 C 24.269531 -5.829064 24.569922 -4.5306239 25.169922 -3.390625 C 25.789921 -2.2506261 26.620157 -1.3494525 27.660156 -0.68945312 C 28.720155 -0.029453785 29.919767 0.30078125 31.259766 0.30078125 C 32.239765 0.30078125 33.129688 0.11046837 33.929688 -0.26953125 C 34.446803 -0.51516098 34.895886 -0.82097285 35.279297 -1.1835938 L 35.279297 0 L 39.779297 0 L 39.779297 -14.580078 L 35.279297 -14.580078 L 35.279297 -13.367188 C 34.883665 -13.745441 34.425059 -14.061329 33.900391 -14.310547 C 33.120391 -14.690546 32.239765 -14.880859 31.259766 -14.880859 z M 83.460938 -14.880859 C 81.860939 -14.880859 80.610937 -14.410702 79.710938 -13.470703 L 79.710938 -14.580078 L 75.119141 -14.580078 L 75.119141 0 L 79.710938 0 L 79.710938 -8.0097656 C 79.710938 -8.9497647 79.929141 -9.6493755 80.369141 -10.109375 C 80.82914 -10.589375 81.43922 -10.830078 82.199219 -10.830078 C 82.579218 -10.830078 82.920703 -10.770391 83.220703 -10.650391 C 83.520703 -10.530391 83.770703 -10.360625 83.970703 -10.140625 L 86.699219 -13.589844 C 86.299219 -14.029843 85.829062 -14.350781 85.289062 -14.550781 C 84.769063 -14.770781 84.160937 -14.880859 83.460938 -14.880859 z M 86.310547 -14.580078 L 91.875 -1.0019531 L 88.560547 6.1503906 L 93.269531 6.1503906 L 95.849609 0.060546875 L 102.08984 -14.580078 L 97.140625 -14.580078 L 94.166016 -5.7265625 L 91.259766 -14.580078 L 86.310547 -14.580078 z M 65.580078 -11.400391 C 66.260077 -11.400391 66.829063 -11.249218 67.289062 -10.949219 C 67.769062 -10.669219 68.129141 -10.249453 68.369141 -9.6894531 C 68.469363 -9.4639521 68.54947 -9.2114104 68.611328 -8.9335938 L 62.242188 -8.9160156 C 62.301882 -9.1255933 62.372703 -9.3248764 62.458984 -9.5097656 C 62.758984 -10.109765 63.169454 -10.570625 63.689453 -10.890625 C 64.229453 -11.230625 64.860079 -11.400391 65.580078 -11.400391 z M 32.220703 -10.740234 C 32.860702 -10.740234 33.420391 -10.589062 33.900391 -10.289062 C 34.40039 -10.009063 34.779063 -9.6098432 35.039062 -9.0898438 C 35.319062 -8.5698443 35.460938 -7.9690618 35.460938 -7.2890625 C 35.460937 -6.2890635 35.160546 -5.4607806 34.560547 -4.8007812 C 33.960547 -4.1607819 33.169452 -3.8398438 32.189453 -3.8398438 C 31.569454 -3.8398437 31.009765 -3.9890628 30.509766 -4.2890625 C 30.009766 -4.5890622 29.619843 -4.9995318 29.339844 -5.5195312 C 29.059844 -6.0395307 28.919922 -6.6290632 28.919922 -7.2890625 C 28.919922 -7.9690618 29.059844 -8.5698443 29.339844 -9.0898438 C 29.639843 -9.6098432 30.029766 -10.009063 30.509766 -10.289062 C 31.009765 -10.589062 31.580704 -10.740234 32.220703 -10.740234 z " />
    </g>
  </g>
</svg>
