<?xml version="1.0" encoding="UTF-8" standalone="no"?>
<svg
   width="98"
   height="43"
   viewBox="0 0 98 43"
   version="1.1"
   id="svg17"
   sodipodi:docname="ib-navbutton-in.svg"
   inkscape:version="1.2.2 (732a01da63, 2022-12-09)"
   xmlns:inkscape="http://www.inkscape.org/namespaces/inkscape"
   xmlns:sodipodi="http://sodipodi.sourceforge.net/DTD/sodipodi-0.dtd"
   xmlns="http://www.w3.org/2000/svg"
   xmlns:svg="http://www.w3.org/2000/svg">
  <defs
     id="defs21" />
  <sodipodi:namedview
     id="namedview19"
     pagecolor="#505050"
     bordercolor="#eeeeee"
     borderopacity="1"
     inkscape:showpageshadow="0"
     inkscape:pageopacity="0"
     inkscape:pagecheckerboard="0"
     inkscape:deskcolor="#505050"
     showgrid="false"
     inkscape:zoom="7.62"
     inkscape:cx="40.288714"
     inkscape:cy="9.1863517"
     inkscape:window-width="1920"
     inkscape:window-height="1027"
     inkscape:window-x="-8"
     inkscape:window-y="-8"
     inkscape:window-maximized="1"
     inkscape:current-layer="svg17" />
  <style
     id="style9">
    /*@import url(&quot;https://fonts.googleapis.com/css2?family=Outfit:wght@600;700&quot;);*/
    text { font: 700 30px Outfit, Outfit Thin; fill: #00f; }
  </style>
  <rect
     id="rect11" />
  <!--<image href="https://inkbunny.net/images80/latest.png" style="filter: brightness(0.5)" />-->
  <g
     id="g15">
    <g
       aria-label="Profile"
       id="text13"
       style="font-weight:700;font-size:30px;font-family:'Outfit Thin';-inkscape-font-specification:'Outfit Thin, @wght=700';font-variation-settings:'wght' 700;fill:#0000ff">
      <path
         id="path297"
         d="M 57.810547 -22.109375 C 56.550548 -22.109375 55.459062 -21.840781 54.539062 -21.300781 C 53.639063 -20.780782 52.939453 -20.069921 52.439453 -19.169922 C 51.939454 -18.269923 51.689453 -17.260624 51.689453 -16.140625 L 51.689453 -14.580078 L 48.480469 -14.580078 L 48.480469 -10.679688 L 51.689453 -10.679688 L 51.689453 0 L 56.279297 0 L 56.279297 -10.679688 L 61.230469 -10.679688 L 61.230469 0 L 65.820312 0 L 65.820312 -14.580078 L 63.150391 -14.580078 L 56.279297 -14.580078 L 56.279297 -16.380859 C 56.279297 -16.880859 56.409922 -17.270782 56.669922 -17.550781 C 56.929922 -17.850781 57.310547 -18 57.810547 -18 C 58.030547 -18 58.230156 -17.970156 58.410156 -17.910156 C 58.610156 -17.850156 58.809766 -17.749375 59.009766 -17.609375 L 61.289062 -20.970703 C 60.769063 -21.370703 60.229921 -21.659844 59.669922 -21.839844 C 59.109922 -22.019844 58.490546 -22.109375 57.810547 -22.109375 z M 69.029297 -21.779297 L 69.029297 0 L 73.619141 0 L 73.619141 -21.779297 L 69.029297 -21.779297 z M 2.0390625 -21.179688 L 2.0390625 0 L 6.75 0 L 6.75 -7.7109375 L 10.890625 -7.7109375 C 12.230624 -7.7109375 13.439532 -7.9795318 14.519531 -8.5195312 C 15.59953 -9.0795307 16.450313 -9.859376 17.070312 -10.859375 C 17.710312 -11.879374 18.029297 -13.080939 18.029297 -14.460938 C 18.029297 -15.840936 17.710312 -17.029298 17.070312 -18.029297 C 16.450313 -19.049296 15.59953 -19.829141 14.519531 -20.369141 C 13.439532 -20.90914 12.230624 -21.179688 10.890625 -21.179688 L 6.75 -21.179688 L 2.0390625 -21.179688 z M 63.539062 -20.460938 C 62.859063 -20.460937 62.290078 -20.229531 61.830078 -19.769531 C 61.390079 -19.309532 61.169922 -18.740546 61.169922 -18.060547 C 61.169922 -17.380548 61.390079 -16.800312 61.830078 -16.320312 C 62.290078 -15.860313 62.859063 -15.630859 63.539062 -15.630859 C 64.239062 -15.630859 64.81 -15.860313 65.25 -16.320312 C 65.69 -16.800312 65.910156 -17.380548 65.910156 -18.060547 C 65.910156 -18.740546 65.69 -19.309532 65.25 -19.769531 C 64.81 -20.229531 64.239062 -20.460937 63.539062 -20.460938 z M 6.75 -17.519531 L 10.199219 -17.519531 C 10.779218 -17.519531 11.309063 -17.400156 11.789062 -17.160156 C 12.269062 -16.920156 12.649688 -16.569375 12.929688 -16.109375 C 13.209687 -15.649375 13.349609 -15.100937 13.349609 -14.460938 C 13.349609 -13.800938 13.209687 -13.239296 12.929688 -12.779297 C 12.649688 -12.319297 12.269062 -11.970469 11.789062 -11.730469 C 11.309063 -11.490469 10.779218 -11.369141 10.199219 -11.369141 L 6.75 -11.369141 L 6.75 -17.519531 z M 39.869141 -14.910156 C 38.349142 -14.910156 36.989061 -14.570624 35.789062 -13.890625 C 34.589064 -13.230626 33.639452 -12.329452 32.939453 -11.189453 C 32.239454 -10.049454 31.890625 -8.7603111 31.890625 -7.3203125 C 31.890625 -5.8803139 32.239454 -4.5799207 32.939453 -3.4199219 C 33.639452 -2.259923 34.589064 -1.3401556 35.789062 -0.66015625 C 37.009061 -0.00015691 38.369142 0.33007812 39.869141 0.33007812 C 41.389139 0.33007813 42.74922 -0.00015691 43.949219 -0.66015625 C 45.149218 -1.3401556 46.100782 -2.259923 46.800781 -3.4199219 C 47.500781 -4.5799207 47.849609 -5.8803139 47.849609 -7.3203125 C 47.849609 -8.7603111 47.500781 -10.049454 46.800781 -11.189453 C 46.100782 -12.349452 45.149218 -13.259923 43.949219 -13.919922 C 42.74922 -14.579921 41.389139 -14.910156 39.869141 -14.910156 z M 83.730469 -14.910156 C 82.25047 -14.910156 80.920233 -14.579921 79.740234 -13.919922 C 78.560236 -13.259923 77.619921 -12.349452 76.919922 -11.189453 C 76.239923 -10.049454 75.900391 -8.749061 75.900391 -7.2890625 C 75.900391 -5.829064 76.249219 -4.5193738 76.949219 -3.359375 C 77.649218 -2.1993762 78.610079 -1.2908587 79.830078 -0.63085938 C 81.070077 0.009139985 82.480548 0.33007812 84.060547 0.33007812 C 85.280546 0.33007813 86.399923 0.11921833 87.419922 -0.30078125 C 88.439921 -0.72078083 89.309298 -1.349454 90.029297 -2.1894531 L 87.509766 -4.7109375 C 87.069766 -4.210938 86.560468 -3.8303122 85.980469 -3.5703125 C 85.400469 -3.3303127 84.749296 -3.2109375 84.029297 -3.2109375 C 83.249298 -3.2109375 82.570234 -3.3694534 81.990234 -3.6894531 C 81.430235 -4.0294528 80.989922 -4.49961 80.669922 -5.0996094 C 80.56924 -5.3076852 80.486814 -5.5305176 80.419922 -5.765625 L 90.869141 -5.7890625 C 90.949141 -6.1690621 90.999531 -6.4992972 91.019531 -6.7792969 C 91.059531 -7.0792966 91.080078 -7.3591409 91.080078 -7.6191406 C 91.080078 -9.0391392 90.75914 -10.300392 90.119141 -11.400391 C 89.499141 -12.50039 88.639061 -13.360469 87.539062 -13.980469 C 86.439064 -14.600468 85.170467 -14.910156 83.730469 -14.910156 z M 28.800781 -14.880859 C 27.200783 -14.880859 25.95078 -14.410702 25.050781 -13.470703 L 25.050781 -14.580078 L 20.460938 -14.580078 L 20.460938 0 L 25.050781 0 L 25.050781 -8.0097656 C 25.050781 -8.9497647 25.270938 -9.6493755 25.710938 -10.109375 C 26.170937 -10.589375 26.779063 -10.830078 27.539062 -10.830078 C 27.919062 -10.830078 28.260547 -10.770391 28.560547 -10.650391 C 28.860547 -10.530391 29.110547 -10.360625 29.310547 -10.140625 L 32.039062 -13.589844 C 31.639063 -14.029843 31.170859 -14.350781 30.630859 -14.550781 C 30.11086 -14.770781 29.500781 -14.880859 28.800781 -14.880859 z M 83.759766 -11.400391 C 84.439765 -11.400391 85.010704 -11.249218 85.470703 -10.949219 C 85.950703 -10.669219 86.310781 -10.249453 86.550781 -9.6894531 C 86.651035 -9.4638813 86.731103 -9.211514 86.792969 -8.9335938 L 80.423828 -8.9160156 C 80.483522 -9.1255933 80.554343 -9.3248764 80.640625 -9.5097656 C 80.940625 -10.109765 81.349141 -10.570625 81.869141 -10.890625 C 82.40914 -11.230625 83.039766 -11.400391 83.759766 -11.400391 z M 39.869141 -10.740234 C 40.52914 -10.740234 41.100079 -10.589062 41.580078 -10.289062 C 42.080078 -10.009063 42.47 -9.6098432 42.75 -9.0898438 C 43.03 -8.5898443 43.169922 -8.0003118 43.169922 -7.3203125 C 43.169922 -6.6403132 43.03 -6.0302338 42.75 -5.4902344 C 42.49 -4.9702349 42.109375 -4.5597653 41.609375 -4.2597656 C 41.109376 -3.9797659 40.52914 -3.8398438 39.869141 -3.8398438 C 39.229141 -3.8398437 38.660156 -3.9797659 38.160156 -4.2597656 C 37.660157 -4.5597653 37.270234 -4.9702349 36.990234 -5.4902344 C 36.710235 -6.0302338 36.570312 -6.6290632 36.570312 -7.2890625 C 36.570312 -7.9690618 36.710235 -8.5698443 36.990234 -9.0898438 C 37.270234 -9.6098432 37.660157 -10.009063 38.160156 -10.289062 C 38.660156 -10.589062 39.229141 -10.740234 39.869141 -10.740234 z " />
    </g>
  </g>
</svg>
