<?xml version="1.0" encoding="UTF-8" standalone="no"?>
<svg
   width="98"
   height="43"
   viewBox="0 0 98 43"
   version="1.1"
   id="svg17"
   sodipodi:docname="ib-navbutton-in.svg"
   inkscape:version="1.2.2 (732a01da63, 2022-12-09)"
   xmlns:inkscape="http://www.inkscape.org/namespaces/inkscape"
   xmlns:sodipodi="http://sodipodi.sourceforge.net/DTD/sodipodi-0.dtd"
   xmlns="http://www.w3.org/2000/svg"
   xmlns:svg="http://www.w3.org/2000/svg">
  <defs
     id="defs21" />
  <sodipodi:namedview
     id="namedview19"
     pagecolor="#505050"
     bordercolor="#eeeeee"
     borderopacity="1"
     inkscape:showpageshadow="0"
     inkscape:pageopacity="0"
     inkscape:pagecheckerboard="0"
     inkscape:deskcolor="#505050"
     showgrid="false"
     inkscape:zoom="7.62"
     inkscape:cx="40.288714"
     inkscape:cy="9.1863517"
     inkscape:window-width="1920"
     inkscape:window-height="1027"
     inkscape:window-x="-8"
     inkscape:window-y="-8"
     inkscape:window-maximized="1"
     inkscape:current-layer="svg17" />
  <style
     id="style9">
    /*@import url(&quot;https://fonts.googleapis.com/css2?family=Outfit:wght@600;700&quot;);*/
    text { font: 700 30px Outfit, Outfit Thin; fill: #00f; }
  </style>
  <rect
     id="rect11" />
  <!--<image href="https://inkbunny.net/images80/latest.png" style="filter: brightness(0.5)" />-->
  <g
     id="g15">
    <g
       aria-label="Messages"
       id="text13"
       style="font-weight:700;font-size:30px;font-family:'Outfit Thin';-inkscape-font-specification:'Outfit Thin, @wght=700';font-variation-settings:'wght' 700;fill:#0000ff">
      <path
         id="path269"
         d="M 2.0390625 -21.179688 L 2.0390625 0 L 6.7207031 0 L 6.7207031 -11.75 L 11.310547 -4.5605469 L 14.429688 -4.5605469 L 19.019531 -11.710938 L 19.019531 0 L 23.730469 0 L 23.730469 -21.179688 L 20.339844 -21.179688 L 12.882812 -9.5234375 L 5.4003906 -21.179688 L 2.0390625 -21.179688 z M 49.349609 -15 C 48.169611 -15 47.139765 -14.80039 46.259766 -14.400391 C 45.379767 -14.000391 44.700703 -13.449999 44.220703 -12.75 C 43.740704 -12.070001 43.5 -11.260312 43.5 -10.320312 C 43.5 -9.4403134 43.669766 -8.7108588 44.009766 -8.1308594 C 44.349765 -7.5708599 44.790079 -7.1305466 45.330078 -6.8105469 C 45.870078 -6.4905472 46.439063 -6.2405467 47.039062 -6.0605469 C 47.639062 -5.8805471 48.210001 -5.7107811 48.75 -5.5507812 C 49.289999 -5.4107814 49.730313 -5.2390623 50.070312 -5.0390625 C 50.430312 -4.8590627 50.609375 -4.5904684 50.609375 -4.2304688 C 50.609375 -3.950469 50.460156 -3.7303123 50.160156 -3.5703125 C 49.880157 -3.4103127 49.469687 -3.3300781 48.929688 -3.3300781 C 48.149688 -3.3300781 47.429531 -3.4700003 46.769531 -3.75 C 46.109532 -4.0499997 45.540546 -4.4604693 45.060547 -4.9804688 L 42.449219 -2.3398438 C 42.949218 -1.7998443 43.550001 -1.3203902 44.25 -0.90039062 C 44.969999 -0.50039103 45.740548 -0.19070291 46.560547 0.029296875 C 47.400546 0.24929666 48.249376 0.359375 49.109375 0.359375 C 50.929373 0.359375 52.369689 -0.060391465 53.429688 -0.90039062 C 54.509686 -1.7403898 55.050781 -2.8690639 55.050781 -4.2890625 C 55.050781 -5.2090616 54.879062 -5.9497662 54.539062 -6.5097656 C 54.199063 -7.089765 53.760703 -7.5506253 53.220703 -7.890625 C 52.680704 -8.2306247 52.109765 -8.4992189 51.509766 -8.6992188 C 50.909766 -8.8992185 50.340781 -9.0709376 49.800781 -9.2109375 C 49.260782 -9.3509374 48.820468 -9.5094533 48.480469 -9.6894531 C 48.140469 -9.8694529 47.970703 -10.110157 47.970703 -10.410156 C 47.970703 -10.690156 48.099375 -10.899063 48.359375 -11.039062 C 48.619375 -11.199062 49.009297 -11.279297 49.529297 -11.279297 C 50.069296 -11.279297 50.619688 -11.169219 51.179688 -10.949219 C 51.759687 -10.729219 52.280235 -10.350546 52.740234 -9.8105469 L 55.349609 -12.449219 C 54.68961 -13.289218 53.82953 -13.919844 52.769531 -14.339844 C 51.729532 -14.779843 50.589608 -15 49.349609 -15 z M 63.089844 -15 C 61.909845 -15 60.879999 -14.80039 60 -14.400391 C 59.120001 -14.000391 58.440937 -13.449999 57.960938 -12.75 C 57.480938 -12.070001 57.240234 -11.260312 57.240234 -10.320312 C 57.240234 -9.4403134 57.41 -8.7108588 57.75 -8.1308594 C 58.09 -7.5708599 58.530313 -7.1305466 59.070312 -6.8105469 C 59.610312 -6.4905472 60.179297 -6.2405467 60.779297 -6.0605469 C 61.379296 -5.8805471 61.950235 -5.7107811 62.490234 -5.5507812 C 63.030234 -5.4107814 63.470547 -5.2390623 63.810547 -5.0390625 C 64.170547 -4.8590627 64.349609 -4.5904684 64.349609 -4.2304688 C 64.349609 -3.950469 64.20039 -3.7303123 63.900391 -3.5703125 C 63.620391 -3.4103127 63.209921 -3.3300781 62.669922 -3.3300781 C 61.889923 -3.3300781 61.169765 -3.4700003 60.509766 -3.75 C 59.849766 -4.0499997 59.280781 -4.4604693 58.800781 -4.9804688 L 56.189453 -2.3398438 C 56.689453 -1.7998443 57.290235 -1.3203902 57.990234 -0.90039062 C 58.710234 -0.50039103 59.480782 -0.19070291 60.300781 0.029296875 C 61.14078 0.24929666 61.98961 0.359375 62.849609 0.359375 C 64.669608 0.359375 66.109923 -0.060391465 67.169922 -0.90039062 C 68.249921 -1.7403898 68.789062 -2.8690639 68.789062 -4.2890625 C 68.789063 -5.2090616 68.619297 -5.9497662 68.279297 -6.5097656 C 67.939297 -7.089765 67.500937 -7.5506253 66.960938 -7.890625 C 66.420938 -8.2306247 65.849999 -8.4992189 65.25 -8.6992188 C 64.650001 -8.8992185 64.079062 -9.0709376 63.539062 -9.2109375 C 62.999063 -9.3509374 62.560703 -9.5094533 62.220703 -9.6894531 C 61.880703 -9.8694529 61.710938 -10.110157 61.710938 -10.410156 C 61.710937 -10.690156 61.83961 -10.899063 62.099609 -11.039062 C 62.359609 -11.199062 62.749532 -11.279297 63.269531 -11.279297 C 63.809531 -11.279297 64.359922 -11.169219 64.919922 -10.949219 C 65.499921 -10.729219 66.020469 -10.350546 66.480469 -9.8105469 L 69.089844 -12.449219 C 68.429844 -13.289218 67.569765 -13.919844 66.509766 -14.339844 C 65.469767 -14.779843 64.329843 -15 63.089844 -15 z M 128.64062 -15 C 127.46063 -15 126.43078 -14.80039 125.55078 -14.400391 C 124.67078 -14.000391 123.98977 -13.449999 123.50977 -12.75 C 123.02977 -12.070001 122.78906 -11.260312 122.78906 -10.320312 C 122.78906 -9.4403134 122.96078 -8.7108588 123.30078 -8.1308594 C 123.64078 -7.5708599 124.07914 -7.1305466 124.61914 -6.8105469 C 125.15914 -6.4905472 125.73008 -6.2405467 126.33008 -6.0605469 C 126.93008 -5.8805471 127.49906 -5.7107811 128.03906 -5.5507812 C 128.57906 -5.4107814 129.01938 -5.2390623 129.35938 -5.0390625 C 129.71937 -4.8590627 129.90039 -4.5904684 129.90039 -4.2304688 C 129.90039 -3.950469 129.74922 -3.7303123 129.44922 -3.5703125 C 129.16922 -3.4103127 128.7607 -3.3300781 128.2207 -3.3300781 C 127.4407 -3.3300781 126.72055 -3.4700003 126.06055 -3.75 C 125.40055 -4.0499997 124.82961 -4.4604693 124.34961 -4.9804688 L 121.74023 -2.3398438 C 122.24023 -1.7998443 122.83906 -1.3203902 123.53906 -0.90039062 C 124.25906 -0.50039103 125.02961 -0.19070291 125.84961 0.029296875 C 126.68961 0.24929666 127.54039 0.359375 128.40039 0.359375 C 130.22039 0.359375 131.6607 -0.060391465 132.7207 -0.90039062 C 133.8007 -1.7403898 134.33984 -2.8690639 134.33984 -4.2890625 C 134.33984 -5.2090616 134.17008 -5.9497662 133.83008 -6.5097656 C 133.49008 -7.089765 133.04977 -7.5506253 132.50977 -7.890625 C 131.96977 -8.2306247 131.40078 -8.4992189 130.80078 -8.6992188 C 130.20078 -8.8992185 129.62984 -9.0709376 129.08984 -9.2109375 C 128.54984 -9.3509374 128.10953 -9.5094533 127.76953 -9.6894531 C 127.42953 -9.8694529 127.25977 -10.110157 127.25977 -10.410156 C 127.25977 -10.690156 127.39039 -10.899063 127.65039 -11.039062 C 127.91039 -11.199062 128.30031 -11.279297 128.82031 -11.279297 C 129.36031 -11.279297 129.9107 -11.169219 130.4707 -10.949219 C 131.0507 -10.729219 131.5693 -10.350546 132.0293 -9.8105469 L 134.64062 -12.449219 C 133.98063 -13.289218 133.12055 -13.919844 132.06055 -14.339844 C 131.02055 -14.779843 129.88062 -15 128.64062 -15 z M 34.230469 -14.910156 C 32.75047 -14.910156 31.420233 -14.579921 30.240234 -13.919922 C 29.060236 -13.259923 28.119921 -12.349452 27.419922 -11.189453 C 26.739923 -10.049454 26.400391 -8.749061 26.400391 -7.2890625 C 26.400391 -5.829064 26.749219 -4.5193738 27.449219 -3.359375 C 28.149218 -2.1993762 29.110079 -1.2908587 30.330078 -0.63085938 C 31.570077 0.009139985 32.980548 0.33007812 34.560547 0.33007812 C 35.780546 0.33007813 36.899923 0.11921833 37.919922 -0.30078125 C 38.939921 -0.72078083 39.809298 -1.349454 40.529297 -2.1894531 L 38.009766 -4.7109375 C 37.569766 -4.210938 37.060468 -3.8303122 36.480469 -3.5703125 C 35.900469 -3.3303127 35.249296 -3.2109375 34.529297 -3.2109375 C 33.749298 -3.2109375 33.070234 -3.3694534 32.490234 -3.6894531 C 31.930235 -4.0294528 31.489922 -4.49961 31.169922 -5.0996094 C 31.06924 -5.3076852 30.986814 -5.5305176 30.919922 -5.765625 L 41.369141 -5.7890625 C 41.449141 -6.1690621 41.499531 -6.4992972 41.519531 -6.7792969 C 41.559531 -7.0792966 41.580078 -7.3591409 41.580078 -7.6191406 C 41.580078 -9.0391392 41.25914 -10.300392 40.619141 -11.400391 C 39.999141 -12.50039 39.139061 -13.360469 38.039062 -13.980469 C 36.939064 -14.600468 35.670467 -14.910156 34.230469 -14.910156 z M 113.51953 -14.910156 C 112.03953 -14.910156 110.7093 -14.579921 109.5293 -13.919922 C 108.3493 -13.259923 107.41094 -12.349452 106.71094 -11.189453 C 106.03094 -10.049454 105.68945 -8.749061 105.68945 -7.2890625 C 105.68945 -5.829064 106.04024 -4.5193738 106.74023 -3.359375 C 107.44023 -2.1993762 108.39914 -1.2908587 109.61914 -0.63085938 C 110.85914 0.009139985 112.26961 0.33007812 113.84961 0.33007812 C 115.06961 0.33007813 116.19094 0.11921833 117.21094 -0.30078125 C 118.23094 -0.72078083 119.10031 -1.349454 119.82031 -2.1894531 L 117.30078 -4.7109375 C 116.86078 -4.210938 116.34953 -3.8303122 115.76953 -3.5703125 C 115.18953 -3.3303127 114.54031 -3.2109375 113.82031 -3.2109375 C 113.04031 -3.2109375 112.3593 -3.3694534 111.7793 -3.6894531 C 111.2193 -4.0294528 110.78094 -4.49961 110.46094 -5.0996094 C 110.36031 -5.3075763 110.27781 -5.5306548 110.21094 -5.765625 L 120.66016 -5.7890625 C 120.74016 -6.1690621 120.79055 -6.4992972 120.81055 -6.7792969 C 120.85055 -7.0792966 120.86914 -7.3591409 120.86914 -7.6191406 C 120.86914 -9.0391392 120.55016 -10.300392 119.91016 -11.400391 C 119.29016 -12.50039 118.43008 -13.360469 117.33008 -13.980469 C 116.23008 -14.600468 114.95953 -14.910156 113.51953 -14.910156 z M 77.369141 -14.880859 C 76.029142 -14.880859 74.82953 -14.550624 73.769531 -13.890625 C 72.729532 -13.230626 71.899296 -12.329452 71.279297 -11.189453 C 70.679297 -10.049454 70.380859 -8.749061 70.380859 -7.2890625 C 70.380859 -5.829064 70.679297 -4.5306239 71.279297 -3.390625 C 71.899296 -2.2506261 72.729532 -1.3494525 73.769531 -0.68945312 C 74.82953 -0.029453785 76.029142 0.30078125 77.369141 0.30078125 C 78.34914 0.30078125 79.239063 0.11046837 80.039062 -0.26953125 C 80.557079 -0.51558887 81.006779 -0.82209012 81.390625 -1.1855469 L 81.390625 0 L 85.890625 0 L 85.890625 -14.580078 L 81.390625 -14.580078 L 81.390625 -13.365234 C 80.994545 -13.74434 80.535315 -14.060911 80.009766 -14.310547 C 79.229766 -14.690546 78.34914 -14.880859 77.369141 -14.880859 z M 95.099609 -14.880859 C 93.759611 -14.880859 92.569296 -14.559921 91.529297 -13.919922 C 90.489298 -13.299922 89.670312 -12.439843 89.070312 -11.339844 C 88.470313 -10.259845 88.169922 -9.0396861 88.169922 -7.6796875 C 88.169922 -6.3396888 88.470313 -5.1195302 89.070312 -4.0195312 C 89.670312 -2.9195324 90.489298 -2.0501556 91.529297 -1.4101562 C 92.569296 -0.77015689 93.759611 -0.44921875 95.099609 -0.44921875 C 96.079608 -0.44921875 96.969532 -0.63953163 97.769531 -1.0195312 C 98.157893 -1.2040032 98.507363 -1.4233701 98.820312 -1.6738281 L 98.820312 -0.75 C 98.820313 0.26999898 98.490077 1.0591412 97.830078 1.6191406 C 97.190079 2.1791401 96.300155 2.4609375 95.160156 2.4609375 C 94.240157 2.4609375 93.449062 2.3004684 92.789062 1.9804688 C 92.149063 1.6604691 91.570781 1.1903119 91.050781 0.5703125 L 88.230469 3.390625 C 88.930468 4.390624 89.880079 5.1592193 91.080078 5.6992188 C 92.300077 6.2592182 93.710548 6.5390625 95.310547 6.5390625 C 96.870545 6.5390625 98.26047 6.2293744 99.480469 5.609375 C 100.70046 4.9893756 101.65938 4.1292958 102.35938 3.0292969 C 103.05937 1.929298 103.41016 0.63085788 103.41016 -0.86914062 L 103.41016 -14.580078 L 98.910156 -14.580078 L 98.910156 -13.597656 C 98.574888 -13.880104 98.195543 -14.118842 97.769531 -14.310547 C 96.989532 -14.690546 96.099608 -14.880859 95.099609 -14.880859 z M 34.259766 -11.400391 C 34.939765 -11.400391 35.510704 -11.249218 35.970703 -10.949219 C 36.450703 -10.669219 36.810781 -10.249453 37.050781 -9.6894531 C 37.151035 -9.4638813 37.231103 -9.211514 37.292969 -8.9335938 L 30.923828 -8.9160156 C 30.983522 -9.1255933 31.054343 -9.3248764 31.140625 -9.5097656 C 31.440625 -10.109765 31.849141 -10.570625 32.369141 -10.890625 C 32.90914 -11.230625 33.539766 -11.400391 34.259766 -11.400391 z M 113.55078 -11.400391 C 114.23078 -11.400391 114.79977 -11.249218 115.25977 -10.949219 C 115.73977 -10.669219 116.09984 -10.249453 116.33984 -9.6894531 C 116.44007 -9.4639521 116.52017 -9.2114104 116.58203 -8.9335938 L 110.21289 -8.9160156 C 110.27258 -9.1255933 110.34341 -9.3248764 110.42969 -9.5097656 C 110.72969 -10.109765 111.14016 -10.570625 111.66016 -10.890625 C 112.20016 -11.230625 112.83078 -11.400391 113.55078 -11.400391 z M 95.970703 -10.859375 C 96.610702 -10.859375 97.159141 -10.719453 97.619141 -10.439453 C 98.09914 -10.159453 98.459219 -9.7807808 98.699219 -9.3007812 C 98.959218 -8.8207817 99.089844 -8.2796869 99.089844 -7.6796875 C 99.089844 -7.0796881 98.959218 -6.5405464 98.699219 -6.0605469 C 98.459219 -5.6005473 98.09914 -5.2292185 97.619141 -4.9492188 C 97.159141 -4.669219 96.610702 -4.5292969 95.970703 -4.5292969 C 95.330704 -4.5292969 94.769062 -4.669219 94.289062 -4.9492188 C 93.829063 -5.2292185 93.470937 -5.6098442 93.210938 -6.0898438 C 92.950938 -6.5898432 92.820312 -7.1196881 92.820312 -7.6796875 C 92.820313 -8.2796869 92.950938 -8.8207817 93.210938 -9.3007812 C 93.470937 -9.7807808 93.840313 -10.159453 94.320312 -10.439453 C 94.800312 -10.719453 95.350704 -10.859375 95.970703 -10.859375 z M 78.330078 -10.740234 C 78.970077 -10.740234 79.529766 -10.589062 80.009766 -10.289062 C 80.509765 -10.009063 80.890391 -9.6098432 81.150391 -9.0898438 C 81.43039 -8.5698443 81.570312 -7.9690618 81.570312 -7.2890625 C 81.570312 -6.2890635 81.269921 -5.4607806 80.669922 -4.8007812 C 80.069922 -4.1607819 79.28078 -3.8398438 78.300781 -3.8398438 C 77.680782 -3.8398437 77.11914 -3.9890628 76.619141 -4.2890625 C 76.119141 -4.5890622 75.729218 -4.9995318 75.449219 -5.5195312 C 75.169219 -6.0395307 75.029297 -6.6290632 75.029297 -7.2890625 C 75.029297 -7.9690618 75.169219 -8.5698443 75.449219 -9.0898438 C 75.749218 -9.6098432 76.139141 -10.009063 76.619141 -10.289062 C 77.11914 -10.589062 77.690079 -10.740234 78.330078 -10.740234 z " />
    </g>
  </g>
</svg>
