<svg width="324" height="98" xmlns="http://www.w3.org/2000/svg">
  <style>
    @import url("https://fonts.googleapis.com/css2?family=Outfit:wght@600;700");
    text { font: 700 71px Outfit, Verdana; transform: scaleY(0.9) rotate(-10deg); transform-origin: 50% 50%; filter: url(#shadow); }
    path { fill: #fff; transform: scaleY(0.9) rotate(-10deg); transform-origin: 50% 50%; filter: url(#shadow); }
  </style>
  <defs>
    <filter id="shadow" x="-10%" y="-10%" width="120%" height="120%">
      <feDropShadow dx="0" dy="0" stdDeviation="5" flood-color="#000" flood-opacity="0.3" />
    </filter>
  </defs>
  <!--<image href="https://inkbunny.net/images80/elephant/logo/text.png" style="filter: brightness(0)" />-->
  <!--<text x="8" y="67" fill="#fff" filter="url(#shadow)">Inkbunny</text>-->
  <path d="M 12.828 67 L 12.828 16.874 L 23.975 16.874 L 23.975 67 Z M 55.426 67 L 55.426 47.333 Q 55.426 44.635 53.757 42.966 Q 52.089 41.298 49.533 41.298 Q 47.758 41.298 46.409 42.043 Q 45.06 42.789 44.279 44.173 Q 43.498 45.558 43.498 47.333 L 39.309 45.274 Q 39.309 41.227 41.084 38.174 Q 42.859 35.121 46.018 33.452 Q 49.178 31.784 53.154 31.784 Q 56.988 31.784 59.934 33.594 Q 62.881 35.405 64.585 38.387 Q 66.289 41.369 66.289 44.919 L 66.289 67 Z M 32.635 67 L 32.635 32.494 L 43.498 32.494 L 43.498 67 Z M 95.327 67 L 83.257 49.108 L 95.256 32.494 L 107.397 32.494 L 92.913 51.167 L 93.268 46.694 L 108.107 67 Z M 73.246 67 L 73.246 15.454 L 84.109 15.454 L 84.109 67 Z M 131.893 67.71 Q 128.414 67.71 125.503 66.254 Q 122.592 64.799 120.746 62.349 Q 118.9 59.9 118.616 56.847 L 118.616 42.292 Q 118.9 39.239 120.746 36.86 Q 122.592 34.482 125.503 33.133 Q 128.414 31.784 131.893 31.784 Q 136.792 31.784 140.591 34.127 Q 144.389 36.47 146.555 40.517 Q 148.72 44.564 148.72 49.747 Q 148.72 54.93 146.555 58.977 Q 144.389 63.024 140.591 65.367 Q 136.792 67.71 131.893 67.71 Z M 112.013 67 L 112.013 15.454 L 122.876 15.454 L 122.876 40.943 L 121.101 49.321 L 122.734 57.699 L 122.734 67 Z M 129.976 57.912 Q 132.248 57.912 133.988 56.847 Q 135.727 55.782 136.721 53.936 Q 137.715 52.09 137.715 49.747 Q 137.715 47.333 136.721 45.487 Q 135.727 43.641 133.988 42.611 Q 132.248 41.582 129.976 41.582 Q 127.704 41.582 125.929 42.611 Q 124.154 43.641 123.196 45.487 Q 122.237 47.333 122.237 49.747 Q 122.237 52.161 123.231 54.007 Q 124.225 55.853 125.965 56.882 Q 127.704 57.912 129.976 57.912 Z M 169.594 67.781 Q 164.837 67.781 161.18 65.828 Q 157.524 63.876 155.465 60.432 Q 153.406 56.989 153.406 52.516 L 153.406 32.494 L 164.269 32.494 L 164.269 52.374 Q 164.269 54.149 164.872 55.427 Q 165.476 56.705 166.683 57.415 Q 167.89 58.125 169.594 58.125 Q 172.008 58.125 173.428 56.598 Q 174.848 55.072 174.848 52.374 L 174.848 32.494 L 185.711 32.494 L 185.711 52.445 Q 185.711 56.989 183.652 60.432 Q 181.593 63.876 177.972 65.828 Q 174.351 67.781 169.594 67.781 Z M 215.316 67 L 215.316 47.333 Q 215.316 44.635 213.648 42.966 Q 211.979 41.298 209.423 41.298 Q 207.648 41.298 206.299 42.043 Q 204.95 42.789 204.169 44.173 Q 203.388 45.558 203.388 47.333 L 199.199 45.274 Q 199.199 41.227 200.974 38.174 Q 202.749 35.121 205.909 33.452 Q 209.068 31.784 213.044 31.784 Q 216.878 31.784 219.825 33.594 Q 222.771 35.405 224.475 38.387 Q 226.179 41.369 226.179 44.919 L 226.179 67 Z M 192.525 67 L 192.525 32.494 L 203.388 32.494 L 203.388 67 Z M 255.927 67 L 255.927 47.333 Q 255.927 44.635 254.259 42.966 Q 252.59 41.298 250.034 41.298 Q 248.259 41.298 246.91 42.043 Q 245.561 42.789 244.78 44.173 Q 243.999 45.558 243.999 47.333 L 239.81 45.274 Q 239.81 41.227 241.585 38.174 Q 243.36 35.121 246.52 33.452 Q 249.679 31.784 253.655 31.784 Q 257.489 31.784 260.436 33.594 Q 263.382 35.405 265.086 38.387 Q 266.79 41.369 266.79 44.919 L 266.79 67 Z M 233.136 67 L 233.136 32.494 L 243.999 32.494 L 243.999 67 Z M 284.397 67.142 L 270.197 32.494 L 281.912 32.494 L 290.929 59.971 L 286.598 59.971 L 295.828 32.494 L 307.543 32.494 L 292.775 67.142 Z M 275.522 81.555 L 285.888 59.19 L 292.775 67.142 L 286.669 81.555 Z" />
</svg>