<?xml version="1.0" encoding="UTF-8" standalone="no"?>
<svg
   width="98"
   height="43"
   viewBox="0 0 98 43"
   version="1.1"
   id="svg17"
   sodipodi:docname="ib-navbutton-in.svg"
   inkscape:version="1.2.2 (732a01da63, 2022-12-09)"
   xmlns:inkscape="http://www.inkscape.org/namespaces/inkscape"
   xmlns:sodipodi="http://sodipodi.sourceforge.net/DTD/sodipodi-0.dtd"
   xmlns="http://www.w3.org/2000/svg"
   xmlns:svg="http://www.w3.org/2000/svg">
  <defs
     id="defs21" />
  <sodipodi:namedview
     id="namedview19"
     pagecolor="#505050"
     bordercolor="#eeeeee"
     borderopacity="1"
     inkscape:showpageshadow="0"
     inkscape:pageopacity="0"
     inkscape:pagecheckerboard="0"
     inkscape:deskcolor="#505050"
     showgrid="false"
     inkscape:zoom="7.62"
     inkscape:cx="40.288714"
     inkscape:cy="9.1863517"
     inkscape:window-width="1920"
     inkscape:window-height="1027"
     inkscape:window-x="-8"
     inkscape:window-y="-8"
     inkscape:window-maximized="1"
     inkscape:current-layer="svg17" />
  <style
     id="style9">
    /*@import url(&quot;https://fonts.googleapis.com/css2?family=Outfit:wght@600;700&quot;);*/
    text { font: 700 30px Outfit, Outfit Thin; fill: #00f; }
  </style>
  <rect
     id="rect11" />
  <!--<image href="https://inkbunny.net/images80/latest.png" style="filter: brightness(0.5)" />-->
  <g
     id="g15">
    <g
       aria-label="Admin"
       id="text13"
       style="font-weight:700;font-size:30px;font-family:'Outfit Thin';-inkscape-font-specification:'Outfit Thin, @wght=700';font-variation-settings:'wght' 700;fill:#0000ff">
      <path
         id="path425"
         d="M 32.759766 -21.779297 L 32.759766 -13.632812 C 32.426747 -13.895231 32.057273 -14.121992 31.650391 -14.310547 C 30.850391 -14.690546 29.949218 -14.880859 28.949219 -14.880859 C 27.56922 -14.880859 26.339765 -14.550624 25.259766 -13.890625 C 24.199767 -13.230626 23.360234 -12.329452 22.740234 -11.189453 C 22.140235 -10.049454 21.839844 -8.749061 21.839844 -7.2890625 C 21.839844 -5.829064 22.140235 -4.5306239 22.740234 -3.390625 C 23.360234 -2.2506261 24.199767 -1.3494525 25.259766 -0.68945312 C 26.339765 -0.029453785 27.56922 0.30078125 28.949219 0.30078125 C 29.949218 0.30078125 30.859688 0.09921835 31.679688 -0.30078125 C 32.112012 -0.5222159 32.500675 -0.78051272 32.849609 -1.0742188 L 32.849609 0 L 37.349609 0 L 37.349609 -21.779297 L 32.759766 -21.779297 z M 69.089844 -21.630859 C 68.369844 -21.630859 67.769062 -21.390156 67.289062 -20.910156 C 66.829063 -20.430157 66.599609 -19.829374 66.599609 -19.109375 C 66.599609 -18.409376 66.829063 -17.810546 67.289062 -17.310547 C 67.769062 -16.830547 68.369844 -16.589844 69.089844 -16.589844 C 69.809843 -16.589844 70.399375 -16.830547 70.859375 -17.310547 C 71.319375 -17.810546 71.550781 -18.409376 71.550781 -19.109375 C 71.550781 -19.829374 71.319375 -20.430157 70.859375 -20.910156 C 70.399375 -21.390156 69.809843 -21.630859 69.089844 -21.630859 z M 8.8496094 -21.179688 L 0.44921875 0 L 5.3398438 0 L 6.7480469 -3.8398438 L 15.050781 -3.8398438 L 16.439453 0 L 21.419922 0 L 13.109375 -21.179688 L 8.8496094 -21.179688 z M 10.927734 -15.234375 L 13.662109 -7.6796875 L 8.15625 -7.6796875 L 10.927734 -15.234375 z M 49.109375 -14.880859 C 48.029376 -14.880859 47.059218 -14.649453 46.199219 -14.189453 C 45.824041 -13.997502 45.486351 -13.766125 45.179688 -13.498047 L 45.179688 -14.580078 L 40.589844 -14.580078 L 40.589844 0 L 45.179688 0 L 45.179688 -8.5195312 C 45.179688 -9.0195308 45.280469 -9.4392972 45.480469 -9.7792969 C 45.700469 -10.119297 45.98961 -10.380547 46.349609 -10.560547 C 46.709609 -10.760547 47.120079 -10.859375 47.580078 -10.859375 C 48.240077 -10.859375 48.790469 -10.650468 49.230469 -10.230469 C 49.690468 -9.8304691 49.919922 -9.2595305 49.919922 -8.5195312 L 49.919922 0 L 54.509766 0 L 54.509766 -8.5195312 C 54.509766 -9.0195308 54.610547 -9.4392972 54.810547 -9.7792969 C 55.030547 -10.119297 55.319688 -10.380547 55.679688 -10.560547 C 56.039687 -10.760547 56.450157 -10.859375 56.910156 -10.859375 C 57.570156 -10.859375 58.120547 -10.650468 58.560547 -10.230469 C 59.020546 -9.8304691 59.25 -9.2595305 59.25 -8.5195312 L 59.25 0 L 63.839844 0 L 63.839844 -9.0292969 C 63.839844 -10.249296 63.580546 -11.290391 63.060547 -12.150391 C 62.560547 -13.03039 61.870233 -13.700157 60.990234 -14.160156 C 60.130235 -14.640156 59.13953 -14.880859 58.019531 -14.880859 C 56.879532 -14.880859 55.849687 -14.630859 54.929688 -14.130859 C 54.332141 -13.812168 53.81095 -13.398367 53.363281 -12.894531 C 52.945898 -13.422082 52.438366 -13.853697 51.839844 -14.189453 C 51.039845 -14.649453 50.129374 -14.880859 49.109375 -14.880859 z M 83.279297 -14.880859 C 82.159298 -14.880859 81.149999 -14.640156 80.25 -14.160156 C 79.862237 -13.957462 79.5132 -13.713954 79.199219 -13.433594 L 79.199219 -14.580078 L 74.609375 -14.580078 L 74.609375 0 L 79.199219 0 L 79.199219 -8.3105469 C 79.199219 -8.8105464 79.309297 -9.2508598 79.529297 -9.6308594 C 79.749297 -10.030859 80.049688 -10.329297 80.429688 -10.529297 C 80.809687 -10.749297 81.25 -10.859375 81.75 -10.859375 C 82.469999 -10.859375 83.059532 -10.620625 83.519531 -10.140625 C 83.999531 -9.6806255 84.240234 -9.0705461 84.240234 -8.3105469 L 84.240234 0 L 88.830078 0 L 88.830078 -9.3300781 C 88.830078 -10.330077 88.589375 -11.249845 88.109375 -12.089844 C 87.629375 -12.929843 86.970859 -13.59961 86.130859 -14.099609 C 85.31086 -14.619609 84.359296 -14.880859 83.279297 -14.880859 z M 66.779297 -14.580078 L 66.779297 0 L 71.369141 0 L 71.369141 -14.580078 L 66.779297 -14.580078 z M 29.789062 -10.740234 C 30.429062 -10.740234 30.990704 -10.589062 31.470703 -10.289062 C 31.970703 -9.9890628 32.349375 -9.5805464 32.609375 -9.0605469 C 32.889375 -8.5605474 33.029297 -7.9690618 33.029297 -7.2890625 C 33.029297 -6.6090632 32.889375 -6.0102339 32.609375 -5.4902344 C 32.329375 -4.9702349 31.950703 -4.5597653 31.470703 -4.2597656 C 30.990704 -3.9797659 30.419765 -3.8398438 29.759766 -3.8398438 C 29.139766 -3.8398438 28.580078 -3.9890628 28.080078 -4.2890625 C 27.580079 -4.5890622 27.190156 -4.9995318 26.910156 -5.5195312 C 26.630157 -6.0395307 26.490234 -6.6290632 26.490234 -7.2890625 C 26.490234 -7.9490618 26.630157 -8.5405474 26.910156 -9.0605469 C 27.210156 -9.5805464 27.600079 -9.9890628 28.080078 -10.289062 C 28.580078 -10.589062 29.149063 -10.740234 29.789062 -10.740234 z " />
    </g>
  </g>
</svg>
