<?xml version="1.0" encoding="UTF-8" standalone="no"?>
<svg
   width="98"
   height="43"
   viewBox="0 0 98 43"
   version="1.1"
   id="svg17"
   sodipodi:docname="ib-navbutton-in.svg"
   inkscape:version="1.2.2 (732a01da63, 2022-12-09)"
   xmlns:inkscape="http://www.inkscape.org/namespaces/inkscape"
   xmlns:sodipodi="http://sodipodi.sourceforge.net/DTD/sodipodi-0.dtd"
   xmlns="http://www.w3.org/2000/svg"
   xmlns:svg="http://www.w3.org/2000/svg">
  <defs
     id="defs21" />
  <sodipodi:namedview
     id="namedview19"
     pagecolor="#505050"
     bordercolor="#eeeeee"
     borderopacity="1"
     inkscape:showpageshadow="0"
     inkscape:pageopacity="0"
     inkscape:pagecheckerboard="0"
     inkscape:deskcolor="#505050"
     showgrid="false"
     inkscape:zoom="7.62"
     inkscape:cx="40.288714"
     inkscape:cy="9.1863517"
     inkscape:window-width="1920"
     inkscape:window-height="1027"
     inkscape:window-x="-8"
     inkscape:window-y="-8"
     inkscape:window-maximized="1"
     inkscape:current-layer="svg17" />
  <style
     id="style9">
    /*@import url(&quot;https://fonts.googleapis.com/css2?family=Outfit:wght@600;700&quot;);*/
    text { font: 700 30px Outfit, Outfit Thin; fill: #00f; }
  </style>
  <rect
     id="rect11" />
  <!--<image href="https://inkbunny.net/images80/latest.png" style="filter: brightness(0.5)" />-->
  <g
     id="g15">
    <g
       aria-label="Stream"
       id="text13"
       style="font-weight:700;font-size:30px;font-family:'Outfit Thin';-inkscape-font-specification:'Outfit Thin, @wght=700';font-variation-settings:'wght' 700;fill:#0000ff">
      <path
         id="path501"
         d="M 9.359375 -21.509766 C 7.8993765 -21.509766 6.6102333 -21.259765 5.4902344 -20.759766 C 4.3702355 -20.279766 3.4896087 -19.570858 2.8496094 -18.630859 C 2.22961 -17.69086 1.9199219 -16.56953 1.9199219 -15.269531 C 1.9199219 -14.189532 2.1009379 -13.290312 2.4609375 -12.570312 C 2.8209371 -11.870313 3.2891412 -11.280781 3.8691406 -10.800781 C 4.46914 -10.340782 5.1203132 -9.9508591 5.8203125 -9.6308594 C 6.5203118 -9.3308597 7.2199226 -9.0603123 7.9199219 -8.8203125 C 8.6399212 -8.5803127 9.2891412 -8.3303122 9.8691406 -8.0703125 C 10.46914 -7.8103128 10.950547 -7.5006246 11.310547 -7.140625 C 11.670547 -6.7806254 11.849609 -6.3104682 11.849609 -5.7304688 C 11.849609 -5.0904694 11.569765 -4.5904684 11.009766 -4.2304688 C 10.469766 -3.8704691 9.6992177 -3.6894531 8.6992188 -3.6894531 C 7.5992199 -3.6894531 6.6290617 -3.9003129 5.7890625 -4.3203125 C 4.9690633 -4.7603121 4.2190618 -5.3703914 3.5390625 -6.1503906 L 0.48046875 -3.1191406 C 1.5204677 -1.9591418 2.6603919 -1.089765 3.9003906 -0.50976562 C 5.1603894 0.050233815 6.6603924 0.33007812 8.4003906 0.33007812 C 10.940388 0.33007813 12.929142 -0.24086052 14.369141 -1.3808594 C 15.809139 -2.5408582 16.529297 -4.1303926 16.529297 -6.1503906 C 16.529297 -7.2503895 16.350234 -8.170157 15.990234 -8.9101562 C 15.630235 -9.6701555 15.150781 -10.289532 14.550781 -10.769531 C 13.970782 -11.269531 13.330859 -11.68 12.630859 -12 C 11.93086 -12.32 11.219999 -12.599844 10.5 -12.839844 C 9.8000007 -13.079844 9.1507806 -13.320547 8.5507812 -13.560547 C 7.9707818 -13.800547 7.5006246 -14.080391 7.140625 -14.400391 C 6.7806254 -14.74039 6.5996094 -15.180704 6.5996094 -15.720703 C 6.5996094 -16.300703 6.840313 -16.739063 7.3203125 -17.039062 C 7.800312 -17.359062 8.4495321 -17.519531 9.2695312 -17.519531 C 10.08953 -17.519531 10.820938 -17.359062 11.460938 -17.039062 C 12.120937 -16.719063 12.770157 -16.230312 13.410156 -15.570312 L 16.470703 -18.599609 C 15.670704 -19.499608 14.650155 -20.210469 13.410156 -20.730469 C 12.190157 -21.250468 10.839374 -21.509766 9.359375 -21.509766 z M 21.179688 -20.609375 L 21.179688 -14.580078 L 17.880859 -14.580078 L 17.880859 -10.679688 L 21.179688 -10.679688 L 21.179688 0 L 25.769531 0 L 25.769531 -10.679688 L 29.070312 -10.679688 L 29.070312 -14.580078 L 25.769531 -14.580078 L 25.769531 -20.609375 L 21.179688 -20.609375 z M 50.339844 -14.910156 C 48.859845 -14.910156 47.529608 -14.579921 46.349609 -13.919922 C 45.169611 -13.259923 44.229296 -12.349452 43.529297 -11.189453 C 42.849298 -10.049454 42.509766 -8.749061 42.509766 -7.2890625 C 42.509766 -5.829064 42.860548 -4.5193738 43.560547 -3.359375 C 44.260546 -2.1993762 45.219454 -1.2908587 46.439453 -0.63085938 C 47.679452 0.009139985 49.089923 0.33007812 50.669922 0.33007812 C 51.889921 0.33007813 53.009298 0.11921833 54.029297 -0.30078125 C 55.049296 -0.72078083 55.920626 -1.349454 56.640625 -2.1894531 L 54.119141 -4.7109375 C 53.679141 -4.210938 53.169843 -3.8303122 52.589844 -3.5703125 C 52.009844 -3.3303127 51.360624 -3.2109375 50.640625 -3.2109375 C 49.860626 -3.2109375 49.179609 -3.3694534 48.599609 -3.6894531 C 48.03961 -4.0294528 47.599297 -4.49961 47.279297 -5.0996094 C 47.178668 -5.3075763 47.098125 -5.5306548 47.03125 -5.765625 L 57.480469 -5.7890625 C 57.560469 -6.1690621 57.610859 -6.4992972 57.630859 -6.7792969 C 57.670859 -7.0792966 57.689453 -7.3591409 57.689453 -7.6191406 C 57.689453 -9.0391392 57.370468 -10.300392 56.730469 -11.400391 C 56.110469 -12.50039 55.25039 -13.360469 54.150391 -13.980469 C 53.050392 -14.600468 51.779842 -14.910156 50.339844 -14.910156 z M 39.419922 -14.880859 C 37.819923 -14.880859 36.569921 -14.410702 35.669922 -13.470703 L 35.669922 -14.580078 L 31.080078 -14.580078 L 31.080078 0 L 35.669922 0 L 35.669922 -8.0097656 C 35.669922 -8.9497647 35.890079 -9.6493755 36.330078 -10.109375 C 36.790078 -10.589375 37.400157 -10.830078 38.160156 -10.830078 C 38.540156 -10.830078 38.879688 -10.770391 39.179688 -10.650391 C 39.479687 -10.530391 39.729688 -10.360625 39.929688 -10.140625 L 42.660156 -13.589844 C 42.260157 -14.029843 41.789999 -14.350781 41.25 -14.550781 C 40.730001 -14.770781 40.119921 -14.880859 39.419922 -14.880859 z M 66 -14.880859 C 64.660001 -14.880859 63.46039 -14.550624 62.400391 -13.890625 C 61.360392 -13.230626 60.530156 -12.329452 59.910156 -11.189453 C 59.310157 -10.049454 59.009766 -8.749061 59.009766 -7.2890625 C 59.009766 -5.829064 59.310157 -4.5306239 59.910156 -3.390625 C 60.530156 -2.2506261 61.360392 -1.3494525 62.400391 -0.68945312 C 63.46039 -0.029453785 64.660001 0.30078125 66 0.30078125 C 66.979999 0.30078125 67.869923 0.11046837 68.669922 -0.26953125 C 69.187116 -0.51519826 69.636082 -0.82090005 70.019531 -1.1835938 L 70.019531 0 L 74.519531 0 L 74.519531 -14.580078 L 70.019531 -14.580078 L 70.019531 -13.367188 C 69.623899 -13.745441 69.165294 -14.061329 68.640625 -14.310547 C 67.860626 -14.690546 66.979999 -14.880859 66 -14.880859 z M 86.279297 -14.880859 C 85.199298 -14.880859 84.22914 -14.649453 83.369141 -14.189453 C 82.993963 -13.997502 82.656273 -13.766125 82.349609 -13.498047 L 82.349609 -14.580078 L 77.759766 -14.580078 L 77.759766 0 L 82.349609 0 L 82.349609 -8.5195312 C 82.349609 -9.0195308 82.450391 -9.4392972 82.650391 -9.7792969 C 82.87039 -10.119297 83.159532 -10.380547 83.519531 -10.560547 C 83.879531 -10.760547 84.29 -10.859375 84.75 -10.859375 C 85.409999 -10.859375 85.960391 -10.650468 86.400391 -10.230469 C 86.86039 -9.8304691 87.089844 -9.2595305 87.089844 -8.5195312 L 87.089844 0 L 91.679688 0 L 91.679688 -8.5195312 C 91.679687 -9.0195308 91.780469 -9.4392972 91.980469 -9.7792969 C 92.200469 -10.119297 92.48961 -10.380547 92.849609 -10.560547 C 93.209609 -10.760547 93.620079 -10.859375 94.080078 -10.859375 C 94.740077 -10.859375 95.290469 -10.650468 95.730469 -10.230469 C 96.190468 -9.8304691 96.419922 -9.2595305 96.419922 -8.5195312 L 96.419922 0 L 101.00977 0 L 101.00977 -9.0292969 C 101.00977 -10.249296 100.75047 -11.290391 100.23047 -12.150391 C 99.730469 -13.03039 99.040155 -13.700157 98.160156 -14.160156 C 97.300157 -14.640156 96.309452 -14.880859 95.189453 -14.880859 C 94.049454 -14.880859 93.019608 -14.630859 92.099609 -14.130859 C 91.502062 -13.812168 90.980872 -13.398367 90.533203 -12.894531 C 90.11582 -13.422082 89.608288 -13.853697 89.009766 -14.189453 C 88.209766 -14.649453 87.299296 -14.880859 86.279297 -14.880859 z M 50.369141 -11.400391 C 51.04914 -11.400391 51.620079 -11.249218 52.080078 -10.949219 C 52.560078 -10.669219 52.920156 -10.249453 53.160156 -9.6894531 C 53.26041 -9.4638813 53.340478 -9.211514 53.402344 -8.9335938 L 47.033203 -8.9160156 C 47.092897 -9.1255933 47.163718 -9.3248764 47.25 -9.5097656 C 47.55 -10.109765 47.960469 -10.570625 48.480469 -10.890625 C 49.020468 -11.230625 49.649141 -11.400391 50.369141 -11.400391 z M 66.960938 -10.740234 C 67.600937 -10.740234 68.160625 -10.589062 68.640625 -10.289062 C 69.140625 -10.009063 69.519297 -9.6098432 69.779297 -9.0898438 C 70.059297 -8.5698443 70.199219 -7.9690618 70.199219 -7.2890625 C 70.199219 -6.2890635 69.900781 -5.4607806 69.300781 -4.8007812 C 68.700782 -4.1607819 67.909687 -3.8398438 66.929688 -3.8398438 C 66.309688 -3.8398437 65.75 -3.9890628 65.25 -4.2890625 C 64.75 -4.5890622 64.360078 -4.9995318 64.080078 -5.5195312 C 63.800078 -6.0395307 63.660156 -6.6290632 63.660156 -7.2890625 C 63.660156 -7.9690618 63.800078 -8.5698443 64.080078 -9.0898438 C 64.380078 -9.6098432 64.77 -10.009063 65.25 -10.289062 C 65.749999 -10.589062 66.320938 -10.740234 66.960938 -10.740234 z " />
    </g>
  </g>
</svg>
